<svg xmlns="http://www.w3.org/2000/svg" width="27.737" height="36.996" viewBox="0 0 27.737 36.996">
    <g>
        <path fill="#fff" d="M88.65 22.208h-.011l-7.275-2.817v-.319h2.68a1.481 1.481 0 0 0 1.479-1.479v-4.427a2.5 2.5 0 0 0 0-3.038V7.613a7.613 7.613 0 1 0-15.225 0v9.973a1.481 1.481 0 0 0 1.479 1.479h2.732v.314c-.031.017-7.238 2.809-7.272 2.822h-.011a5.361 5.361 0 0 0-3.158 4.876v8.43A1.484 1.484 0 0 0 65.551 37h11.122a.542.542 0 1 0 0-1.084H69.5v-7.57a4.721 4.721 0 0 0-1.5-3.443l-1.238-1.153a3.63 3.63 0 0 1 .868-.533l5.042-1.955a8.918 8.918 0 0 0 4.1 5.79 2.342 2.342 0 0 0 2.4 0 8.915 8.915 0 0 0 4.091-5.764l4.981 1.929a3.563 3.563 0 0 1 .871.528L87.87 24.9a4.721 4.721 0 0 0-1.5 3.443v2.184a.542.542 0 0 0 1.084 0v-2.185a3.633 3.633 0 0 1 1.153-2.65l1.253-1.168a4.32 4.32 0 0 1 .86 2.56v8.43a.4.4 0 0 1-.4.4h-2.864v-2.859a.542.542 0 0 0-1.084 0v2.857H79.2a.542.542 0 1 0 0 1.088h11.124a1.484 1.484 0 0 0 1.482-1.482v-8.43a5.349 5.349 0 0 0-3.156-4.88zm-21.384 3.484a3.633 3.633 0 0 1 1.153 2.65v7.57h-2.866a.4.4 0 0 1-.4-.4v-8.43a4.21 4.21 0 0 1 .861-2.558zm17.173-8.1a.4.4 0 0 1-.4.4h-2.676v-.054a5.609 5.609 0 0 0 2.174-3.767 2.692 2.692 0 0 0 .9-.181v3.607zm-5.93 5.834h-1.2a2.8 2.8 0 0 0-.565-2.067l-1.217-1.579a1.084 1.084 0 0 0 .066-.382v-.814a5.884 5.884 0 0 0 4.686-.01v.826a1.074 1.074 0 0 0 .052.327l-1.257 1.624a2.8 2.8 0 0 0-.565 2.067zm-.526-5.438a4.548 4.548 0 0 1-4.659-4.513v-1.82a16.115 16.115 0 0 0 6-4.379A7.838 7.838 0 0 0 82.5 9.26v4.21a4.518 4.518 0 0 1-4.513 4.513zm6.97-6.337a1.439 1.439 0 0 1-1.37 1.428v-2.86a1.439 1.439 0 0 1 1.37 1.428zm-13.176 6.333a.4.4 0 0 1-.4-.4V7.613a6.529 6.529 0 1 1 13.058 0v1.7a2.689 2.689 0 0 0-.861-.18 1 1 0 0 0-.714-.894 6.785 6.785 0 0 1-2.815-1.779 1.011 1.011 0 0 0-1.486.037 15.037 15.037 0 0 1-5.659 4.155 1.015 1.015 0 0 0-.661.948v1.871a5.557 5.557 0 0 0 2.269 4.494v.019h-2.731zm3.69 6.559a8.483 8.483 0 0 1-1.767-3.682l1-.386 1.195 1.543a1.745 1.745 0 0 1-.427 2.524zm3.022 1.639a1.257 1.257 0 0 1-1.162-.065l-.01-.006a7.386 7.386 0 0 1-1.088-.792 3.681 3.681 0 0 0 .7-.812h1.956a3.688 3.688 0 0 0 .764.865 6.358 6.358 0 0 1-1.159.809zm1.936-1.582a1.771 1.771 0 0 1-.493-2.582l1.206-1.557 1.1.427a8.472 8.472 0 0 1-1.813 3.712z" transform="translate(-64.069)"/>
    </g>
</svg>
