<svg xmlns="http://www.w3.org/2000/svg" width="67.148" height="55.145" viewBox="0 0 47.148 55.145">
    <g fill="#fff">
        <text font-family="SegoeUI, Segoe UI" font-size="11px" transform="translate(-1860.852 -1387.855) translate(1908 1440)">
            <tspan x="-50.654" y="0">Контакти</tspan>
        </text>
        <path d="M19.375 36.352L4.655 20.881a9.379 9.379 0 0 1-2.077-3.446.552.552 0 1 1 1.046-.355 8.282 8.282 0 0 0 1.832 3.04l14.719 15.47a8.323 8.323 0 0 0 11.542.537L24.711 28.7l-.76.718a2.579 2.579 0 0 1-3.646-.1l-8.583-8.968a2.585 2.585 0 0 1 .1-3.653l.76-.72L5.576 8.55a8.343 8.343 0 0 0-2.385 6.185.552.552 0 1 1-1.1.044 9.444 9.444 0 0 1 2.94-7.242l2.116-2a2.753 2.753 0 0 1 3.893.111l4.744 5.03a2.762 2.762 0 0 1-.111 3.9L12.581 17.5a1.477 1.477 0 0 0-.059 2.087l8.584 8.966a1.472 1.472 0 0 0 2.087.062l3.093-2.926a2.75 2.75 0 0 1 3.892.111l4.744 5.029a2.76 2.76 0 0 1-.11 3.9l-2.116 2a9.362 9.362 0 0 1-4.337 2.33 9.441 9.441 0 0 1-8.985-2.709zM27.8 26.085a1.645 1.645 0 0 0-.759.409l-1.53 1.447 7.01 7.431 1.53-1.448a1.653 1.653 0 0 0 .066-2.335l-4.741-5.029a1.63 1.63 0 0 0-1.152-.517h-.045a1.668 1.668 0 0 0-.379.042zM8.664 5.929a1.642 1.642 0 0 0-.759.41l-1.53 1.447L8.7 10.248l4.688 4.969 1.53-1.448a1.652 1.652 0 0 0 .067-2.335l-4.747-5.029a1.64 1.64 0 0 0-1.153-.517h-.043a1.718 1.718 0 0 0-.378.041zm25.5 12.424A10.037 10.037 0 0 0 24.143 8.32a.59.59 0 0 1 0-1.18 11.217 11.217 0 0 1 11.2 11.213.59.59 0 1 1-1.179 0zm-3.535 0a6.494 6.494 0 0 0-6.482-6.492.59.59 0 0 1 0-1.181 7.675 7.675 0 0 1 7.66 7.672.589.589 0 1 1-1.178 0zm-3.536 0a2.952 2.952 0 0 0-2.95-2.953.59.59 0 0 1 0-1.18 4.132 4.132 0 0 1 4.125 4.131.59.59 0 0 1-1.179 0z" transform="translate(-1860.852 -1387.855) translate(1858.773 1383.074)"/>
    </g>
</svg>
