<svg xmlns="http://www.w3.org/2000/svg" width="39.055" height="30.802" viewBox="0 0 39.055 30.802">
    <g>
        <g>
            <path fill="#fff" d="M38.393 83.616h-8.331v-3.951a5.9 5.9 0 0 0 4.369-3.1 5.775 5.775 0 0 0 3.215-2.056 6.589 6.589 0 0 0 1.409-4.1 6.416 6.416 0 0 0-3.016-5.509 6.986 6.986 0 0 0-6.719-6.861 6.355 6.355 0 0 0-3.228.888.643.643 0 1 0 .654 1.108 5.067 5.067 0 0 1 2.574-.709 5.733 5.733 0 0 1 5.442 5.96.644.644 0 0 0 .353.573 5.076 5.076 0 0 1 2.653 4.549 4.911 4.911 0 0 1-3.872 4.95.643.643 0 0 0-.475.355 4.682 4.682 0 0 1-3.36 2.651v-5.696l3.167-2.912a.643.643 0 1 0-.871-.947l-2.3 2.111v-4.3a.643.643 0 0 0-1.287 0v7.788l-2.3-2.111a.643.643 0 0 0-.871.947l3.167 2.912v2.231a4.657 4.657 0 0 1-3.566-2.713.643.643 0 0 0-.448-.354 4.913 4.913 0 0 1-3.685-4.914 5.067 5.067 0 0 1 2.484-4.458.644.644 0 0 0 .328-.569v-.053-.031a6.289 6.289 0 0 1 1.144-3.663.643.643 0 0 0-1.05-.744 7.545 7.545 0 0 0-1.373 4.136 6.39 6.39 0 0 0-2.814 5.382 6.238 6.238 0 0 0 4.4 6.1 5.881 5.881 0 0 0 4.6 3.184v3.928h-.408a4.073 4.073 0 0 0-2.849-3.644 3.811 3.811 0 0 0-2.629-2.1 3.8 3.8 0 0 0-7.024-1.06 3.929 3.929 0 0 0-3.185 1.846A3.225 3.225 0 0 0 9.9 76.551V74.86a5.677 5.677 0 0 0 4.174-2.972 5.558 5.558 0 0 0 3.081-1.975 6.335 6.335 0 0 0 1.355-3.943 6.171 6.171 0 0 0-2.889-5.29A6.715 6.715 0 0 0 9.16 54.1a6.113 6.113 0 0 0-3.672 1.231.643.643 0 0 0 .768 1.032 4.835 4.835 0 0 1 2.9-.977 5.461 5.461 0 0 1 5.182 5.679.644.644 0 0 0 .353.573 4.832 4.832 0 0 1 2.529 4.332 4.674 4.674 0 0 1-3.684 4.712.644.644 0 0 0-.475.355A4.461 4.461 0 0 1 9.9 73.556v-5.407l3.023-2.78a.643.643 0 1 0-.871-.947L9.9 66.4v-4.05a.643.643 0 0 0-1.287 0v7.394l-2.155-1.978a.643.643 0 0 0-.871.947l3.023 2.78v2.093A4.435 4.435 0 0 1 5.241 71a.643.643 0 0 0-.448-.354 4.677 4.677 0 0 1-3.506-4.676 4.824 4.824 0 0 1 2.364-4.244.643.643 0 0 0 .328-.568v-.052-.028a6.122 6.122 0 0 1 .436-2.288 5.926 5.926 0 0 1 .295-.626.643.643 0 0 0-1.13-.616 7.212 7.212 0 0 0-.359.763 7.376 7.376 0 0 0-.526 2.489A6.147 6.147 0 0 0 0 65.97a6 6 0 0 0 4.218 5.861 5.659 5.659 0 0 0 4.392 3.05v1.841a3.2 3.2 0 0 0-1.695 1.386 3.288 3.288 0 0 0-3.07 2.765 4.146 4.146 0 0 0-2.325 2.742H.643a.643.643 0 0 0 0 1.287h37.75a.643.643 0 1 0 0-1.287zm-35.523 0a2.856 2.856 0 0 1 1.775-1.672.643.643 0 0 0 .445-.593 2.01 2.01 0 0 1 2.02-1.96c.044 0 .092 0 .152.006A.644.644 0 0 0 7.9 79a1.916 1.916 0 0 1 3.677.59.644.644 0 0 0 .592.592 1.9 1.9 0 0 1 .506.111l.088.035.019.008.081.037.027.014q.055.028.108.06l.057.035.042.028.063.044.035.026c.025.019.049.039.073.06l.02.017a1.922 1.922 0 0 1 .179.181l.015.018q.035.042.068.085l.013.017a1.91 1.91 0 0 1 .136.215l.016.03q.022.042.041.085l.016.034c.016.037.032.075.046.113a.644.644 0 0 0 .47.41c.058.012.114.027.169.044l.054.018c.037.012.074.025.11.039l.061.027.1.044.062.033c.03.016.059.032.087.05l.06.038.082.056.057.042.078.064.052.045.076.074.044.044c.028.03.055.061.081.092l.03.034q.053.066.1.135l.019.03c.024.037.048.075.07.113l.028.053c.009.017.034.064.049.1l.027.062c.009.021.027.063.039.095l.023.066c.007.022.021.064.03.1l.019.069.022.1.013.07c.004.024 0 .022 0 .033zm14.36 0v-.018c-.007-.077-.017-.153-.03-.229v-.013q-.02-.115-.047-.229v-.01c-.018-.075-.04-.148-.063-.221l-.007-.024c-.023-.07-.048-.139-.076-.207l-.012-.03q-.041-.1-.089-.2l-.015-.031q-.048-.1-.1-.189l-.017-.028q-.056-.094-.117-.184l-.015-.022c-.043-.061-.087-.122-.134-.18l-.009-.011q-.073-.091-.152-.177c-.052-.057-.107-.111-.162-.164l-.014-.014c-.054-.05-.109-.1-.167-.146l-.023-.019q-.084-.068-.173-.131l-.027-.019q-.089-.062-.181-.118l-.029-.017q-.094-.055-.191-.105l-.027-.013c-.067-.033-.135-.065-.2-.094l-.019-.007c-.073-.03-.147-.057-.223-.082l-.01-.019q-.039-.078-.082-.154l-.046-.076c-.016-.025-.037-.061-.057-.091l-.058-.085-.052-.072-.068-.089-.042-.05q-.081-.1-.17-.189l-.03-.032-.09-.086-.053-.048-.089-.076-.067-.053-.085-.064-.124-.085-.033-.023a2.643 2.643 0 0 1 2.276-1.3c.058 0 .121 0 .2.008a.643.643 0 0 0 .641-.392 2.516 2.516 0 0 1 4.828.775.643.643 0 0 0 .592.591 2.518 2.518 0 0 1 2.168 1.651.644.644 0 0 0 .47.41 2.775 2.775 0 0 1 2.167 2.474h-9.866z" transform="translate(0 -54.101) translate(0 54.101) translate(0 -54.101)"/>
        </g>
    </g>
</svg>
