<svg xmlns="http://www.w3.org/2000/svg" width="87" height="55.798" viewBox="0 0 67 55.798">
    <g>
        <g>
            <path fill="#fff" d="M42.885 54.373h-1.02v-.594a1.43 1.43 0 0 0-1.543-1.426 20.065 20.065 0 0 1-6.364-.755.651.651 0 1 0-.32 1.263 21.207 21.207 0 0 0 6.789.79.126.126 0 0 1 .136.127V80.07a23.085 23.085 0 0 1-8.155-1.161 10.8 10.8 0 0 0-9.517 1.549V54.416a9.32 9.32 0 0 1 7.763-2.316.651.651 0 0 0 .207-1.286 10.54 10.54 0 0 0-8.624 2.438 10.632 10.632 0 0 0-10.167-2.081 22.134 22.134 0 0 1-7.915 1.185 1.43 1.43 0 0 0-1.543 1.426v.594H1.591A1.593 1.593 0 0 0 0 55.964v26.42a1.593 1.593 0 0 0 1.591 1.591h16.881a.642.642 0 0 1 .585.356 3.523 3.523 0 0 0 6.363 0 .643.643 0 0 1 .58-.355h16.885a1.593 1.593 0 0 0 1.591-1.591V70.029a.652.652 0 1 0-1.3 0v12.356a.288.288 0 0 1-.288.288H26a1.951 1.951 0 0 0-1.763 1.1 2.218 2.218 0 0 1-4.007 0 1.951 1.951 0 0 0-1.763-1.1H1.591a.288.288 0 0 1-.288-.288V55.964a.288.288 0 0 1 .288-.288h1.02v24.95a.651.651 0 0 0 .485.63c.124.033 3.108.782 9.349-1.1a9.349 9.349 0 0 1 8.247 1.279 2.69 2.69 0 0 0 3.092 0 9.345 9.345 0 0 1 8.247-1.279c6.242 1.881 9.225 1.132 9.349 1.1a.651.651 0 0 0 .485-.63v-24.95h1.02a.288.288 0 0 1 .288.288v11.025a.652.652 0 0 0 1.3 0V55.964a1.593 1.593 0 0 0-1.588-1.591zm-38.97-.594a.126.126 0 0 1 .136-.127 23.4 23.4 0 0 0 8.4-1.237 9.289 9.289 0 0 1 9.141 2v26.043a10.747 10.747 0 0 0-9.517-1.549c-.351.106-.738.216-1.095.311h-.013a21.307 21.307 0 0 1-7.047.846V53.775z" transform="translate(-1845 -1478.202) translate(1857.442 1427.533)"/>
        </g>
        <text fill="#fff" font-family="SegoeUI, Segoe UI" font-size="11px" transform="translate(-1845 -1478.202) translate(1912 1531)">
            <tspan x="-66.892" y="0">Информация</tspan>
        </text>
    </g>
</svg>
