<svg xmlns="http://www.w3.org/2000/svg" width="115" height="115" viewBox="0 0 115 115">
    <defs>
        <filter id="Rectangle_866" width="115" height="115" x="0" y="0" filterUnits="userSpaceOnUse">
            <feOffset dy="3"/>
            <feGaussianBlur result="blur" stdDeviation="7.5"/>
            <feFlood flood-color="#930b5f" flood-opacity=".361"/>
            <feComposite in2="blur" operator="in"/>
            <feComposite in="SourceGraphic"/>
        </filter>
        <style>
            .cls-1{fill:#930b5f}.cls-3{fill:#fff}
        </style>
    </defs>
    <g id="Group_63" transform="translate(-1243.285 -1064.285)">
        <g filter="url(#Rectangle_866)" transform="translate(1243.28 1064.28)">
            <rect id="Rectangle_866-2" width="70" height="70" class="cls-1" rx="15" transform="translate(22.5 19.5)"/>
        </g>
        <g id="Ellipse_35" fill="none" stroke="#fff" stroke-width="1.5px" transform="translate(1288.927 1130.844)">
            <ellipse cx="12.5" cy="3.5" stroke="none" rx="12.5" ry="3.5"/>
            <ellipse cx="12.5" cy="3.5" rx="11.75" ry="2.75"/>
        </g>
        <path id="Rectangle_860" d="M0 0H11V4H0z" class="cls-1" transform="translate(1295.987 1130.495)"/>
        <g id="location-pin" transform="translate(1290.361 1101.706)">
            <path id="Path_5368" d="M11.62 33.4C11.186 32.965 1 22.658 1 12.081a11.081 11.081 0 1 1 22.161 0c0 10.577-10.186 20.885-10.62 21.318a.652.652 0 0 1-.922 0zm.461-31.1A9.788 9.788 0 0 0 2.3 12.081c0 8.8 7.781 17.759 9.777 19.912 2-2.154 9.777-11.12 9.777-19.912A9.788 9.788 0 0 0 12.081 2.3z" class="cls-3" transform="translate(-1 -.986)"/>
            <path id="Path_5369" d="M6.652 14.473A.652.652 0 0 1 6 13.822 7.83 7.83 0 0 1 13.822 6a.652.652 0 1 1 0 1.3A6.525 6.525 0 0 0 7.3 13.822a.652.652 0 0 1-.652.652z" class="cls-3" transform="translate(-2.741 -2.727)"/>
            <path id="Path_5370" d="M15.563 20.125a4.563 4.563 0 1 1 4.563-4.563 4.563 4.563 0 0 1-4.563 4.563zm0-7.822a3.259 3.259 0 1 0 3.259 3.259 3.259 3.259 0 0 0-3.259-3.262z" class="cls-3" transform="translate(-4.482 -4.468)"/>
            <path id="Path_5371" d="M11.314 13.223s2.1-1.335 1.553.886 1.856-1.551 1.856-1.551-2.335.262-1.133-1.476-2.276 2.141-2.276 2.141z" class="cls-1" transform="translate(-4.591 -4.34)"/>
            <path id="Path_5372" d="M11.314 14.349s2.679-1.988 1.93 1.045 2.725-1.953 2.725-1.953-2.931.728-1.289-1.645-3.366 2.553-3.366 2.553z" class="cls-1" transform="translate(-8.473 -11.149)"/>
        </g>
    </g>
</svg>
