<svg xmlns="http://www.w3.org/2000/svg" width="30.519" height="36.935" viewBox="0 0 30.519 36.935">
    <defs>
        <style>
            .cls-1{fill:#fff}
        </style>
    </defs>
    <g id="medal" transform="translate(-44.462)">
        <path id="Path_5303" d="M137.467 64.013a.541.541 0 0 0 .639-.423 10.047 10.047 0 0 0 .2-2 9.936 9.936 0 1 0-1.1 4.559.541.541 0 1 0-.962-.5 8.873 8.873 0 1 1 .98-4.061 8.955 8.955 0 0 1-.18 1.787.543.543 0 0 0 .422.641z" class="cls-1" transform="translate(-68.666 -47.91)"/>
        <path id="Path_5304" d="M184.249 105.207a.542.542 0 0 0-.438-.37l-3.527-.507-1.57-3.208a.544.544 0 0 0-.971 0l-1.57 3.208-3.527.507a.547.547 0 0 0-.3.927l2.556 2.489-.609 3.521a.545.545 0 0 0 .786.573l3.15-1.669 3.15 1.669a.545.545 0 0 0 .786-.573l-.609-3.521 2.556-2.489a.543.543 0 0 0 .137-.557zm-3.653 2.467a.544.544 0 0 0-.156.482l.47 2.714-2.428-1.287a.54.54 0 0 0-.506 0l-2.428 1.287.47-2.714a.544.544 0 0 0-.156-.482l-1.971-1.919 2.719-.391a.541.541 0 0 0 .409-.3l1.21-2.473 1.21 2.473a.541.541 0 0 0 .409.3l2.719.391z" class="cls-1" transform="translate(-118.508 -93.55)"/>
        <path id="Path_5305" d="M74.906 32.261l-5.289-9.188a13.655 13.655 0 0 0-16.5-21.362.542.542 0 0 0 .525.949 12.6 12.6 0 1 1-1.994 1.378.542.542 0 0 0-.7-.83 13.693 13.693 0 0 0-1.11 19.878l-1.5 2.6a.542.542 0 0 0 .937.543l1.362-2.365a13.6 13.6 0 0 0 5.8 3.084l-4.672 8.112-1.194-3.77a.541.541 0 0 0-.632-.366l-3.853.848 1.927-3.348a.542.542 0 1 0-.937-.543l-2.54 4.413a.546.546 0 0 0 .585.8l4.568-1.005 1.416 4.471a.544.544 0 0 0 .984.107l5.463-9.491a13.62 13.62 0 0 0 4.355 0l3.281 5.7a.542.542 0 1 0 .937-.543l-3.1-5.387a13.6 13.6 0 0 0 5.793-3.091l4.539 7.885-3.857-.849a.541.541 0 0 0-.632.366l-1.194 3.77-.289-.5a.542.542 0 1 0-.937.543l.9 1.567a.544.544 0 0 0 .984-.107l1.416-4.471 4.568 1.005a.546.546 0 0 0 .585-.8z" class="cls-1"/>
    </g>
</svg>
