<svg xmlns="http://www.w3.org/2000/svg" id="Group_48" width="328" height="378" viewBox="0 0 328 378">
    <defs>
        <style>
            .cls-3{fill:#ebebeb}.cls-4{fill:#e0e0e0}.cls-5{fill:#e6e6e6}.cls-6{fill:#f5f5f5}.cls-7{fill:#f0f0f0}.cls-8{fill:#fafafa}.cls-9{fill:#d40e14}.cls-11,.cls-14,.cls-15,.cls-22,.cls-25,.cls-26,.cls-29{fill:#fff}.cls-12,.cls-15{opacity:.9}.cls-13,.cls-14,.cls-23{opacity:.1}.cls-16,.cls-19,.cls-27{opacity:.2}.cls-17{fill:#ffc3bd}.cls-18{opacity:.5}.cls-19,.cls-24{isolation:isolate}.cls-20{fill:#263238}.cls-22{opacity:.8}.cls-24,.cls-26{opacity:.6}.cls-25,.cls-28{opacity:.3}.cls-29{opacity:.4}
        </style>
    </defs>
    <text id="МИСИЯ_И_ВИЗИЯ" fill="#252525" font-family="SegoeUI, Segoe UI" font-size="23px" transform="translate(261 372)">
        <tspan x="-186.415" y="0">МИСИЯ И ВИЗИЯ</tspan>
    </text>
    <circle id="Ellipse_18" cx="164" cy="164" r="164" fill="#faf9f9"/>
    <g id="Knowledge-rafiki_1_" transform="translate(19.339 54.149)">
        <g id="freepik--background-complete--inject-344">
            <path id="Rectangle_464" d="M0 0H19.215V0.145H0z" class="cls-3" transform="translate(241.801 199.281)"/>
            <path id="Rectangle_465" d="M0 0H5.042V0.145H0z" class="cls-3" transform="translate(187.121 200.859)"/>
            <path id="Rectangle_466" d="M0 0H11.133V0.145H0z" class="cls-3" transform="translate(230.088 193.897)"/>
            <path id="Rectangle_467" d="M0 0H25.057V0.145H0z" class="cls-3" transform="translate(30.435 194.872)"/>
            <path id="Rectangle_468" d="M0 0H3.672V0.145H0z" class="cls-3" transform="translate(60.662 194.872)"/>
            <path id="Rectangle_469" d="M0 0H54.35V0.145H0z" class="cls-3" transform="translate(76.274 197.32)"/>
            <path id="Path_4299" d="M153.541 219.071H41.517a3.313 3.313 0 0 1-3.307-3.313V58.284A3.313 3.313 0 0 1 41.517 55h112.024a3.313 3.313 0 0 1 3.313 3.313v157.445a3.313 3.313 0 0 1-3.313 3.313zM41.517 55.116a3.168 3.168 0 0 0-3.162 3.168v157.474a3.168 3.168 0 0 0 3.162 3.168h112.024a3.174 3.174 0 0 0 3.168-3.168V58.284a3.174 3.174 0 0 0-3.168-3.168z" class="cls-3" transform="translate(-16.042 -55)"/>
            <path id="Path_4300" d="M369.843 219.071h-112.03a3.319 3.319 0 0 1-3.313-3.313V58.284A3.319 3.319 0 0 1 257.813 55h112.03a3.313 3.313 0 0 1 3.3 3.284v157.474a3.313 3.313 0 0 1-3.3 3.313zM257.813 55.116a3.174 3.174 0 0 0-3.168 3.168v157.474a3.174 3.174 0 0 0 3.168 3.168h112.03a3.174 3.174 0 0 0 3.168-3.168V58.284a3.174 3.174 0 0 0-3.168-3.168z" class="cls-3" transform="translate(-106.848 -55)"/>
            <path id="Rectangle_470" d="M0 0H290.083V0.145H0z" class="cls-3" transform="translate(0 189.946)"/>
            <path id="Rectangle_471" d="M0 0H74.783V165.359H0z" class="cls-4" transform="translate(177.734 23.102)"/>
            <path id="Path_4301" d="M435.25 92.32v168.248h13.779V92.32z" class="cls-5" transform="translate(-182.733 -70.668)"/>
            <path id="Path_4302" d="M283.75 92.32v168.248h13.773V92.32z" class="cls-5" transform="translate(-119.128 -70.668)"/>
            <path id="Path_4303" d="M279.71 92.32v168.248h91.89V92.32zm88.585 2.9v30.169h-85.284V95.221zm-85.284 96.307V161.36H368.3v30.169zm85.284 2.9V224.6h-85.284v-30.171zm-85.284-35.97V128.29H368.3v30.169zm0 99.208V227.5H368.3v30.169z" class="cls-6" transform="translate(-117.432 -70.668)"/>
            <path id="Rectangle_472" d="M0 0H3.179V23.41H0z" class="cls-5" transform="rotate(180 112.126 27.5)"/>
            <path id="Rectangle_473" d="M0 0H3.179V23.41H0z" class="cls-4" transform="rotate(180 113.716 27.5)"/>
            <path id="Rectangle_474" d="M0 0H6.359V21.768H0z" class="cls-5" transform="rotate(180 110.536 27.5)"/>
            <path id="Rectangle_475" d="M0 0H4.108V23.41H0z" class="cls-7" transform="rotate(180 105.77 27.5)"/>
            <path id="Rectangle_476" d="M0 0H3.179V23.41H0z" class="cls-3" transform="rotate(180 107.36 27.5)"/>
            <path id="Rectangle_477" d="M0 0H4.108V23.41H0z" class="cls-5" transform="rotate(180 93.714 27.5)"/>
            <path id="Rectangle_478" d="M0 0H3.179V23.41H0z" class="cls-3" transform="rotate(180 95.303 27.5)"/>
            <path id="Rectangle_479" d="M0 0H4.108V23.41H0z" class="cls-5" transform="rotate(180 100.534 27.5)"/>
            <path id="Rectangle_480" d="M0 0H3.179V23.41H0z" class="cls-4" transform="rotate(180 102.124 27.5)"/>
            <path id="Rectangle_481" d="M0 0H6.359V22.859H0z" class="cls-3" transform="rotate(180 91.66 27.5)"/>
            <path id="Rectangle_482" d="M0 0H3.179V22.859H0z" class="cls-4" transform="rotate(180 88.484 27.5)"/>
            <path id="Rectangle_483" d="M0 0H4.235V22.859H0z" class="cls-4" transform="rotate(180 98.483 27.5)"/>
            <path id="Rectangle_484" d="M0 0H2.118V22.859H0z" class="cls-7" transform="rotate(180 96.362 27.5)"/>
            <path id="Rectangle_485" d="M0 0H6.359V21.768H0z" class="cls-6" transform="rotate(180 103.713 27.5)"/>
            <path id="Rectangle_486" d="M0 0H4.108V23.41H0z" class="cls-3" transform="rotate(180 120.538 27.5)"/>
            <path id="Rectangle_487" d="M0 0H3.179V23.41H0z" class="cls-5" transform="rotate(180 122.127 27.5)"/>
            <path id="Rectangle_488" d="M0 0H6.359V22.859H0z" class="cls-4" transform="rotate(180 118.481 27.5)"/>
            <path id="Rectangle_489" d="M0 0H3.179V22.859H0z" class="cls-3" transform="rotate(180 115.302 27.5)"/>
            <path id="Rectangle_490" d="M0 0H4.235V22.859H0z" class="cls-3" transform="rotate(180 125.304 27.5)"/>
            <path id="Rectangle_491" d="M0 0H2.118V22.859H0z" class="cls-8" transform="rotate(180 123.186 27.5)"/>
            <path id="Rectangle_492" d="M0 0H3.179V23.41H0z" class="cls-5" transform="translate(200.14 64.369)"/>
            <path id="Rectangle_493" d="M0 0H3.179V23.41H0z" class="cls-4" transform="translate(196.966 64.369)"/>
            <path id="Rectangle_494" d="M0 0H6.359V21.768H0z" class="cls-5" transform="translate(203.319 66.017)"/>
            <path id="Rectangle_495" d="M0 0H4.108V23.41H0z" class="cls-7" transform="translate(212.857 64.369)"/>
            <path id="Rectangle_496" d="M0 0H3.179V23.41H0z" class="cls-3" transform="translate(209.677 64.369)"/>
            <path id="Rectangle_497" d="M0 0H4.108V23.41H0z" class="cls-5" transform="translate(236.963 64.369)"/>
            <path id="Rectangle_498" d="M0 0H3.179V23.41H0z" class="cls-3" transform="translate(233.783 64.369)"/>
            <path id="Rectangle_499" d="M0 0H4.108V23.41H0z" class="cls-5" transform="translate(223.323 64.369)"/>
            <path id="Rectangle_500" d="M0 0H3.179V23.41H0z" class="cls-4" transform="translate(220.144 64.369)"/>
            <path id="Rectangle_501" d="M0 0H6.359V22.859H0z" class="cls-3" transform="translate(241.07 64.926)"/>
            <path id="Rectangle_502" d="M0 0H3.179V22.859H0z" class="cls-4" transform="translate(247.429 64.926)"/>
            <path id="Rectangle_503" d="M0 0H4.235V22.859H0z" class="cls-4" transform="translate(227.431 64.926)"/>
            <path id="Rectangle_504" d="M0 0H2.118V22.859H0z" class="cls-7" transform="translate(231.666 64.926)"/>
            <path id="Rectangle_505" d="M0 0H6.359V21.768H0z" class="cls-6" transform="translate(216.964 66.017)"/>
            <path id="Rectangle_506" d="M0 0H4.108V23.41H0z" class="cls-3" transform="translate(183.321 64.369)"/>
            <path id="Rectangle_507" d="M0 0H3.179V23.41H0z" class="cls-5" transform="translate(180.141 64.369)"/>
            <path id="Rectangle_508" d="M0 0H6.359V22.859H0z" class="cls-4" transform="translate(187.428 64.926)"/>
            <path id="Rectangle_509" d="M0 0H3.179V22.859H0z" class="cls-3" transform="translate(193.787 64.926)"/>
            <path id="Rectangle_510" d="M0 0H4.235V22.859H0z" class="cls-3" transform="translate(173.783 64.926)"/>
            <path id="Rectangle_511" d="M0 0H2.118V22.859H0z" class="cls-8" transform="translate(178.024 64.926)"/>
            <path id="Rectangle_512" d="M0 0H3.179V23.41H0z" class="cls-5" transform="translate(200.14 97.735)"/>
            <path id="Rectangle_513" d="M0 0H3.179V23.41H0z" class="cls-4" transform="translate(196.966 97.735)"/>
            <path id="Rectangle_514" d="M0 0H6.359V21.768H0z" class="cls-5" transform="translate(203.319 99.376)"/>
            <path id="Rectangle_515" d="M0 0H4.108V23.41H0z" class="cls-7" transform="translate(212.857 97.735)"/>
            <path id="Rectangle_516" d="M0 0H3.179V23.41H0z" class="cls-3" transform="translate(209.677 97.735)"/>
            <path id="Rectangle_517" d="M0 0H4.108V23.41H0z" class="cls-5" transform="translate(236.963 97.735)"/>
            <path id="Rectangle_518" d="M0 0H3.179V23.41H0z" class="cls-3" transform="translate(233.783 97.735)"/>
            <path id="Rectangle_519" d="M0 0H4.108V23.41H0z" class="cls-5" transform="translate(223.323 97.735)"/>
            <path id="Rectangle_520" d="M0 0H3.179V23.41H0z" class="cls-4" transform="translate(220.144 97.735)"/>
            <path id="Rectangle_521" d="M0 0H6.359V22.859H0z" class="cls-3" transform="translate(241.07 98.286)"/>
            <path id="Rectangle_522" d="M0 0H3.179V22.859H0z" class="cls-4" transform="translate(247.429 98.286)"/>
            <path id="Rectangle_523" d="M0 0H4.235V22.859H0z" class="cls-4" transform="translate(227.431 98.286)"/>
            <path id="Rectangle_524" d="M0 0H2.118V22.859H0z" class="cls-7" transform="translate(231.666 98.286)"/>
            <path id="Rectangle_525" d="M0 0H6.359V21.768H0z" class="cls-6" transform="translate(216.964 99.376)"/>
            <path id="Rectangle_526" d="M0 0H4.108V23.41H0z" class="cls-3" transform="translate(183.321 97.735)"/>
            <path id="Rectangle_527" d="M0 0H3.179V23.41H0z" class="cls-5" transform="translate(180.141 97.735)"/>
            <path id="Rectangle_528" d="M0 0H6.359V22.859H0z" class="cls-4" transform="translate(187.428 98.286)"/>
            <path id="Rectangle_529" d="M0 0H3.179V22.859H0z" class="cls-3" transform="translate(193.787 98.286)"/>
            <path id="Rectangle_530" d="M0 0H4.235V22.859H0z" class="cls-3" transform="translate(173.783 98.286)"/>
            <path id="Rectangle_531" d="M0 0H2.118V22.859H0z" class="cls-8" transform="translate(178.024 98.286)"/>
            <path id="Rectangle_532" d="M0 0H3.179V23.41H0z" class="cls-5" transform="rotate(180 112.126 77.255)"/>
            <path id="Rectangle_533" d="M0 0H3.179V23.41H0z" class="cls-4" transform="rotate(180 113.716 77.255)"/>
            <path id="Rectangle_534" d="M0 0H6.359V21.768H0z" class="cls-5" transform="rotate(180 110.536 76.431)"/>
            <path id="Rectangle_535" d="M0 0H4.108V23.41H0z" class="cls-7" transform="rotate(180 105.77 77.255)"/>
            <path id="Rectangle_536" d="M0 0H3.179V23.41H0z" class="cls-3" transform="rotate(180 107.36 77.255)"/>
            <path id="Rectangle_537" d="M0 0H4.108V23.41H0z" class="cls-5" transform="rotate(180 93.714 77.255)"/>
            <path id="Rectangle_538" d="M0 0H3.179V23.41H0z" class="cls-3" transform="rotate(180 95.303 77.255)"/>
            <path id="Rectangle_539" d="M0 0H4.108V23.41H0z" class="cls-5" transform="rotate(180 100.534 77.255)"/>
            <path id="Rectangle_540" d="M0 0H3.179V23.41H0z" class="cls-4" transform="rotate(180 102.124 77.255)"/>
            <path id="Rectangle_541" d="M0 0H6.359V22.859H0z" class="cls-3" transform="rotate(180 91.66 76.977)"/>
            <path id="Rectangle_542" d="M0 0H3.179V22.859H0z" class="cls-4" transform="rotate(180 88.484 76.977)"/>
            <path id="Rectangle_543" d="M0 0H4.235V22.859H0z" class="cls-4" transform="rotate(180 98.483 76.977)"/>
            <path id="Rectangle_544" d="M0 0H2.118V22.859H0z" class="cls-7" transform="rotate(180 96.362 76.977)"/>
            <path id="Rectangle_545" d="M0 0H6.359V21.768H0z" class="cls-6" transform="rotate(180 103.713 76.431)"/>
            <path id="Rectangle_546" d="M0 0H4.108V23.41H0z" class="cls-3" transform="rotate(180 120.538 77.255)"/>
            <path id="Rectangle_547" d="M0 0H3.179V23.41H0z" class="cls-5" transform="rotate(180 122.127 77.255)"/>
            <path id="Rectangle_548" d="M0 0H6.359V22.859H0z" class="cls-4" transform="rotate(180 118.481 76.977)"/>
            <path id="Rectangle_549" d="M0 0H3.179V22.859H0z" class="cls-3" transform="rotate(180 115.302 76.977)"/>
            <path id="Rectangle_550" d="M0 0H4.235V22.859H0z" class="cls-3" transform="rotate(180 125.304 76.977)"/>
            <path id="Rectangle_551" d="M0 0H2.118V22.859H0z" class="cls-8" transform="rotate(180 123.186 76.977)"/>
            <path id="Rectangle_552" d="M0 0H3.179V23.41H0z" class="cls-5" transform="translate(200.14 164.459)"/>
            <path id="Rectangle_553" d="M0 0H3.179V23.41H0z" class="cls-4" transform="translate(196.966 164.459)"/>
            <path id="Rectangle_554" d="M0 0H6.359V21.768H0z" class="cls-5" transform="translate(203.319 164.459)"/>
            <path id="Rectangle_555" d="M0 0H4.108V23.41H0z" class="cls-7" transform="translate(212.857 164.459)"/>
            <path id="Rectangle_556" d="M0 0H3.179V23.41H0z" class="cls-3" transform="translate(209.677 164.459)"/>
            <path id="Rectangle_557" d="M0 0H4.108V23.41H0z" class="cls-5" transform="translate(236.963 164.459)"/>
            <path id="Rectangle_558" d="M0 0H3.179V23.41H0z" class="cls-3" transform="translate(233.783 164.459)"/>
            <path id="Rectangle_559" d="M0 0H4.108V23.41H0z" class="cls-5" transform="translate(223.323 164.459)"/>
            <path id="Rectangle_560" d="M0 0H3.179V23.41H0z" class="cls-4" transform="translate(220.144 164.459)"/>
            <path id="Rectangle_561" d="M0 0H6.359V22.859H0z" class="cls-3" transform="translate(241.07 164.459)"/>
            <path id="Rectangle_562" d="M0 0H3.179V22.859H0z" class="cls-4" transform="translate(247.429 164.459)"/>
            <path id="Rectangle_563" d="M0 0H4.235V22.859H0z" class="cls-4" transform="translate(227.431 164.459)"/>
            <path id="Rectangle_564" d="M0 0H2.118V22.859H0z" class="cls-7" transform="translate(231.666 164.459)"/>
            <path id="Rectangle_565" d="M0 0H6.359V21.768H0z" class="cls-6" transform="translate(216.964 164.459)"/>
            <path id="Rectangle_566" d="M0 0H4.108V23.41H0z" class="cls-3" transform="translate(183.321 164.459)"/>
            <path id="Rectangle_567" d="M0 0H3.179V23.41H0z" class="cls-5" transform="translate(180.141 164.459)"/>
            <path id="Rectangle_568" d="M0 0H6.359V22.859H0z" class="cls-4" transform="translate(187.428 164.459)"/>
            <path id="Rectangle_569" d="M0 0H3.179V22.859H0z" class="cls-3" transform="translate(193.787 164.459)"/>
            <path id="Rectangle_570" d="M0 0H4.235V22.859H0z" class="cls-3" transform="translate(173.783 164.459)"/>
            <path id="Rectangle_571" d="M0 0H2.118V22.859H0z" class="cls-8" transform="translate(178.024 164.459)"/>
            <path id="Path_4304" d="M112.313 97.431a87.449 87.449 0 0 1 .859 13.82 87.449 87.449 0 0 1-.859 13.82 2.181 2.181 0 0 1 .76.5 2.3 2.3 0 1 1-3.243 3.249c-.191-.191-.215-.534-.447-.644-1.92-.951-5.587.743-9.544.743s-7.623-1.694-9.544-.743c-.772.377-1.16 1.317-2.071 1.317s-1.294-.94-2.065-1.317c-1.92-.946-5.587.743-9.544.743s-7.623-1.688-9.55-.743c-.226.11-.249.453-.441.644a2.3 2.3 0 0 1-3.249-3.249c.226-.226.621-.244.766-.5 1.346-2.46-.864-7.908-.864-13.82s2.21-11.365.864-13.82c-.145-.267-.54-.284-.766-.5a2.3 2.3 0 0 1 3.249-3.249c.191.191.215.528.441.644 1.926.951 5.593-.737 9.55-.737s7.623 1.688 9.544.743c.772-.383 1.16-1.317 2.065-1.317s1.3.934 2.071 1.317c1.92.946 5.587-.743 9.544-.743s7.623 1.688 9.544.743c.232-.116.255-.453.447-.644a2.3 2.3 0 1 1 3.243 3.249 2.35 2.35 0 0 1-.76.494z" class="cls-4" transform="translate(-26.373 -70.958)"/>
            <path id="Path_4305" d="M110.505 95.621a87.35 87.35 0 0 1 .864 13.82 87.435 87.435 0 0 1-.864 13.825 2.257 2.257 0 0 1 .766.5 2.3 2.3 0 0 1-3.249 3.243c-.191-.191-.209-.528-.441-.638-1.92-.951-5.587.737-9.544.737s-7.623-1.688-9.544-.737c-.772.377-1.16 1.311-2.071 1.311s-1.3-.934-2.065-1.311c-1.926-.951-5.593.737-9.55.737s-7.623-1.688-9.544-.737c-.232.11-.249.447-.441.638a2.3 2.3 0 0 1-3.249-3.243c.226-.226.621-.244.766-.5 1.346-2.46-.864-7.913-.864-13.825s2.21-11.36.864-13.82c-.145-.261-.54-.278-.766-.5a2.3 2.3 0 1 1 3.249-3.243c.191.191.209.528.441.638 1.92.951 5.587-.737 9.544-.737s7.623 1.688 9.55.737c.766-.377 1.16-1.311 2.065-1.311s1.3.934 2.071 1.311c1.92.951 5.587-.737 9.544-.737s7.641 1.688 9.544.737c.232-.11.249-.447.441-.638a2.3 2.3 0 0 1 3.249 3.243 2.257 2.257 0 0 1-.766.5z" class="cls-8" transform="translate(-25.615 -70.198)"/>
            <path id="Rectangle_572" d="M0 0H27.662V41.227H0z" class="cls-3" transform="rotate(90 28.004 53.416)"/>
            <path id="Rectangle_573" d="M0 0H23.845V35.541H0z" class="cls-6" transform="rotate(90 25.626 52.946)"/>
            <circle id="Ellipse_26" cx="4.786" cy="4.786" r="4.786" class="cls-4" transform="rotate(-13.28 182.363 -192.65)"/>
            <path id="Path_4306" d="M120.6 116.2l-8.372 7 8.372 2.57z" class="cls-3" transform="translate(-47.118 -80.694)"/>
            <path id="Path_4307" d="M84.121 109.251c5.454-3.348 12.218-.928 16.662 2.872.685.58-.3 1.566-.986.986-3.968-3.394-10.083-5.657-14.974-2.657-.766.47-1.468-.737-.702-1.201z" class="cls-3" transform="translate(-35.178 -77.11)"/>
            <path id="Path_4308" d="M78.08 132.819l2.62-2.559 2.187 2.559-2.4 2.326z" class="cls-3" transform="translate(-32.781 -86.597)"/>
            <path id="Path_4309" d="M74.469 221.22a86.139 86.139 0 0 1 1.682 23.7 148.047 148.047 0 0 1-3.011 18.264s12.52-1.445 27.268-1.938a170.456 170.456 0 0 1 36.115 2.675l10.043 1s-6.2-26.8-1.073-43.106z" class="cls-8" transform="translate(-30.707 -124.785)"/>
            <path id="Path_4310" d="M146.3 223.184l-77.5-.255v-6.469l77.208-1.23z" class="cls-3" transform="translate(-28.885 -122.27)"/>
            <path id="Path_4311" d="M97.958 198.818l-.418-.371 21.733-24.3a1.944 1.944 0 0 1 2.866-.029l21.791 23.4-.406.383-21.808-23.4a1.416 1.416 0 0 0-1.027-.441 1.4 1.4 0 0 0-1.015.458z" class="cls-6" transform="translate(-40.951 -104.75)"/>
            <path id="Path_4312" d="M137.709 174.659a.679.679 0 1 1-.2-.482.685.685 0 0 1 .2.482z" class="cls-4" transform="translate(-57.24 -104.952)"/>
            <path id="Path_4313" d="M153.253 240.53a9.38 9.38 0 0 0-2.622 2.744l2.274 2.013a6.11 6.11 0 0 1 .638-1.648 2.054 2.054 0 0 1 1.4-1 2.176 2.176 0 0 1 1 .133 7.408 7.408 0 0 1 2.477 1.74 1.54 1.54 0 0 0 .951-2.176 3.272 3.272 0 0 0-2.181-1.549 30.376 30.376 0 0 1 2.7-2.762 2.135 2.135 0 0 0-2.8-.812 6.243 6.243 0 0 0-2.321 2.222c.307-.412-1.92-2.9-2.379-3.028-1.253-.418-2.17.87-2.791 1.775a12.427 12.427 0 0 1 3.654 2.348z" class="cls-3" transform="translate(-62.811 -131.129)"/>
            <path id="Path_4314" d="M94.78 281.177l-.267-.075zm-.255-.07l-.284-.07v-.058z" class="cls-4" transform="translate(-39.565 -149.874)"/>
            <path id="Path_4315" d="M95.561 277l-.511-.226c.313-.714.661-1.445 1.033-2.17.174-.337.365-.69.58-1.056l.487.273q-.307.54-.58 1.044l-.249-.128.249.128c-.36.687-.702 1.429-1.009 2.135z" class="cls-4" transform="translate(-39.905 -146.755)"/>
            <path id="Path_4316" d="M100.41 263.626l-.47-.3zm.661-.98l-.458-.319c.482-.679.98-1.323 1.479-1.909l.215.186-.215-.186c.261-.3.528-.58.812-.893l.4.389c-.273.284-.534.58-.789.87-.486.574-.974 1.2-1.444 1.862zm27.134-4.061h-.191c-.435 0-.888 0-1.358-.046v-.58c.47 0 .917.035 1.346.041h.18a6.706 6.706 0 0 0 .824-.035c.383-.029.772-.081 1.16-.145l.093.551c-.4.07-.806.122-1.207.151a3.007 3.007 0 0 1-.847.087zm-2.762-.116v-.58h.058zm-20.422-.157l-.354-.435h.041zm18.049-.052c-.389-.046-.789-.093-1.189-.151l.035-.273-.035.273c-.795-.1-1.59-.232-2.367-.371l.1-.58c.772.145 1.561.267 2.321.377l1.16.145zm9.538-.522l-.2-.522h.052zm-26.63-.122l-.307-.47a11.5 11.5 0 0 1 2.158-1.131 10.126 10.126 0 0 1 1.16-.371l.133.54a10.116 10.116 0 0 0-1.1.354 11.105 11.105 0 0 0-2.042 1.1zm12.346-.116l.1-.545h.046zm15.409-.325l-.29-.482a4.061 4.061 0 0 0 1.557-1.56 2.826 2.826 0 0 0 .3-1.033l.58.052a3.481 3.481 0 0 1-.365 1.236l-.116-.058.116.058a4.641 4.641 0 0 1-1.781 1.81zM116 256.96l-1.16-.313.075-.273-.075.273-1.015-.3a9.9 9.9 0 0 0-1.259-.3l.093-.551a10.03 10.03 0 0 1 1.329.319l1 .3 1.16.313zm-4.6-1.027v-.58h.052z" class="cls-4" transform="translate(-41.958 -138.589)"/>
            <path id="Path_4317" d="M160.1 250.245l-.023-.052.534-.162z" class="cls-4" transform="translate(-67.207 -136.88)"/>
        </g>
        <g id="freepik--Shadow--inject-344" transform="translate(32.553 202.692)">
            <ellipse id="freepik--path--inject-344" cx="112.488" cy="6.567" class="cls-7" rx="112.488" ry="6.567"/>
        </g>
        <g id="freepik--Knowledges--inject-344" transform="translate(105.432 .124)">
            <path id="Path_4318" d="M257.771 130.285c-2.408 2.738-5.581 4.5-8.4 6.718s-5.442 5.262-5.86 9.033c-.447 4.021 1.7 7.826 2.077 11.853.7 7.426-5.268 14.33-12.015 15.456s-13.611-2.611-18.159-8.175a20.549 20.549 0 0 1-4.763-10.385c-.783-6.66 2.715-13.216 2.164-19.905-.621-7.542-6.185-13.442-11.864-17.805s-12.038-8.175-15.815-14.539c-4.549-7.664-4.357-18.037-.528-26.154A35.886 35.886 0 0 1 203.3 59.041c7.8-3.284 16.3-4.061 24.64-3.771 5.1.2 10.257.818 14.992 2.9A21.415 21.415 0 0 1 254.122 69c2.57 5.981 1.833 12.764.331 19.337a11.452 11.452 0 0 0 1.485 8.76 44.092 44.092 0 0 1 4.85 9.724c2.669 7.811 2.257 17.459-3.017 23.464z" class="cls-9" transform="translate(-181.728 -55.214)"/>
            <g id="Group_13" opacity="0.7">
                <path id="Path_4319" d="M257.771 130.285c-2.408 2.738-5.581 4.5-8.4 6.718s-5.442 5.262-5.86 9.033c-.447 4.021 1.7 7.826 2.077 11.853.7 7.426-5.268 14.33-12.015 15.456s-13.611-2.611-18.159-8.175a20.549 20.549 0 0 1-4.763-10.385c-.783-6.66 2.715-13.216 2.164-19.905-.621-7.542-6.185-13.442-11.864-17.805s-12.038-8.175-15.815-14.539c-4.549-7.664-4.357-18.037-.528-26.154A35.886 35.886 0 0 1 203.3 59.041c7.8-3.284 16.3-4.061 24.64-3.771 5.1.2 10.257.818 14.992 2.9A21.415 21.415 0 0 1 254.122 69c2.57 5.981 1.833 12.764.331 19.337a11.452 11.452 0 0 0 1.485 8.76 44.092 44.092 0 0 1 4.85 9.724c2.669 7.811 2.257 17.459-3.017 23.464z" class="cls-11" transform="translate(-181.728 -55.214)"/>
            </g>
            <circle id="Ellipse_27" cx="15.757" cy="15.757" r="15.757" class="cls-9" transform="translate(2.432 13.243)"/>
            <g id="Group_14" class="cls-12" transform="translate(9.127 14.297)">
                <path id="Path_4320" d="M215.66 79.94l1.984 1.16V83s-1.508-.209-1.984-1.027c0 0 .406-.174-.754-.87s-.894-1.511.754-1.163z" class="cls-11" transform="translate(-204.486 -79.856)"/>
                <path id="Path_4321" d="M212.932 106l-1.16.58s-.342.661-.273.638-.255 1.369-.186 1.392-.661.615-.661.615l-.342.847v.98l1.648 2.239 1.207.685-1.05 5.755.435.157 5.477-4.015.366-.986 1.624-.638.864-2.257.986-1.16a4.816 4.816 0 0 0 0-1.12 3.421 3.421 0 0 0-.528.18l-.824-.615a10.924 10.924 0 0 0-1.828-.226c-.087.093-.36-1.062-.36-1.062l-1.6-.447-1.665-1.1-1.213.226z" class="cls-11" transform="translate(-202.855 -90.832)"/>
                <path id="Path_4322" d="M209.226 101.11h.888l1.253.661 2.321.58.11.186-2.321-.035.429-.273-.342-.215h-.94l.116-.116-.969-.493s-.609-.145-.627-.075l-.255.029z" class="cls-11" transform="translate(-202.259 -88.779)"/>
                <path id="Path_4323" d="M212.189 103.429l-.215-.209-.354.017.145.191z" class="cls-11" transform="translate(-203.405 -89.665)"/>
                <path id="Path_4324" d="M221.953 80h-.273l1.926 1.16.307.337 1.92 1.1.377.482.307 1.062 1.027.824-.482.342 1.1 1.369h.377l.139-.58-.824-1.711 1.16.638A13.245 13.245 0 0 0 221.953 80z" class="cls-11" transform="translate(-207.628 -79.917)"/>
                <path id="Path_4325" d="M235.047 90.4h-.3l-.493-.65-.528 1.439s.325 1.677.354 1.781-.151.342-.151.342l.151 1.851.377.65.29 1.572 1.294 1.781 1.044-1.5.168.365a14.631 14.631 0 0 0-2.21-7.635z" class="cls-11" transform="translate(-212.687 -84.01)"/>
                <path id="Path_4326" d="M222.492 82.59h-.342v.418l.342.209h.307V82.9z" class="cls-11" transform="translate(-207.826 -81.004)"/>
                <path id="Path_4327" d="M226.34 84.02l.511.551.139.458.516.5.2-.307.377.307v-.342l-.273-.412z" class="cls-11" transform="translate(-209.585 -81.604)"/>
                <path id="Path_4328" d="M210.618 85.926a27.9 27.9 0 0 0-3.29 1.439 1.874 1.874 0 0 0-.748 1.74l-1.445.818.342 1.572-.342.209-.545-1.3a13.252 13.252 0 0 0-2.721-.133c-.8.133-.98 1.74-.98 1.74l.482 1.3 1.1.07.133-.754 1.16.07-.754 1.439 1.369.2.139 1.015 1.369 1.044s.273.342 0 .476-6.782-3.765-7.4-4.723a7.7 7.7 0 0 1-.787-5.448c.5-1.5 1.433-2.9 1.74-3.8a.378.378 0 0 0 0-.075.54.54 0 0 0-.424-.644c-.238-.07-.685.2-.685.2h-.87l.905-.516.377-.4.244-.215.888-.377-.012-.336a4.966 4.966 0 0 1 1.677-.632l-.65.493h.685l.139.777h1.369s-.342-.093.482-.545a14.157 14.157 0 0 1 3.493-.673l-.824 1.16 1.781 1-.2.754-1.23-.342v-.412l-.76-.424-.064.8-.279.342-.342-.273-.98.957 1.74 1.653.273-2.152 2.471.545z" class="cls-11" transform="translate(-197.46 -79.879)"/>
            </g>
            <path id="Path_4329" d="M299.168 149.472a2.687 2.687 0 0 0-2.762-.307c-.824.528-1 1.8-1.009 2.86a3.231 3.231 0 0 0-4.247 1.41 4.369 4.369 0 0 0 .65 4.67 6.922 6.922 0 0 0 4.334 2.263 3.37 3.37 0 0 0 3.73-1.462c.656-.98 1.561-1.445 2.257-2.321 1.711-2.175-1.103-5.985-2.953-7.113z" class="cls-9" transform="translate(-227.499 -94.544)"/>
            <path id="Path_4330" d="M295.474 150.05a1.114 1.114 0 0 0 .29-.58c.551 1.085 1.247 2.071 1.886 3.11-.221-.221-2.333-2.373-2.176-2.53z" class="cls-9" transform="translate(-229.479 -94.786)"/>
            <path id="Path_4331" d="M296.809 148.254a7.408 7.408 0 0 1 .331-1.624 4 4 0 0 1 .911 1.514 2 2 0 0 1-.337 1.665c-.65.865-.928-1.166-.905-1.555z" class="cls-9" transform="translate(-230.042 -93.593)"/>
            <path id="Path_4332" d="M293.369 157.157a.476.476 0 1 0 .539.65.511.511 0 0 0-.482-.667z" class="cls-11" transform="translate(-228.441 -98.006)"/>
            <path id="Path_4333" d="M297.267 164.17a.372.372 0 0 0 .238-.041c.122-.081.087-.29-.029-.395a.934.934 0 0 0-.424-.157 3.069 3.069 0 0 1-2.193-1.862 4.416 4.416 0 0 0-.29-.708c-.3-.516-1.027-.58-1.16.064-.116.482.476 1.16.76 1.485a4.7 4.7 0 0 0 3.1 1.613z" class="cls-11" transform="translate(-228.609 -99.461)"/>
            <path id="Path_4334" d="M275.85 71.794A6.782 6.782 0 1 0 282.632 65a6.782 6.782 0 0 0-6.782 6.794zm5.651-5.018a.963.963 0 0 1-.69 0c.1.476-.36.893-.8 1.16-.58.313-1.207.441-1.329-.07-.075-.3.157-.737.737-1.16a1.41 1.41 0 0 1 1.125-.249c-.046-.284.209-.58.58-.731a.741.741 0 0 1 .94.278c.098.278-.146.632-.564.771zm3.3 2.321a.946.946 0 1 1 .061-.966.946.946 0 0 1-.062.969zm-3.173 7.745a.725.725 0 1 1 .725.725.725.725 0 0 1-.73-.726zm-.191-2.489a.83.83 0 0 1 .83-.83h.058a3.063 3.063 0 0 1 3.962-3.481 1.23 1.23 0 1 1 1.781 1.526 3.069 3.069 0 0 1-1.886 4.334.632.632 0 1 1-1.131.1 3.034 3.034 0 0 1-1.34-.458 3.075 3.075 0 0 1-.806-.685.812.812 0 0 1-.644.307.83.83 0 0 1-.83-.814zm-1.822-4.833a.621.621 0 0 1 .963-.58.946.946 0 1 1 .255.69.632.632 0 0 1-.545.447.621.621 0 0 1-.679-.558zm-.9 5.7a.47.47 0 1 1 .47.47.47.47 0 0 1-.475-.473zm-.917-5.3a.621.621 0 1 1 .673.58.632.632 0 0 1-.677-.586z" class="cls-9" transform="translate(-221.244 -59.322)"/>
            <path id="Path_4335" d="M275.85 71.794A6.782 6.782 0 1 0 282.632 65a6.782 6.782 0 0 0-6.782 6.794zm5.651-5.018a.963.963 0 0 1-.69 0c.1.476-.36.893-.8 1.16-.58.313-1.207.441-1.329-.07-.075-.3.157-.737.737-1.16a1.41 1.41 0 0 1 1.125-.249c-.046-.284.209-.58.58-.731a.741.741 0 0 1 .94.278c.098.278-.146.632-.564.771zm3.3 2.321a.946.946 0 1 1 .061-.966.946.946 0 0 1-.062.969zm-3.173 7.745a.725.725 0 1 1 .725.725.725.725 0 0 1-.73-.726zm-.191-2.489a.83.83 0 0 1 .83-.83h.058a3.063 3.063 0 0 1 3.962-3.481 1.23 1.23 0 1 1 1.781 1.526 3.069 3.069 0 0 1-1.886 4.334.632.632 0 1 1-1.131.1 3.034 3.034 0 0 1-1.34-.458 3.075 3.075 0 0 1-.806-.685.812.812 0 0 1-.644.307.83.83 0 0 1-.83-.814zm-1.822-4.833a.621.621 0 0 1 .963-.58.946.946 0 1 1 .255.69.632.632 0 0 1-.545.447.621.621 0 0 1-.679-.558zm-.9 5.7a.47.47 0 1 1 .47.47.47.47 0 0 1-.475-.473zm-.917-5.3a.621.621 0 1 1 .673.58.632.632 0 0 1-.677-.586z" class="cls-9" transform="translate(-221.244 -59.322)"/>
            <path id="Path_4336" d="M280.78 82.27a.47.47 0 1 0 .47-.47.47.47 0 0 0-.47.47z" class="cls-5" transform="translate(-223.313 -66.376)"/>
            <path id="Path_4337" d="M280.67 82.22a.54.54 0 1 1 .534.54.534.534 0 0 1-.534-.54z" class="cls-9" transform="translate(-223.267 -66.325)"/>
            <path id="Path_4338" d="M285.68 84.831a.795.795 0 1 1 .795.789.795.795 0 0 1-.795-.789z" class="cls-9" transform="translate(-225.371 -67.312)"/>
            <path id="Path_4339" d="M288.659 71.331a1.015 1.015 0 0 1-.447-.632 1.038 1.038 0 0 1 .128-.766 1.074 1.074 0 1 1 .859 1.526 1.056 1.056 0 0 1-.54-.128z" class="cls-9" transform="translate(-226.423 -61.191)"/>
            <path id="Path_4340" d="M282.452 72.143a.691.691 0 0 1-.244-.47.661.661 0 0 1 .162-.5.673.673 0 0 1 .464-.249.778.778 0 0 1 .348.064 1.014 1.014 0 1 1 1.091 1.16.992.992 0 0 1-.754-.244.685.685 0 0 1-.58.395h-.064a.69.69 0 0 1-.423-.156z" class="cls-9" transform="translate(-223.912 -61.47)"/>
            <path id="Path_4341" d="M279.089 72.949a.69.69 0 1 1 .743.627h-.058a.69.69 0 0 1-.685-.627zm.064 0z" class="cls-9" transform="translate(-222.603 -62.351)"/>
            <g id="Group_15" class="cls-13" transform="translate(57.454 11.403)">
                <path id="Path_4342" d="M281.043 78.385a.07.07 0 0 0 .041-.087 10.129 10.129 0 0 1-.084-3.353.058.058 0 0 0-.058-.075.064.064 0 0 0-.075.058 10.259 10.259 0 0 0 .087 3.417.064.064 0 0 0 .087.041z" class="cls-11" transform="translate(-280.758 -74.868)"/>
            </g>
            <path id="Path_4343" d="M279.082 80.692a.07.07 0 0 0 .052 0 .064.064 0 0 0 0-.093 3.151 3.151 0 0 1-1.085-1.648.07.07 0 1 0-.128.041 3.266 3.266 0 0 0 1.12 1.7.052.052 0 0 0 .041 0z" class="cls-14" transform="translate(-222.108 -65.151)"/>
            <path id="Path_4344" d="M284.234 83.419a.07.07 0 0 0 0-.139 3.655 3.655 0 0 1-.969-.162.07.07 0 1 0-.041.133 4.2 4.2 0 0 0 1 .168z" class="cls-14" transform="translate(-224.319 -66.927)"/>
            <path id="Path_4345" d="M280.692 84.955a.064.064 0 0 0 .064-.046l.232-.853a.066.066 0 1 0-.128-.035l-.232.847a.07.07 0 0 0 .046.087z" class="cls-14" transform="translate(-223.248 -67.286)"/>
            <path id="Path_4346" d="M278.175 83.368a2.535 2.535 0 0 0 1-.267.07.07 0 0 0-.058-.122 2.489 2.489 0 0 1-.951.255.07.07 0 0 0-.064.07.075.075 0 0 0 .073.064z" class="cls-14" transform="translate(-222.188 -66.87)"/>
            <path id="Path_4347" d="M282.649 79.459a.076.076 0 0 0 .064-.035c.267-.58 1.259-2.535 1.265-2.553a.07.07 0 0 0-.029-.093.075.075 0 0 0-.093 0s-1 1.978-1.271 2.559a.064.064 0 0 0 .035.087z" class="cls-14" transform="translate(-224.069 -64.261)"/>
            <path id="Path_4348" d="M283.808 85.552a.064.064 0 0 0 .058-.035.07.07 0 0 0 0-.093 4.165 4.165 0 0 1-1.485-1.5.07.07 0 0 0-.093 0 .076.076 0 0 0 0 .093 4.282 4.282 0 0 0 1.532 1.555z" class="cls-14" transform="translate(-223.94 -67.261)"/>
            <path id="Path_4349" d="M280.872 68.611a.464.464 0 0 1-.273-.342c-.087-.36.209-.824.766-1.207a1.613 1.613 0 0 1 1.1-.284.87.87 0 0 1 .65-.7 1.079 1.079 0 0 1 .632 0 .58.58 0 0 1 .395.348c.11.325-.174.719-.632.87a1.056 1.056 0 0 1-.627 0c0 .58-.632.969-.847 1.091a2.135 2.135 0 0 1-.893.278.58.58 0 0 1-.271-.054zm-.203-.36z" class="cls-9" transform="translate(-223.231 -59.754)"/>
            <path id="Path_4350" d="M288.9 79.282a.667.667 0 0 1 0-.151 3.069 3.069 0 0 1-1.294-.458 3 3 0 0 1-.725-.644.9.9 0 1 1-.69-1.52 3.449 3.449 0 0 1-.035-.487 3.121 3.121 0 0 1 4.061-2.994 1.3 1.3 0 1 1 1.886 1.63 3.139 3.139 0 0 1-1.874 4.351.736.736 0 0 1 .052.273.7.7 0 1 1-1.387 0z" class="cls-9" transform="translate(-225.224 -62.372)"/>
            <g id="Group_16" class="cls-13" transform="translate(60.106 9.892)">
                <path id="Path_4351" d="M288.9 79.282a.667.667 0 0 1 0-.151 3.069 3.069 0 0 1-1.294-.458 3 3 0 0 1-.725-.644.9.9 0 1 1-.69-1.52 3.449 3.449 0 0 1-.035-.487 3.121 3.121 0 0 1 4.061-2.994 1.3 1.3 0 1 1 1.886 1.63 3.139 3.139 0 0 1-1.874 4.351.736.736 0 0 1 .052.273.7.7 0 1 1-1.387 0z" transform="translate(-285.33 -72.265)"/>
            </g>
            <path id="Path_4352" d="M291.632 78.473a.377.377 0 0 1-.168-.249.394.394 0 0 1 .308-.47.4.4 0 0 1 .47.307.429.429 0 0 1-.058.3.412.412 0 0 1-.249.168h-.087a.36.36 0 0 1-.216-.056z" class="cls-14" transform="translate(-227.795 -64.673)"/>
            <g id="Group_17" class="cls-13" transform="translate(56.484 6.226)">
                <path id="Path_4353" d="M280.78 82.2a.47.47 0 1 0 .47-.47.47.47 0 0 0-.47.47z" transform="translate(-279.797 -72.573)"/>
                <path id="Path_4354" d="M280.67 82.15a.54.54 0 1 1 .534.54.534.534 0 0 1-.534-.54z" transform="translate(-279.751 -72.522)"/>
                <path id="Path_4355" d="M285.68 84.771a.795.795 0 1 1 .795.789.795.795 0 0 1-.795-.789z" transform="translate(-281.854 -73.513)"/>
                <path id="Path_4356" d="M288.659 71.262a.992.992 0 0 1-.447-.627 1.038 1.038 0 0 1 .128-.766 1.024 1.024 0 0 1 1.74 1.079 1.011 1.011 0 0 1-1.4.313z" transform="translate(-282.907 -67.39)"/>
                <path id="Path_4357" d="M282.451 72.1a.708.708 0 0 1-.244-.47.667.667 0 0 1 .162-.5.69.69 0 0 1 .464-.244.7.7 0 0 1 .348.064 1.009 1.009 0 1 1 .336.917.7.7 0 0 1-.58.395h-.064a.685.685 0 0 1-.422-.162z" transform="translate(-280.395 -67.684)"/>
                <path id="Path_4358" d="M279.088 72.871a.687.687 0 1 1 .743.627h-.058a.69.69 0 0 1-.685-.627zm.064 0z" transform="translate(-279.085 -68.54)"/>
                <path id="Path_4359" d="M280.872 68.542a.487.487 0 0 1-.273-.342c-.087-.366.209-.824.766-1.207a1.619 1.619 0 0 1 1.1-.29.864.864 0 0 1 .65-.7 1.079 1.079 0 0 1 .615-.029.545.545 0 0 1 .395.342c.11.331-.174.719-.632.876a1.108 1.108 0 0 1-.627 0c0 .58-.632.969-.847 1.085a2.053 2.053 0 0 1-.893.284.685.685 0 0 1-.249-.023zm-.203-.36z" transform="translate(-279.715 -65.946)"/>
            </g>
            <path id="Path_4360" d="M261.421 143.559l-1.2-5.123.679-.162.743 3.168 3.057-6.562 11.888 1.665-.1.69-11.377-1.6z" class="cls-9" transform="translate(-214.682 -88.66)"/>
            <path id="Path_4361" d="M224.809 142.32l-.928.719 1.851 1.624-.772.58-1.857-1.63-.992.766 2.176 1.909-.8.58-3.087-2.708 4.293-3.29 3.011 2.646-.8.58z" class="cls-11" transform="translate(-197.964 -91.175)"/>
            <path id="Path_4362" d="M232.088 151.48l2.709 2.379-.743.58-2.715-2.379zm1.52-1.16l2.709 2.379-.748.58-2.709-2.379z" class="cls-11" transform="translate(-202.557 -95.143)"/>
            <path id="Path_4363" d="M245.713 163.3a2.131 2.131 0 0 1-.371.342l-1.828 1.4-.888-.777 1.74-1.352a1.668 1.668 0 0 0 .232-.215.58.58 0 0 0-.07-.9 1.073 1.073 0 0 0-1.479.07l-1.694 1.294-.888-.777 1.741-1.352a1.609 1.609 0 0 0 .226-.209.58.58 0 0 0-.064-.9 1.079 1.079 0 0 0-1.5.07l-1.677 1.288-.888-.777 3.3-2.53.841.737-.348.261a1.839 1.839 0 0 1 1.282.482 1.334 1.334 0 0 1 .5 1.323 2.048 2.048 0 0 1 1.607.522 1.305 1.305 0 0 1 .22 2z" class="cls-11" transform="translate(-205.483 -98.359)"/>
            <path id="Path_4364" d="M250.5 168.628a2.321 2.321 0 0 1 3.429-.145 1.885 1.885 0 0 1 .725 1.984l-1.085-.284a.928.928 0 0 0-.319-1.015 1.224 1.224 0 0 0-1.787.2.859.859 0 0 0 .11 1.311 1.16 1.16 0 0 0 1.114.249l.3.98a2.245 2.245 0 0 1-2.106-.545 1.825 1.825 0 0 1-.381-2.735z" class="cls-11" transform="translate(-210.408 -102.479)"/>
            <path id="Path_4365" d="M259.13 172.761l1.044.922-.511.395-1.984-1.74.406-.319 1.885.2c.453.041.638 0 .76-.145s.093-.36-.162-.58a1.009 1.009 0 0 0-.772-.255l-.134-.627a1.741 1.741 0 0 1 1.456.487c.58.493.673 1.073.319 1.474-.226.261-.476.377-1.329.3z" class="cls-11" transform="translate(-213.615 -103.654)"/>
            <path id="Path_4366" d="M268.889 188.389l-7.449-4.728 15.664-8.18zm-6.289-4.682l6.127 3.881L275.451 177z" class="cls-9" transform="translate(-215.194 -105.706)"/>
            <path id="Path_4367" d="M271.891 194.789l-3.3-2.094.145-.244a3.533 3.533 0 0 1 3.968-1.6 3.586 3.586 0 0 1 1.05.482l.232.162zm-2.483-2.274l2.321 1.474 1.479-2.321a3.21 3.21 0 0 0-.638-.261 2.959 2.959 0 0 0-3.162 1.107z" class="cls-9" transform="translate(-218.195 -112.106)"/>
            <path id="Path_4368" d="M253.054 224.953a3.481 3.481 0 0 1-2.576-.748 6.753 6.753 0 0 1-1.741-2.129 6.346 6.346 0 0 1-.859-2.6 3.226 3.226 0 0 1 .87-2.53 3.353 3.353 0 0 1 2.471-.824 4.676 4.676 0 0 1 4.177 6.289c-.404 1.178-.973 2.339-2.342 2.542z" class="cls-9" transform="translate(-209.494 -122.765)"/>
            <path id="Path_4369" d="M255.135 207.57a7.246 7.246 0 0 1 6.684 7.107c0 1.236-.371 2.506 0 3.684.244.754.772 1.456.685 2.239-.116 1.033-1.213 1.613-2.17 2.019a7.959 7.959 0 0 1-2.814.795 2.686 2.686 0 0 1-2.477-1.265c-.22-.435-1.027-2.274-1.514-2.263s-2.065 1.073-2.646.174c-.354-.551-.69-.482-.139-.835-.835.075.087 1.862-.708 1.392-2.234-1.317-3.046-4.641-3.191-5.761a5.809 5.809 0 0 1 2.384-5.117 10.106 10.106 0 0 1 5.906-2.169z" class="cls-9" transform="translate(-209.051 -119.178)"/>
            <g id="Group_18" class="cls-12" transform="translate(37.757 88.392)">
                <path id="Path_4370" d="M255.135 207.57a7.246 7.246 0 0 1 6.684 7.107c0 1.236-.371 2.506 0 3.684.244.754.772 1.456.685 2.239-.116 1.033-1.213 1.613-2.17 2.019a7.959 7.959 0 0 1-2.814.795 2.686 2.686 0 0 1-2.477-1.265c-.22-.435-1.027-2.274-1.514-2.263s-2.065 1.073-2.646.174c-.354-.551-.69-.482-.139-.835-.835.075.087 1.862-.708 1.392-2.234-1.317-3.046-4.641-3.191-5.761a5.809 5.809 0 0 1 2.384-5.117 10.106 10.106 0 0 1 5.906-2.169z" class="cls-11" transform="translate(-246.808 -207.57)"/>
            </g>
            <path id="Path_4371" d="M258.87 216.572a2.837 2.837 0 0 1-.307 2.286 2.379 2.379 0 0 1-1.862 1.3 1.973 1.973 0 0 1-1.81-1.218 2.558 2.558 0 0 1 .2-2.228 3.231 3.231 0 0 1 1.909-1.526 2.1 2.1 0 0 1 1.87 1.386z" class="cls-9" transform="translate(-212.374 -122.373)"/>
            <path id="Path_4372" d="M264.082 215.075a2.564 2.564 0 0 0 1.091 1.74 2.141 2.141 0 0 0 2 .366 1.741 1.741 0 0 0 1.021-1.653 2.269 2.269 0 0 0-.981-1.74 2.808 2.808 0 0 0-2.118-.54 1.8 1.8 0 0 0-1.01 1.827z" class="cls-9" transform="translate(-216.298 -121.548)"/>
            <path id="Path_4373" d="M265.286 221.056a1.091 1.091 0 0 1 .528.464.65.65 0 0 1-.493.83.969.969 0 0 1-.946-.429.94.94 0 0 1-.267.656.522.522 0 0 1-.661.07.58.58 0 0 1-.174-.534 1.74 1.74 0 0 1 .232-.54c.133-.238.429-1.033.7-1.085s.866.452 1.081.568z" class="cls-9" transform="translate(-215.959 -124.6)"/>
            <path id="Path_4374" d="M266.964 225.5c0 .191.191.464.162.656a3.919 3.919 0 0 1-.737.5 22.324 22.324 0 0 1-4.607 1.566 2.124 2.124 0 0 0-1.033-1.114 1.16 1.16 0 0 1 1.16.824 16.9 16.9 0 0 0 4.978-1.857c-.064-.348-.238-.975.331-1.068-.018-.007-.162-.007-.254.493z" class="cls-9" transform="translate(-214.904 -126.499)"/>
            <path id="Path_4375" d="M261.6 122.413l-2.373-.731-.389-1.062 3.684 1.137z" class="cls-7" transform="translate(-214.102 -82.673)"/>
            <path id="Path_4376" d="M268.044 103.657a5.071 5.071 0 0 1-2.727 3.1 3.3 3.3 0 0 0-1.828 2.019l-.116.366-4.212-1.294.116-.371a3.324 3.324 0 0 0-.371-2.7 5.05 5.05 0 1 1 9.138-1.12z" class="cls-9" transform="translate(-213.82 -72.8)"/>
            <path id="Path_4377" d="M268.044 103.657a5.071 5.071 0 0 1-2.727 3.1 3.3 3.3 0 0 0-1.828 2.019l-.116.366-4.212-1.294.116-.371a3.324 3.324 0 0 0-.371-2.7 5.05 5.05 0 1 1 9.138-1.12z" class="cls-15" transform="translate(-213.82 -72.8)"/>
            <path id="Rectangle_574" d="M0 0H5.303V0.302H0z" class="cls-9" transform="rotate(-84.4 42.715 -7.997)"/>
            <path id="Rectangle_575" d="M0 0H5.303V0.302H0z" class="cls-9" transform="rotate(-61.37 54.223 -22.728)"/>
            <path id="Path_4378" d="M264.72 110.483l-.261-1.236-.911.876-.708-1.6.278-.122.534 1.2.992-.957.284 1.352 1.114-.7.162.261z" class="cls-9" transform="translate(-215.782 -77.543)"/>
            <path id="Path_4379" d="M263.578 116.7l-.8 2.6-4.218-1.282.8-2.6z" class="cls-9" transform="translate(-213.985 -80.49)"/>
            <path id="Rectangle_576" d="M0 0H0.302V4.409H0z" class="cls-9" transform="rotate(-73.2 47.726 -11.024)"/>
            <path id="Rectangle_577" d="M0 0H0.303V4.422H0z" class="cls-9" transform="rotate(-73.191 46.23 -13.377)"/>
            <g id="Group_19" class="cls-16" transform="translate(45.666 34.457)">
                <path id="Rectangle_578" d="M0 0H0.303V4.422H0z" transform="rotate(-73.191 .195 .145)"/>
            </g>
            <g id="Group_20" class="cls-16" transform="translate(44.485 37.563)">
                <path id="Rectangle_579" d="M0 0H0.302V4.409H0z" transform="rotate(-73.2 .195 .144)"/>
            </g>
        </g>
        <g id="freepik--Character--inject-344" transform="translate(97.085 106.411)">
            <g id="freepik--group--inject-344" transform="translate(14.722)">
                <path id="Path_4410" d="M233.992 305.5c.052 1.932 0 3.736-.093 5.6s-.22 3.7-.4 5.558a64.464 64.464 0 0 1-2.042 11.209l-.464 1.427-.116.354-.029.093-.046.133-.145.383a6.017 6.017 0 0 1-.708 1.247 6.962 6.962 0 0 1-1.636 1.619 10.331 10.331 0 0 1-1.613.969 21.981 21.981 0 0 1-5.929 1.81 50.937 50.937 0 0 1-11.273.58l-.2-3.7 2.57-.528c.864-.174 1.741-.389 2.564-.58 1.7-.406 3.377-.841 4.966-1.363a19.245 19.245 0 0 0 4.212-1.828 2.406 2.406 0 0 0 .882-.806c0-.093-.145.3 0-.313l.284-1.16a74.3 74.3 0 0 0 1.288-10.124c.128-1.74.209-3.481.29-5.221s.1-3.533.128-5.221z" class="cls-17" transform="translate(-199.678 -266.58)"/>
                <path id="Path_4411" d="M208.175 350.76l-4.061-2.93-1.224 6.179s4 1.741 5.152-.29z" class="cls-17" transform="translate(-196.987 -284.352)"/>
                <path id="Path_4412" d="M197.342 347.963l-.772 5.158 3.667.888 1.218-6.179z" class="cls-17" transform="translate(-194.334 -284.352)"/>
                <path id="Path_4413" d="M246.464 294.3c.888 4.641-2.721 15.543-2.721 15.543L232 308.361c1.8-4.131 2.448-10.095 4.723-13.994 2.106-3.499 8.772-5.106 9.741-.067z" class="cls-9" transform="translate(-209.209 -260.535)"/>
                <path id="Path_4414" d="M246.464 294.3c.888 4.641-2.721 15.543-2.721 15.543L232 308.361c1.8-4.131 2.448-10.095 4.723-13.994 2.106-3.499 8.772-5.106 9.741-.067z" class="cls-18" transform="translate(-209.209 -260.535)"/>
                <path id="Path_4415" d="M266.48 290.45a2.814 2.814 0 0 1 2.425 3.156v.075a116.756 116.756 0 0 0-1.213 13.669c-.122 3.846-.075 7.5.052 10.808.278 7.751.975 13.616.928 15.635l-25.893 2.164c-4.531-20.607-3.052-35.854-1.781-41.412a4.7 4.7 0 0 1 3.546-3.545c.992-.22 2.181-.458 3.446-.644.441-.041.893-.122 1.346-.174a97.733 97.733 0 0 1 11.215-.255c.708 0 1.421.064 2.123.11 1.363.117 2.698.263 3.806.413z" class="cls-9" transform="translate(-212.447 -260.017)"/>
                <path id="Path_4416" d="M266.48 290.45a2.814 2.814 0 0 1 2.425 3.156v.075a116.756 116.756 0 0 0-1.213 13.669c-.122 3.846-.075 7.5.052 10.808.278 7.751.975 13.616.928 15.635l-25.893 2.164c-4.531-20.607-3.052-35.854-1.781-41.412a4.7 4.7 0 0 1 3.546-3.545c.992-.22 2.181-.458 3.446-.644.441-.041.893-.122 1.346-.174a97.733 97.733 0 0 1 11.215-.255c.708 0 1.421.064 2.123.11 1.363.117 2.698.263 3.806.413z" class="cls-18" transform="translate(-212.447 -260.017)"/>
                <path id="Path_4417" d="M265.954 268.3c-.638 3.614-1.218 10.234 1.352 12.59-5.7 4.641-9.062 10.727-10.292 9.579-.65-.58-1.578-8.169-.911-9.358 4-1.038 3.841-4.015 3.086-6.805z" class="cls-17" transform="translate(-219.231 -250.962)"/>
                <path id="Path_4418" d="M265.613 272.52l-4 3.551a11.024 11.024 0 0 1 .383 1.984c1.537-.249 3.614-1.978 3.742-3.6a5.454 5.454 0 0 0-.125-1.935z" class="cls-19" transform="translate(-221.64 -252.734)"/>
                <path id="Path_4419" d="M248.365 252.592c-2.384.313-3.336 4.56-.58 7.768s3.782-8.192.58-7.768z" class="cls-20" transform="translate(-215.13 -244.362)"/>
                <path id="Path_4420" d="M261.155 252.827c.714 4.839 1.381 7.635-.5 10.594-2.849 4.456-9.213 3.527-11.371-1-1.932-4.061-2.791-11.3 1.491-14.191a6.678 6.678 0 0 1 10.385 4.6z" class="cls-17" transform="translate(-215.795 -242.045)"/>
                <path id="Path_4421" d="M262.874 254.3a2.651 2.651 0 0 0 2.222 1.816 4.508 4.508 0 0 1 .354 3.359l1.787.232a2.82 2.82 0 0 1 2.6-2.86q-.731 2.9-1.74 5.749a14.806 14.806 0 0 0 4.322-6.063 8.54 8.54 0 0 0 .644-3.556 4.641 4.641 0 0 0-1.508-3.214 5.018 5.018 0 0 0-4.508-.737c-2.694.743-5.386 2.141-4.173 5.274z" class="cls-20" transform="translate(-222.045 -242.77)"/>
                <path id="Path_4422" d="M273.4 261.8a4.641 4.641 0 0 1-1.619 3.156c-1.247 1.05-2.541.1-2.756-1.433-.2-1.375.22-3.58 1.741-4.061a2.1 2.1 0 0 1 2.634 2.338z" class="cls-17" transform="translate(-224.735 -247.208)"/>
                <path id="Path_4423" d="M258.21 261.559c.081.389-.058.754-.313.806s-.528-.22-.615-.609.058-.748.313-.8.534.208.615.603z" class="cls-20" transform="translate(-219.812 -247.876)"/>
                <path id="Path_4424" d="M250.656 263.149c.081.389-.058.748-.313.806s-.528-.22-.609-.609.058-.748.307-.8.522.214.615.603z" class="cls-20" transform="translate(-216.644 -248.543)"/>
                <path id="Path_4425" fill="#ed847e" d="M252.96 263.42a14.412 14.412 0 0 1-1.16 3.719 2.321 2.321 0 0 0 1.932-.046z" transform="translate(-217.521 -248.913)"/>
                <path id="Path_4426" d="M259.157 258.3a.221.221 0 0 1-.238-.035 1.856 1.856 0 0 0-1.63-.447.238.238 0 0 1-.3-.1v-.046a.226.226 0 0 1 .151-.284 2.321 2.321 0 0 1 2.054.545.232.232 0 0 1 .035.325.284.284 0 0 1-.072.042z" class="cls-20" transform="translate(-219.697 -246.36)"/>
                <path id="Path_4427" d="M258.833 270.349a3.591 3.591 0 0 0 2.355-2.321.122.122 0 0 0-.087-.151.133.133 0 0 0-.157.087 3.382 3.382 0 0 1-2.181 2.141.128.128 0 0 0 .07.244z" class="cls-20" transform="translate(-220.412 -250.783)"/>
                <path id="Path_4428" d="M247.279 260.275a.168.168 0 0 1-.139 0 .232.232 0 0 1-.174-.278 2.321 2.321 0 0 1 1.369-1.636.232.232 0 0 1 .3.139.232.232 0 0 1-.133.29 1.856 1.856 0 0 0-1.073 1.282.209.209 0 0 1-.145.2z" class="cls-20" transform="translate(-215.489 -246.783)"/>
                <path id="Path_4429" d="M194.72 322.157l6.034 19.441s5.964-1.88 8.575-.249a27.682 27.682 0 0 1 4.49 3.556l-4.166-21.159s-5.54-6.514-14.933-1.589z" class="cls-9" transform="translate(-193.557 -272.8)"/>
                <path id="Path_4430" d="M220.46 323.247l4.166 21.159s6.475-7 12.41-4.061l2.013 1.039-2.437-21.176s-7.712-3.908-16.152 3.039z" class="cls-9" transform="translate(-204.364 -272.294)"/>
                <path id="Path_4431" d="M220.46 323.247l4.166 21.159s6.475-7 12.41-4.061l2.013 1.039-2.437-21.176s-7.712-3.908-16.152 3.039z" class="cls-22" transform="translate(-204.364 -272.294)"/>
                <path id="Path_4432" d="M194.72 322.157l6.034 19.441s5.964-1.88 8.575-.249a27.682 27.682 0 0 1 4.49 3.556l-4.166-21.159s-5.54-6.514-14.933-1.589z" class="cls-22" transform="translate(-193.557 -272.8)"/>
                <path id="Path_4433" d="M212.966 345.91c-5.036-1.63-9.938-3.342-13.959.232-1.491-5.749-3.707-11.232-5.384-16.923-1.346-4.566-1.352-3.765 1.056-5.094 2.083-1.16 11.812-2.193 13.872 3.145.749 1.949 4.055 18.188 4.415 18.64z" class="cls-20" transform="translate(-192.716 -274.008)"/>
                <path id="Path_4434" d="M241.805 344.518a8.548 8.548 0 0 0-10.75 0 8.594 8.594 0 0 1-3.162 1.642l-4.3-19.772-.174.128c.882-2.982 5.454-4.432 8.349-4.525a13.2 13.2 0 0 1 7.194 2.321s2.199 14.474 2.843 20.206z" class="cls-20" transform="translate(-205.606 -273.503)"/>
                <path id="Path_4435" d="M226.31 349.25s-1.741.54-2.419-.882l-4.241-19.018s.714 1.247 2.181.226l.174-.128 4.3 19.772a.1.1 0 0 1 .005.03z" class="cls-20" transform="translate(-204.024 -276.593)"/>
                <path id="Path_4436" d="M226.31 349.25s-1.741.54-2.419-.882l-4.241-19.018s.714 1.247 2.181.226l.174-.128 4.3 19.772a.1.1 0 0 1 .005.03z" class="cls-14" transform="translate(-204.024 -276.593)"/>
                <path id="Path_4437" d="M278.618 295.322c-2.176-.319-3.075.458-4.583 3.429-1.392 2.744-2.158 10.652-2.158 10.652-.267 4.328-.818 3.841 3.278 4.154 2.622.2 5.941.754 5.941.754s4.026-18.044-2.478-18.989z" class="cls-23" transform="translate(-225.873 -262.279)"/>
                <path id="Path_4438" d="M276.219 302.43c.046 1.932 0 3.736-.093 5.6s-.22 3.7-.406 5.552a65.067 65.067 0 0 1-2.036 11.22l-.47 1.421-.116.36v.087l-.052.139-.139.377a6.055 6.055 0 0 1-.708 1.253 7.34 7.34 0 0 1-1.636 1.619 10.4 10.4 0 0 1-1.619.969 22.274 22.274 0 0 1-5.929 1.81 50.916 50.916 0 0 1-11.273.58l-.191-3.7 2.57-.528c.859-.18 1.74-.394 2.564-.58 1.694-.406 3.371-.841 4.966-1.369a19.35 19.35 0 0 0 4.212-1.822 2.419 2.419 0 0 0 .882-.812c0-.087-.145.3 0-.307l.29-1.16a75.236 75.236 0 0 0 1.288-10.124c.128-1.74.209-3.481.29-5.221s.1-3.527.128-5.222z" class="cls-17" transform="translate(-217.416 -265.291)"/>
                <path id="Path_4439" d="M250.361 347.7l-4.061-2.93-1.23 6.173s4.009 1.74 5.158-.29z" class="cls-17" transform="translate(-214.696 -283.067)"/>
                <path id="Path_4440" d="M239.552 344.9l-.772 5.158 3.661.888 1.224-6.173z" class="cls-17" transform="translate(-212.055 -283.067)"/>
                <path id="Path_4441" d="M286.009 294.1c2.762 3.812 1.851 16.668 1.851 16.668l-12.816-1.23s-1.329-7.194.58-12.978c2.06-6.274 7.038-7.086 10.385-2.46z" class="cls-9" transform="translate(-227.091 -260.556)"/>
                <path id="Path_4442" d="M286.009 294.1c2.762 3.812 1.851 16.668 1.851 16.668l-12.816-1.23s-1.329-7.194.58-12.978c2.06-6.274 7.038-7.086 10.385-2.46z" class="cls-18" transform="translate(-227.091 -260.556)"/>
                <path id="Path_4443" d="M245.488 248.345a16.342 16.342 0 0 1-1.358-2.065c1.688.336 1.862-.534 2.553-2.9.789-2.675 3.818-4.392 5.425-4.641 11.151-1.8 11.783 4.525 11.893 5.558a1.92 1.92 0 0 1-1.16 1.8 5.668 5.668 0 0 1-2.228.406c-1.619.07-4.026.638-5.587.232-6.326-1.662-8.767 1.697-9.538 1.61z" class="cls-20" transform="translate(-214.301 -238.416)"/>
            </g>
            <path id="Path_4444" d="M229.993 398.66l7.56 3.945 3.632 1.9-1.566 4.044-3.591-1.305-8.766-3.191z" class="cls-17" transform="translate(-192.496 -305.692)"/>
            <path id="Path_4445" d="M229.993 398.66l7.56 3.945-1.526 4.636-8.766-3.191z" class="cls-19" transform="translate(-192.496 -305.692)"/>
            <path id="Path_4446" d="M200.006 413.016l-8.106 2.634-3.9 1.271-1.793-3.951 3.446-1.648 8.412-4.032z" class="cls-17" transform="translate(-175.262 -309.315)"/>
            <path id="Path_4447" d="M202.5 413.016l-8.111 2.634-2.239-4.328 8.412-4.032z" class="cls-19" transform="translate(-177.756 -309.315)"/>
            <path id="Path_4448" d="M258.974 373.107a3.737 3.737 0 0 0-.621-1.085c-2.64-3.145-12.328-3.081-18.217-2.46-2.68.279-6.173 1.63-9.956 3.545a6.962 6.962 0 0 0-2.135-2.107c-4.9-2.86-11.6-3.9-18.165-3.806 9.555-.307 20.346.58 20.346.58l25.765-2.135a20.491 20.491 0 0 1 2.983 7.468z" class="cls-9" transform="translate(-185.2 -291.829)"/>
            <path id="Path_4449" d="M258.974 373.107a3.737 3.737 0 0 0-.621-1.085c-2.64-3.145-12.328-3.081-18.217-2.46-2.68.279-6.173 1.63-9.956 3.545a6.962 6.962 0 0 0-2.135-2.107c-4.9-2.86-11.6-3.9-18.165-3.806 9.555-.307 20.346.58 20.346.58l25.765-2.135a20.491 20.491 0 0 1 2.983 7.468z" class="cls-23" transform="translate(-185.2 -291.829)"/>
            <path id="Path_4450" d="M215.04 384.93a9.177 9.177 0 0 1-6.742 3.8 27.028 27.028 0 0 1-7.948-.615l-6.852-1.207-11.168-1.978a19.52 19.52 0 0 1-6.121-1.8c-6.016-3.342-7.235-7.107-4.113-9.863a11.1 11.1 0 0 1 3.527-1.99l.151-.064a50.915 50.915 0 0 1 11.07-2.524h.133a59.66 59.66 0 0 1 6.341-.429c6.579-.093 13.263.946 18.165 3.806a6.962 6.962 0 0 1 2.135 2.106c2.119 3.123 3.076 8.17 1.422 10.758z" class="cls-9" transform="translate(-168.639 -292.925)"/>
            <path id="Path_4451" d="M215.04 384.93a9.177 9.177 0 0 1-6.742 3.8 27.028 27.028 0 0 1-7.948-.615l-6.852-1.207-11.168-1.978a19.52 19.52 0 0 1-6.121-1.8c-6.016-3.342-7.235-7.107-4.113-9.863a11.1 11.1 0 0 1 3.527-1.99l.151-.064a50.915 50.915 0 0 1 11.07-2.524h.133a59.66 59.66 0 0 1 6.341-.429c6.579-.093 13.263.946 18.165 3.806a6.962 6.962 0 0 1 2.135 2.106c2.119 3.123 3.076 8.17 1.422 10.758z" class="cls-23" transform="translate(-168.639 -292.925)"/>
            <path id="Path_4452" d="M172.573 374.354s-6.463 3.249-5.024 9.671c0 0 1.044 4.1 13.245 6.527s27.674 5.221 27.674 5.221l1.561-4.989s-16.047-13.86-28.19-16.825a16.129 16.129 0 0 0-9.266.395z" class="cls-9" transform="translate(-167.34 -295.113)"/>
            <path id="Path_4453" d="M236.554 408.233l-3.934-.075 3.44-9.677 3.11 1.822z" class="cls-9" transform="translate(-194.747 -305.616)"/>
            <g id="Group_21" class="cls-24" transform="translate(37.873 92.864)">
                <path id="Path_4454" d="M236.554 408.233l-3.934-.075 3.44-9.677 3.11 1.822z" class="cls-11" transform="translate(-232.62 -398.48)"/>
            </g>
            <path id="Path_4455" d="M247.332 400.1c.075.331 11.754 3.481 16.105 1.932 13.617-4.832-19.29-15.824-16.105-1.932z" class="cls-9" transform="translate(-200.832 -303.45)"/>
            <path id="Path_4456" d="M247.332 400.1c.075.331 11.754 3.481 16.105 1.932 13.617-4.832-19.29-15.824-16.105-1.932z" class="cls-23" transform="translate(-200.832 -303.45)"/>
            <path id="Path_4457" d="M252.181 383.549a17.545 17.545 0 0 1-1.16 2.8c-.087.151-.162.307-.249.452a12.384 12.384 0 0 1-.7 1.108l-.046.075c-.116.162-.226.313-.348.47-3.481 4.485-12.59 6.248-14.748 3.348a15.665 15.665 0 0 1-2.025-4.421 159 159 0 0 1-22.829 9.637c-4.061 1.346-8.349 2.622-12.7 3.667l-2.628-5.517 1.039-.812c1.45-1.16 4.328-3.353 7.937-5.952a164.54 164.54 0 0 1 20.12-12.729c3.783-1.915 7.275-3.266 9.956-3.545 5.889-.621 15.577-.685 18.217 2.46a3.736 3.736 0 0 1 .621 1.085c.749 1.968.488 5.008-.457 7.874z" class="cls-9" transform="translate(-178.848 -294.41)"/>
            <path id="Path_4458" d="M193.89 408.408l2.93-2.628 4.08 9.42-3.522.789z" class="cls-9" transform="translate(-178.487 -308.681)"/>
            <g id="Group_22" class="cls-24" transform="translate(15.403 97.099)">
                <path id="Path_4459" d="M193.89 408.408l2.93-2.628 4.08 9.42-3.522.789z" class="cls-11" transform="translate(-193.89 -405.78)"/>
            </g>
            <path id="Path_4460" d="M239.391 419.617a.934.934 0 0 0 .737.162 2.6 2.6 0 0 0 .371-.145 2.112 2.112 0 0 0 .824-.65l.2-.244a8.654 8.654 0 0 0 .766-1.16.1.1 0 0 0-.041-.128.151.151 0 0 0-.162 0 2.335 2.335 0 0 0-.389.162l-.087.035-.58.255c-.795.389-1.741.934-1.828 1.358a.371.371 0 0 0 .189.355zm.116-.313a.4.4 0 0 1 .116-.2 7.932 7.932 0 0 1 1.839-1.114l.157-.07.22-.087c-.093.151-.186.29-.278.424a5.066 5.066 0 0 1-.685.812 1.677 1.677 0 0 1-.795.487.58.58 0 0 1-.5-.11.139.139 0 0 1-.074-.146z" class="cls-9" transform="translate(-197.508 -313.572)"/>
            <path id="Path_4461" d="M237.842 416.707c.267.424 1.677.621 2.6.58a3.654 3.654 0 0 0 .476-.035.122.122 0 0 0 .058 0 .177.177 0 0 0 .046-.058.1.1 0 0 0 0-.116 4.182 4.182 0 0 0-2.158-1.091 1.224 1.224 0 0 0-.8.22c-.332.193-.303.366-.222.5zm.261-.1s-.07-.1.133-.249l.07-.046a.905.905 0 0 1 .528-.11 3.7 3.7 0 0 1 1.781.864 4.179 4.179 0 0 1-2.512-.458z" class="cls-9" transform="translate(-196.917 -312.965)"/>
            <path id="Path_4462" d="M242.391 411.52l3.876-4.032a.58.58 0 0 1 .638-.122l4.926 2.123a.725.725 0 0 1 .36 1.1l-.058.07c-5.169 7.136-8.122 9.114-8.836 9.828-2.089 2.042-3.812.453-3.359-.36 2.042-3.643 2.048-4.966 1.9-6.7a3.481 3.481 0 0 1 .551-1.9z" class="cls-20" transform="translate(-197.788 -309.327)"/>
            <path id="Path_4463" d="M180.8 409.068a.975.975 0 0 0-.377.661 2.217 2.217 0 0 0 .029.395 2.094 2.094 0 0 0 .371.986c.052.087.11.168.174.255a7.913 7.913 0 0 0 .864 1.079.093.093 0 0 0 .133 0 .163.163 0 0 0 .058-.157 2.107 2.107 0 0 0-.041-.418v-.1a3.623 3.623 0 0 0-.075-.58c-.128-.876-.354-1.961-.737-2.152a.383.383 0 0 0-.4.029zm.267.209a.383.383 0 0 1 .157.174 7.741 7.741 0 0 1 .5 2.094.737.737 0 0 1 0 .162v.238c-.122-.128-.226-.267-.325-.389a5.76 5.76 0 0 1-.58-.9 1.705 1.705 0 0 1-.22-.905.609.609 0 0 1 .255-.447.145.145 0 0 1 .209-.029z" class="cls-9" transform="translate(-172.831 -310.031)"/>
            <path id="Path_4464" d="M184.295 408.75c-.487.128-1.1 1.41-1.363 2.321a3.807 3.807 0 0 0-.1.458v.029a.1.1 0 0 0 0 .058.15.15 0 0 0 .041.064.1.1 0 0 0 .122 0 4.183 4.183 0 0 0 1.694-1.74 1.224 1.224 0 0 0 .035-.835c-.104-.367-.29-.396-.429-.355zm0 .278c.029 0 .122-.029.2.2v.081a.888.888 0 0 1-.052.534 3.7 3.7 0 0 1-1.369 1.439c.255-.865.888-2.164 1.242-2.257z" class="cls-9" transform="translate(-173.84 -309.922)"/>
            <path id="Path_4465" d="M178.626 411.37l2.094 4.061a.58.58 0 0 1-.081.644l-4.177 3.133a.719.719 0 0 1-1.16 0l-.052-.075c-5.222-7.09-6.451-10.321-6.91-11.238-1.305-2.611.725-3.771 1.363-3.092 2.854 3.046 5.047 4.775 6.742 5.163 2.343.834 2.018 1.114 2.181 1.404z" class="cls-20" transform="translate(-167.579 -308.191)"/>
            <path id="Path_4466" d="M247.379 264.349h-.035a2.419 2.419 0 1 1 2.454-2.384 2.419 2.419 0 0 1-2.419 2.384zm0-4.293a1.874 1.874 0 0 0-.029 3.748 1.874 1.874 0 1 0 .035-3.748z" class="cls-20" transform="translate(-199.928 -247.272)"/>
            <path id="Path_4467" d="M257 262.059h-.041a2.419 2.419 0 1 1 2.454-2.379 2.413 2.413 0 0 1-2.413 2.379zm0-4.287a1.862 1.862 0 1 0 .035 0z" class="cls-20" transform="translate(-203.962 -246.311)"/>
            <path id="Path_4468" d="M252.545 261.331l-.545-.11c0-.087.186-.888.772-1.062a1.2 1.2 0 0 1 1.16.482l-.383.383c-.267-.267-.493-.389-.638-.342s-.331.475-.366.649z" class="cls-20" transform="translate(-202.883 -247.538)"/>
            <path id="Path_4469" d="M262.4 259.869l-.122-.534 5.506-1.305 1.062.232-.116.534-.946-.209z" class="cls-20" transform="translate(-207.199 -246.65)"/>
        </g>
        <g id="freepik--Books--inject-344" transform="translate(53.201 178.824)">
            <path id="Path_4470" d="M307.676 390.551v3.725a.36.36 0 0 0 0 .714h4.264v-5.17h-4.264a.365.365 0 1 0 0 .731z" class="cls-9" transform="translate(-182.221 -374.394)"/>
            <path id="Path_4471" d="M307.676 390.551v3.725a.36.36 0 0 0 0 .714h4.264v-5.17h-4.264a.365.365 0 1 0 0 .731z" class="cls-25" transform="translate(-182.221 -374.394)"/>
            <path id="Rectangle_603" d="M0 0H3.307V3.719H0z" class="cls-9" transform="translate(125.455 16.163)"/>
            <path id="Rectangle_604" d="M0 0H3.307V3.719H0z" class="cls-26" transform="translate(125.455 16.163)"/>
            <path id="Path_4472" d="M312.45 390.46h18.269c.789 0 1.427.992 1.427 2.222s-.638 2.216-1.427 2.216H312.45z" class="cls-9" transform="translate(-184.379 -374.662)"/>
            <path id="Path_4473" d="M312.45 390.46h18.269c.789 0 1.427.992 1.427 2.222s-.638 2.216-1.427 2.216H312.45z" class="cls-15" transform="translate(-184.379 -374.662)"/>
            <path id="Path_4474" d="M312.223 394.963c3.754 0 14.313.064 18.072 0 2.57-.046 2.709-4.978.186-5.152-1.74-.122-3.568 0-5.332 0h-12.926a.36.36 0 0 0 0 .714H329.7c.824 0 1.416 0 1.741.98.273.841.186 2.559-.94 2.744a2.9 2.9 0 0 1-.389 0h-17.889a.36.36 0 0 0 0 .714z" class="cls-9" transform="translate(-184.151 -374.367)"/>
            <g id="Group_23" class="cls-16" transform="translate(127.757 15.39)">
                <path id="Path_4475" d="M312.223 394.963c3.754 0 14.313.064 18.072 0 2.57-.046 2.709-4.978.186-5.152-1.74-.122-3.568 0-5.332 0h-12.926a.36.36 0 0 0 0 .714H329.7c.824 0 1.416 0 1.741.98.273.841.186 2.559-.94 2.744a2.9 2.9 0 0 1-.389 0h-17.889a.36.36 0 0 0 0 .714z" class="cls-11" transform="translate(-311.909 -389.757)"/>
            </g>
            <path id="Path_4476" d="M308.761 399.261v3.452a.331.331 0 0 0 0 .656h3.945V398.6h-3.945a.331.331 0 1 0 0 .661z" class="cls-9" transform="translate(-182.691 -378.08)"/>
            <path id="Path_4477" d="M308.761 399.261v3.452a.331.331 0 0 0 0 .656h3.945V398.6h-3.945a.331.331 0 1 0 0 .661z" class="cls-25" transform="translate(-182.691 -378.08)"/>
            <path id="Rectangle_605" d="M0 0H3.063V3.446H0z" class="cls-9" transform="translate(126.093 21.187)"/>
            <path id="Rectangle_606" d="M0 0H3.063V3.446H0z" class="cls-26" transform="translate(126.093 21.187)"/>
            <path id="Path_4478" d="M313.21 399.17h16.918c.731 0 1.323.922 1.323 2.054s-.58 2.054-1.323 2.054H313.21z" class="cls-9" transform="translate(-184.698 -378.319)"/>
            <path id="Path_4479" d="M313.21 399.17h16.918c.731 0 1.323.922 1.323 2.054s-.58 2.054-1.323 2.054H313.21z" class="cls-15" transform="translate(-184.698 -378.319)"/>
            <path id="Path_4480" d="M312.971 403.333c3.481 0 13.257.064 16.738 0 2.379-.041 2.506-4.607.174-4.769-1.63-.11-3.307 0-4.937 0h-11.975a.331.331 0 0 0 0 .661h16.187c.76 0 1.305 0 1.6.911.255.777.174 2.367-.87 2.541a2.4 2.4 0 0 1-.354 0h-16.563a.331.331 0 0 0 0 .656z" class="cls-9" transform="translate(-184.458 -378.044)"/>
            <path id="Path_4481" d="M305.358 407.486v4.108a.395.395 0 0 0 0 .783h4.694v-5.7h-4.694a.4.4 0 0 0 0 .806z" class="cls-9" transform="translate(-181.232 -381.472)"/>
            <path id="Path_4482" d="M305.358 407.486v4.108a.395.395 0 0 0 0 .783h4.694v-5.7h-4.694a.4.4 0 0 0 0 .806z" class="cls-25" transform="translate(-181.232 -381.472)"/>
            <path id="Rectangle_607" d="M0 0H3.649V4.102H0z" class="cls-9" transform="translate(124.126 26.02)"/>
            <path id="Rectangle_608" d="M0 0H3.649V4.102H0z" class="cls-26" transform="translate(124.126 26.02)"/>
            <path id="Path_4483" d="M310.61 407.4h20.138c.87 0 1.572 1.091 1.572 2.443s-.7 2.448-1.572 2.448H310.61z" class="cls-9" transform="translate(-183.606 -381.774)"/>
            <path id="Path_4484" d="M310.61 407.4h20.138c.87 0 1.572 1.091 1.572 2.443s-.7 2.448-1.572 2.448H310.61z" class="cls-15" transform="translate(-183.606 -381.774)"/>
            <path id="Path_4485" d="M310.351 412.351c4.142 0 15.78.075 19.917 0 2.837-.046 2.988-5.483.209-5.674-1.938-.133-3.934 0-5.877 0h-14.249a.395.395 0 0 0 0 .783h19.261c.911 0 1.561 0 1.909 1.085.308.928.209 2.82-1.033 3.023a2.582 2.582 0 0 1-.423 0h-19.726a.395.395 0 0 0 0 .783z" class="cls-9" transform="translate(-183.347 -381.446)"/>
            <g id="Group_24" class="cls-16" transform="translate(126.646 25.172)">
                <path id="Path_4486" d="M310.351 412.351c4.142 0 15.78.075 19.917 0 2.837-.046 2.988-5.483.209-5.674-1.938-.133-3.934 0-5.877 0h-14.249a.395.395 0 0 0 0 .783h19.261c.911 0 1.561 0 1.909 1.085.308.928.209 2.82-1.033 3.023a2.582 2.582 0 0 1-.423 0h-19.726a.395.395 0 0 0 0 .783z" transform="translate(-309.992 -406.618)"/>
            </g>
            <path id="Path_4487" d="M92.3 406.413l5.512-8.644 9.584-3.1 13.466 2.106.806 8.047-6.678 1.265-5.738-.87-3.191-1.242-3.678 3.15-5.111.888-3.4-.429z" class="cls-9" transform="translate(-91.952 -376.43)"/>
            <path id="Path_4488" d="M92.3 406.413l5.512-8.644 9.584-3.1 13.466 2.106.806 8.047-6.678 1.265-5.738-.87-3.191-1.242-3.678 3.15-5.111.888-3.4-.429z" class="cls-23" transform="translate(-91.952 -376.43)"/>
            <path id="Path_4489" d="M117.378 394.96l-.98 9.88-2.216-.864-2.541 2.176 2.164-10.924 1.711-.557z" class="cls-27" transform="translate(-100.072 -376.43)"/>
            <path id="Path_4490" d="M91.7 413.839s9.532 3.962 14.406-2.9c0 0 9.985 4.9 15.311-.058l-.922-1.508s-2.588 4.235-14.788-.3a11.821 11.821 0 0 1-13.657 3.4z" class="cls-9" transform="translate(-91.7 -382.475)"/>
            <path id="Path_4491" d="M91.7 413.839s9.532 3.962 14.406-2.9c0 0 9.985 4.9 15.311-.058l-.922-1.508s-2.588 4.235-14.788-.3a11.821 11.821 0 0 1-13.657 3.4z" class="cls-22" transform="translate(-91.7 -382.475)"/>
            <path id="Path_4492" d="M104.05 398.146l6.91-5.546 9.753-.54 12.474 4.171-.766 6.295-6.62-.313-5.32-1.752-2.814-1.555-4.113 1.7-5.059-.29-3.162-.98z" class="cls-9" transform="translate(-96.885 -375.334)"/>
            <path id="Path_4493" d="M104.05 398.146l6.91-5.546 9.753-.54 12.474 4.171-.766 6.295-6.62-.313-5.32-1.752-2.814-1.555-4.113 1.7-5.059-.29-3.162-.98z" class="cls-23" transform="translate(-96.885 -375.334)"/>
            <path id="Path_4494" d="M130.238 392.634l-2.82 7.351-1.955-1.079-2.843 1.172 4.148-7.925 1.74-.093z" class="cls-27" transform="translate(-104.681 -375.334)"/>
            <path id="Path_4495" d="M103 403.535s8.36 4.844 14.324.528c0 0 8.615 5.639 14.643 2.866l-.58-1.323s-3.278 2.738-14.081-3.046a13.558 13.558 0 0 1-13.7 0z" class="cls-9" transform="translate(-96.444 -379.742)"/>
            <path id="Path_4496" d="M103 403.535s8.36 4.844 14.324.528c0 0 8.615 5.639 14.643 2.866l-.58-1.323s-3.278 2.738-14.081-3.046a13.558 13.558 0 0 1-13.7 0z" class="cls-22" transform="translate(-96.444 -379.742)"/>
            <path id="Path_4497" d="M243.51 369.246l30.563 1.3s-.551-3.742-.952-3.841-5.419-4.427-11.273-2.367c-1.276.441-2.2.783-2.866 1.027-.638-.3-1.532-.714-2.767-1.271-5.662-2.547-11.023 1.34-11.441 1.4s-1.264 3.752-1.264 3.752z" class="cls-9" transform="translate(-155.435 -363.23)"/>
            <path id="Path_4498" d="M243.51 369.259l30.563 1.3v-.093c-.093-.58-.58-3.655-.94-3.748l-.07-.035c-.714-.389-5.57-4.316-11.2-2.321-1.282.447-2.21.783-2.872 1.039-.638-.307-1.532-.719-2.767-1.276-5.662-2.547-11.023 1.34-11.435 1.4s-1.279 3.734-1.279 3.734z" class="cls-26" transform="translate(-155.435 -363.243)"/>
            <path id="Path_4499" d="M237.49 369.285l30.934 1.311s-.58-3.788-.963-3.887-5.506-3.91-11.429-1.827a9.968 9.968 0 0 0-2.959 2.35 9.884 9.884 0 0 0-2.75-2.593c-5.726-2.576-11.133.783-11.551.853s-1.282 3.793-1.282 3.793z" class="cls-9" transform="translate(-152.908 -363.414)"/>
            <path id="Path_4500" d="M237.49 369.285l30.934 1.311s-.58-3.788-.963-3.887-5.506-3.91-11.429-1.827a9.968 9.968 0 0 0-2.959 2.35 9.884 9.884 0 0 0-2.75-2.593c-5.726-2.576-11.133.783-11.551.853s-1.282 3.793-1.282 3.793z" class="cls-22" transform="translate(-152.908 -363.414)"/>
            <path id="Path_4501" d="M263.011 371.58l.905 1.822-2.327-.1z" class="cls-9" transform="translate(-163.026 -366.736)"/>
            <g id="Group_25" class="cls-28" transform="translate(98.564 4.844)">
                <path id="Path_4502" d="M263.011 371.58l.905 1.822-2.327-.1z" transform="translate(-261.59 -371.58)"/>
            </g>
            <path id="Path_4503" d="M289.22 368.94a7.309 7.309 0 0 1 .441 1.346c.238 1.16.482 2.524.482 2.524l3.121.133v-.093c-.093-.58-.58-3.655-.94-3.748l-.07-.035z" class="cls-23" transform="translate(-174.626 -365.627)"/>
            <path id="Path_4504" d="M235.37 374.367l15.154 1.021h.035a1.7 1.7 0 0 1 2.257.093l.029.029 15.63.458 3.945.122-.238-1.363-19.267-.818a1.7 1.7 0 0 0-2.321-.1l-14.783-.65z" class="cls-20" transform="translate(-152.018 -367.399)"/>
            <g id="Group_26" class="cls-28" transform="translate(116.213 7.107)">
                <path id="Path_4505" d="M292.01 375.48l.249 1.41 3.945.122-.244-1.363z" transform="translate(-292.01 -375.48)"/>
            </g>
            <path id="Path_4506" d="M258.039 368.252s-2.263-2.837-5.169-2.448c0-.004 2.03-.169 5.169 2.448z" class="cls-9" transform="translate(-159.365 -364.295)"/>
            <path id="Path_4507" d="M258.039 368.252s-2.263-2.837-5.169-2.448c0-.004 2.03-.169 5.169 2.448z" class="cls-29" transform="translate(-159.365 -364.295)"/>
            <path id="Path_4508" d="M271.46 372.117s3.255-1.6 5.72 0c0-.006-1.769-1.027-5.72 0z" class="cls-9" transform="translate(-167.169 -366.664)"/>
            <path id="Path_4509" d="M271.46 372.117s3.255-1.6 5.72 0c0-.006-1.769-1.027-5.72 0z" class="cls-29" transform="translate(-167.169 -366.664)"/>
            <path id="Path_4510" d="M266.34 369.478s2.651-2.471 5.471-1.665c0 0-1.984-.464-5.471 1.665z" class="cls-9" transform="translate(-165.02 -365.086)"/>
            <path id="Path_4511" d="M266.34 369.478s2.651-2.471 5.471-1.665c0 0-1.984-.464-5.471 1.665z" class="cls-29" transform="translate(-165.02 -365.086)"/>
            <path id="Path_4512" d="M251.127 368.964s-3.1-1.885-5.7-.522c.003 0 1.854-.859 5.7.522z" class="cls-9" transform="translate(-156.241 -365.21)"/>
            <path id="Path_4513" d="M251.127 368.964s-3.1-1.885-5.7-.522c.003 0 1.854-.859 5.7.522z" class="cls-29" transform="translate(-156.241 -365.21)"/>
        </g>
        <g id="freepik--Globe--inject-344" transform="translate(173.614 155.374)">
            <path id="Path_4514" d="M313.731 365.939a15.732 15.732 0 0 1-3.011.3 15.479 15.479 0 0 1-11.02-4.529l-.447.452a16.117 16.117 0 0 0 11.458 4.688 16.454 16.454 0 0 0 3.174-.319.749.749 0 0 1-.186-.5.9.9 0 0 1 .032-.092z" class="cls-9" transform="translate(-299.25 -339.142)"/>
            <path id="Rectangle_609" d="M0 0H3.081V8.906H0z" class="cls-9" transform="translate(13.284 26.3)"/>
            <g id="Group_27" class="cls-16" transform="translate(13.284 26.291)">
                <path id="Rectangle_610" d="M0 0H3.081V8.906H0z" transform="translate(0 .009)"/>
            </g>
            <path id="Path_4515" d="M308.69 386.729c0-2.321 4.177-4.212 9.346-4.229s9.364 1.857 9.37 4.177a35 35 0 0 1-18.484.116z" class="cls-9" transform="translate(-303.213 -347.87)"/>
            <path id="Rectangle_611" d="M0 0H31.7V0.638H0z" class="cls-9" transform="rotate(-45.36 28.443 10.385)"/>
            <path id="Path_4516" d="M337.361 334.262a16.094 16.094 0 0 0-4.781-11.452l-.447.453a15.577 15.577 0 0 1-7.925 26.345.9.9 0 0 0 0 .122.749.749 0 0 0 .186.5 16.245 16.245 0 0 0 12.99-15.937z" class="cls-9" transform="translate(-309.728 -322.81)"/>
            <path id="Path_4517" d="M320.842 343.649a11.539 11.539 0 1 1-.29-16.32 11.54 11.54 0 0 1 .29 16.32z" class="cls-9" transform="translate(-299.985 -323.349)"/>
            <path id="Path_4518" d="M328.131 342.159l-.371-.36c2.657-2.756 4.815-7.78 3.8-12.073l.5-.116c1.061 4.467-1.173 9.69-3.929 12.549z" class="cls-9" transform="translate(-311.219 -325.665)"/>
            <path id="Path_4519" d="M307.44 354.908l.1-.511c4.322.864 9.283-1.468 11.928-4.218l.377.36c-2.751 2.855-7.897 5.269-12.405 4.369z" class="cls-9" transform="translate(-302.688 -334.301)"/>
            <path id="Path_4520" d="M313.827 333.859l-.377-.36c2.756-2.854 7.9-5.274 12.41-4.369l-.1.5c-4.327-.859-9.276 1.479-11.933 4.229z" class="cls-9" transform="translate(-305.212 -325.383)"/>
            <path id="Path_4521" d="M306.906 348.919c-1.056-4.467 1.16-9.695 3.934-12.549l.371.36c-2.657 2.75-4.815 7.78-3.8 12.073z" class="cls-9" transform="translate(-302.352 -328.503)"/>
            <path id="Rectangle_612" d="M0 0H23.079V0.522H0z" class="cls-9" transform="rotate(-45.97 26.29 5.064)"/>
            <path id="Rectangle_613" d="M0 0H0.522V19.54H0z" class="cls-9" transform="rotate(-45.97 6.358 -10.713)"/>
            <path id="Rectangle_614" d="M0 0H0.522V23.073H0z" class="cls-9" transform="rotate(-45.97 7.45 -2.354)"/>
            <path id="Rectangle_615" d="M0 0H0.522V19.024H0z" class="cls-9" transform="rotate(-45.97 13.01 4.102)"/>
            <g id="Group_28" class="cls-16" transform="translate(1.019 .928)">
                <path id="Path_4522" d="M328.131 342.159l-.371-.36c2.657-2.756 4.815-7.78 3.8-12.073l.5-.116c1.061 4.467-1.173 9.69-3.929 12.549z" transform="translate(-312.238 -326.593)"/>
                <path id="Path_4523" d="M307.44 354.908l.1-.511c4.322.864 9.283-1.468 11.928-4.218l.377.36c-2.751 2.855-7.897 5.269-12.405 4.369z" transform="translate(-303.707 -335.229)"/>
                <path id="Path_4524" d="M313.827 333.859l-.377-.36c2.756-2.854 7.9-5.274 12.41-4.369l-.1.5c-4.327-.859-9.276 1.479-11.933 4.229z" transform="translate(-306.231 -326.311)"/>
                <path id="Path_4525" d="M306.906 348.919c-1.056-4.467 1.16-9.695 3.934-12.549l.371.36c-2.657 2.75-4.815 7.78-3.8 12.073z" transform="translate(-303.371 -329.431)"/>
                <path id="Rectangle_616" d="M0 0H23.079V0.522H0z" transform="rotate(-45.97 24.686 5.802)"/>
                <path id="Rectangle_617" d="M0 0H0.522V19.54H0z" transform="rotate(-45.97 4.755 -9.976)"/>
                <path id="Rectangle_618" d="M0 0H0.522V23.073H0z" transform="rotate(-45.97 5.846 -1.617)"/>
                <path id="Rectangle_619" d="M0 0H0.522V19.024H0z" transform="rotate(-45.97 11.406 4.839)"/>
            </g>
        </g>
    </g>
</svg>
