<svg xmlns="http://www.w3.org/2000/svg" width="36.961" height="36.96" viewBox="0 0 36.961 36.96">
    <defs>
        <style>
            .cls-1{fill:#fff}
        </style>
    </defs>
    <g id="pen" transform="translate(0 -.005)">
        <path id="Path_5300" d="M36.452 27.233l-9.591-9.591 4.677-4.677a1.738 1.738 0 0 0 2.335-2.336l2.215-2.215a2.934 2.934 0 0 0 0-4.149L32.705.882a2.934 2.934 0 0 0-4.149 0L26.34 3.1a1.736 1.736 0 0 0-2.333 2.333l-4.678 4.677-9.6-9.6a1.739 1.739 0 0 0-2.457 0L.508 7.28a1.739 1.739 0 0 0 0 2.457l9.6 9.6L6 23.443a.541.541 0 1 0 .766.766L21.02 9.95l2.617 2.617L7.572 28.633l-3.919-1.316 1.576-1.577a.541.541 0 0 0-.766-.766L2.241 27.2a1.143 1.143 0 0 0-.3.649L1.2 34.51a1.162 1.162 0 0 0-.007.129 1.14 1.14 0 0 0 1.138 1.136 1.151 1.151 0 0 0 .128-.007l6.661-.74a1.144 1.144 0 0 0 .649-.3l7.866-7.864 1.66 1.66a.541.541 0 0 0 .766-.766L18.4 26.1l.926-.926 6.383 6.383a.541.541 0 1 0 .766-.766l-6.383-6.383 6-6 .926.926-.463.463a.541.541 0 1 0 .766.766l.463-.463 1.772 1.772-.463.463a.541.541 0 1 0 .766.766l.463-.463 1.778 1.77-.463.463a.541.541 0 1 0 .766.766l.463-.463L35.686 28a.655.655 0 0 1 0 .926l-6.766 6.765a.655.655 0 0 1-.926 0l-6.4-6.4a.541.541 0 0 0-.766.766l6.4 6.4a1.739 1.739 0 0 0 2.457 0l6.766-6.766a1.738 1.738 0 0 0 0-2.457zM27.327 8.877L24.4 11.8l-.926-.926L26.4 7.951zm.766.766l.926.926-2.924 2.924-.926-.926zm1.692 1.692l.926.926-2.924 2.924-.926-.926zm-.463-9.687a1.851 1.851 0 0 1 2.617 0l3.383 3.383a1.851 1.851 0 0 1 0 2.617L33.168 9.8l-6-6zm-4.229 2.537a.655.655 0 0 1 .926 0l6.765 6.765a.655.655 0 0 1-.926.926l-6.765-6.765a.656.656 0 0 1 0-.926zM1.274 8.971a.655.655 0 0 1 0-.926L8.04 1.279a.655.655 0 0 1 .926 0l2.83 2.83-.463.463a.541.541 0 1 0 .766.766l.463-.463 1.772 1.772-.463.463a.541.541 0 1 0 .766.766l.463-.463 1.772 1.772-.463.463a.541.541 0 1 0 .766.766l.463-.463.926.926-6 6-6.385-6.384a.541.541 0 1 0-.766.766l6.387 6.383-.926.926zM24.71 6.26l.926.926-2.924 2.924-.926-.926zm2.311 9.69L9.654 33.317 8.338 29.4 24.4 13.333zM4.9 34.407l-2.337-2.338.426-3.833 4.274 1.435a.057.057 0 0 1 .036.036l1.435 4.274zm-2.592.279a.058.058 0 0 1-.014-.011.053.053 0 0 1-.016-.046l.131-1.182 1.115 1.113-1.182.131h-.008a.053.053 0 0 1-.025-.006z" class="cls-1"/>
        <path id="Path_5301" d="M93.1 94.843a1.738 1.738 0 1 0-1.229-.509 1.726 1.726 0 0 0 1.229.509zm-.463-2.2a.655.655 0 1 1-.192.463.65.65 0 0 1 .192-.463z" class="cls-1" transform="translate(-84.766 -84.767)"/>
    </g>
</svg>
