<svg xmlns="http://www.w3.org/2000/svg" width="115" height="115" viewBox="0 0 115 115">
    <defs>
        <filter id="ged7czhy1a" width="115" height="115" x="0" y="0" filterUnits="userSpaceOnUse">
            <feOffset dy="3"/>
            <feGaussianBlur result="blur" stdDeviation="7.5"/>
            <feFlood flood-color="#ec6601" flood-opacity=".361"/>
            <feComposite in2="blur" operator="in"/>
            <feComposite in="SourceGraphic"/>
        </filter>
    </defs>
    <g>
        <g filter="url(#ged7czhy1a)" transform="translate(22.271 19.5) translate(-22.27 -19.5)">
            <rect width="70" height="70" fill="#ec6601" rx="15" transform="translate(22.5 19.5)"/>
        </g>
        <path fill="#fff" d="M13.029 23.576L1.94 12.022A6.993 6.993 0 0 1 .375 9.449a.416.416 0 0 1 .788-.265 6.175 6.175 0 0 0 1.38 2.27l11.088 11.553a6.309 6.309 0 0 0 8.695.4l-5.278-5.546-.572.536a1.955 1.955 0 0 1-2.746-.077l-6.466-6.7a1.919 1.919 0 0 1 .075-2.72l.572-.538-5.277-5.548a6.2 6.2 0 0 0-1.8 4.619.416.416 0 0 1-.831.033 7.021 7.021 0 0 1 2.22-5.409L3.817.562A2.087 2.087 0 0 1 6.75.645L10.324 4.4a2.05 2.05 0 0 1-.083 2.911L7.911 9.5a1.1 1.1 0 0 0-.045 1.559l6.466 6.7a1.116 1.116 0 0 0 1.568.041l2.33-2.185a2.084 2.084 0 0 1 2.932.083l3.574 3.756a2.049 2.049 0 0 1-.083 2.911l-1.594 1.5A7.072 7.072 0 0 1 19.8 25.6a7.2 7.2 0 0 1-1.606.181 7.1 7.1 0 0 1-5.165-2.205zm6.348-7.667a1.242 1.242 0 0 0-.572.305l-1.153 1.081 5.281 5.549 1.153-1.081a1.227 1.227 0 0 0 .049-1.743l-3.574-3.756a1.233 1.233 0 0 0-.868-.386h-.033a1.267 1.267 0 0 0-.283.03zM4.96.857a1.24 1.24 0 0 0-.572.306L3.236 2.244l1.749 1.838 3.531 3.711 1.153-1.081a1.226 1.226 0 0 0 .05-1.743L6.145 1.213a1.24 1.24 0 0 0-.868-.387h-.033a1.3 1.3 0 0 0-.284.031zm19.206 9.278a7.528 7.528 0 0 0-7.546-7.493.441.441 0 1 1 0-.881 8.414 8.414 0 0 1 8.434 8.374.444.444 0 0 1-.888 0zm-2.663 0a4.871 4.871 0 0 0-4.883-4.848.441.441 0 1 1 0-.882 5.757 5.757 0 0 1 5.77 5.73.444.444 0 0 1-.887 0zm-2.664 0a2.214 2.214 0 0 0-2.219-2.2.441.441 0 1 1 0-.881 3.1 3.1 0 0 1 3.107 3.085.444.444 0 0 1-.888 0z" transform="translate(22.271 19.5) translate(22.011 21.981)"/>
    </g>
</svg>
