<svg xmlns="http://www.w3.org/2000/svg" width="45" height="60.331" viewBox="0 0 35 60.331">
    <defs>
        <style>
            .cls-1{fill:#fff}
        </style>
    </defs>
    <g id="Group_57" transform="translate(-1862 -1558.669)">
        <g id="paper" transform="translate(1817.801 1558.669)">
            <path id="Path_5329" d="M79.106 36.9V.588A.588.588 0 0 0 78.518 0h-28.4a.588.588 0 0 0-.588.588v2.08h-2.743a.588.588 0 0 0-.588.588v5.136a.588.588 0 0 0 1.176 0V3.844h2.159v22.921a6.682 6.682 0 0 0 5.524 6.6L74.595 36.8v2.174h-27.22V11.729a.588.588 0 0 0-1.176 0v27.836a.588.588 0 0 0 .588.588h28.4a.588.588 0 0 0 .588-.588v-2.554l2.645.466a.59.59 0 0 0 .686-.577zM50.71 26.765V1.176h27.22V35.85l-11.69-7.123a.588.588 0 0 0-.612 1l9.921 6.045-17.513-3.082c2-1.16 2.8-3.586 2.988-5.764l1.933 1.174a.588.588 0 0 0 .612-1l-2.789-1.7q-.758-.272-.894.522c.1 3.09-2.07 6.7-4.628 6.279a5.48 5.48 0 0 1-4.548-5.436z" class="cls-1"/>
            <path id="Path_5330" d="M155.933 77.147h17.954a.588.588 0 0 0 0-1.176h-17.954a.588.588 0 0 0 0 1.176z" class="cls-1" transform="translate(-100.59 -70.013)"/>
            <path id="Path_5331" d="M155.933 123.39h17.954a.588.588 0 0 0 0-1.176h-17.954a.588.588 0 0 0 0 1.176z" class="cls-1" transform="translate(-100.59 -112.629)"/>
            <path id="Path_5332" d="M155.933 169.634h17.954a.588.588 0 0 0 0-1.176h-17.954a.588.588 0 0 0 0 1.176z" class="cls-1" transform="translate(-100.59 -155.247)"/>
            <path id="Path_5333" d="M155.933 215.877h17.954a.588.588 0 0 0 0-1.176h-17.954a.588.588 0 0 0 0 1.176z" class="cls-1" transform="translate(-100.59 -197.863)"/>
        </g>
        <text id="Прием" fill="#fff" font-family="SegoeUI, Segoe UI" font-size="11px" transform="translate(1897 1616)">
            <tspan x="-34.176" y="0">Прием</tspan>
        </text>
    </g>
</svg>
