<svg xmlns="http://www.w3.org/2000/svg" width="328" height="378" viewBox="0 0 328 378">
    <defs>
        <style>
            .cls-3{fill:#ebebeb}.cls-4{fill:#e6e6e6}.cls-5{fill:#f0f0f0}.cls-11,.cls-14,.cls-15,.cls-17,.cls-6{fill:#fff}.cls-7{fill:#e0e0e0}.cls-8{fill:#f5f5f5}.cls-9{fill:#fafafa}.cls-10,.cls-16{fill:#004f95}.cls-11{opacity:.8}.cls-12,.cls-14{opacity:.2}.cls-13{fill:#263238}.cls-15{opacity:.5}.cls-16{opacity:.6}.cls-17{opacity:.3}.cls-18{fill:#ffb573}
        </style>
    </defs>
    <g id="Group_49" transform="translate(.206)">
        <text id="ЦЕННОСТИ" fill="#252525" font-family="SegoeUI, Segoe UI" font-size="23px" transform="translate(228.793 372)">
            <tspan x="-122.221" y="0">ЦЕННОСТИ</tspan>
        </text>
        <circle id="Ellipse_17" cx="164" cy="164" r="164" fill="#faf9f9" transform="translate(-.206)"/>
        <g id="Learning-rafiki_1_" transform="translate(17.405 54.149)">
            <g id="freepik--background-complete--inject-310">
                <path id="Rectangle_620" d="M0 0H293.365V0.147H0z" class="cls-3" transform="translate(0 192.095)"/>
                <path id="Rectangle_621" d="M0 0H32.405V0.147H0z" class="cls-3" transform="translate(231.565 201.536)"/>
                <path id="Rectangle_622" d="M0 0H5.099V0.147H0z" class="cls-3" transform="translate(188.816 198.461)"/>
                <path id="Rectangle_623" d="M0 0H11.259V0.147H0z" class="cls-3" transform="translate(218.539 196.091)"/>
                <path id="Rectangle_624" d="M0 0H25.341V0.147H0z" class="cls-3" transform="translate(30.78 197.077)"/>
                <path id="Rectangle_625" d="M0 0H26.825V0.147H0z" class="cls-3" transform="translate(126.341 200.867)"/>
                <path id="Rectangle_626" d="M0 0H54.965V0.147H0z" class="cls-3" transform="translate(82.412 198.385)"/>
                <path id="Path_4526" d="M158.2 217.577a3.35 3.35 0 0 1-3.356 3.35H41.554a3.35 3.35 0 0 1-3.344-3.35V58.321A3.35 3.35 0 0 1 41.554 55h113.292a3.35 3.35 0 0 1 3.35 3.35m-.147 0a3.209 3.209 0 0 0-3.2-3.233H41.554a3.2 3.2 0 0 0-3.2 3.2v159.26a3.2 3.2 0 0 0 3.2 3.2h113.292a3.209 3.209 0 0 0 3.2-3.2" class="cls-3" transform="translate(-15.791 -55)"/>
                <path id="Path_4527" d="M371.148 220.927H257.85a3.356 3.356 0 0 1-3.35-3.35V58.321A3.356 3.356 0 0 1 257.85 55h113.3a3.35 3.35 0 0 1 3.339 3.321v159.256a3.35 3.35 0 0 1-3.341 3.35zM257.85 55.117a3.209 3.209 0 0 0-3.2 3.2v159.26a3.209 3.209 0 0 0 3.2 3.2h113.3a3.209 3.209 0 0 0 3.2-3.2V58.321a3.209 3.209 0 0 0-3.2-3.2z" class="cls-3" transform="translate(-105.177 -55)"/>
                <path id="Rectangle_627" d="M0 0H38.93V45.137H0z" class="cls-4" transform="translate(160.271 40.954)"/>
                <path id="Rectangle_628" d="M0 0H41.059V45.137H0z" class="cls-5" transform="translate(160.858 40.954)"/>
                <path id="Rectangle_629" d="M0 0H38.261V34.177H0z" class="cls-6" transform="rotate(90 77.04 121.439)"/>
                <path id="Path_4528" d="M311.372 165.821H302.5a8.1 8.1 0 0 1-8.091-8.1v-8.865a.329.329 0 0 1 .329-.329h8.871a8.1 8.1 0 0 1 8.1 8.1v8.873a.329.329 0 0 1-.337.321zm-16.305-16.634v8.537a7.446 7.446 0 0 0 7.434 7.434h8.543v-8.531a7.44 7.44 0 0 0-7.434-7.434z" class="cls-5" transform="translate(-121.671 -93.653)"/>
                <path id="Path_4529" d="M403.984 130.684H359.41l3.949-32.7h36.676z" class="cls-3" transform="translate(-148.533 -72.762)"/>
                <path id="Rectangle_630" d="M0 0H0.716V12.527H0z" class="cls-7" transform="translate(217.542 57.916)"/>
                <circle id="Ellipse_28" cx=".857" cy=".857" r=".857" class="cls-7" transform="translate(217.043 69.586)"/>
                <path id="Path_4530" d="M412.168 130.684h-7.663l-1.625-32.7h7.07z" class="cls-8" transform="translate(-166.498 -72.762)"/>
                <path id="Rectangle_631" d="M0 0H4.459V134.173H0z" class="cls-5" transform="translate(230.937 57.916)"/>
                <path id="Path_4531" d="M399.481 380.28H385.37a3.01 3.01 0 0 1 3-3.01h8.1a3.01 3.01 0 0 1 3.011 3.01z" class="cls-5" transform="translate(-159.262 -188.185)"/>
                <path id="Rectangle_632" d="M0 0H4.459V2.722H0z" class="cls-7" transform="translate(230.937 57.916)"/>
                <path id="Path_4532" d="M377.766 274.33c-.358 0-.716 0-1.08.035a15.337 15.337 0 0 0-13.741 19.3 76.965 76.965 0 0 1 2.406 19.99v19.635a2.57 2.57 0 0 0 2.576 2.576h42.245V274.33z" class="cls-5" transform="translate(-149.775 -145.643)"/>
                <path id="Path_4533" d="M448.377 289.672a15.349 15.349 0 1 0-30.17 4 76.965 76.965 0 0 1 2.406 19.99v19.632a2.57 2.57 0 0 0 2.576 2.576h19.679a2.576 2.576 0 0 0 2.576-2.576v-20.787a70.035 70.035 0 0 1 2.347-18.734 15.254 15.254 0 0 0 .586-4.101z" class="cls-8" transform="translate(-172.614 -145.641)"/>
                <path id="Rectangle_633" d="M0 0H69.973V37.363H0z" class="cls-5" transform="translate(182.649 152.861)"/>
                <path id="Path_4534" d="M311.95 232.1h-51.633a10.491 10.491 0 0 0-10.617 11.61l3.931 45.765h74.843l-3.931-45.765a12.908 12.908 0 0 0-12.593-11.61z" class="cls-7" transform="translate(-103.168 -128.189)"/>
                <path id="Path_4535" d="M337.4 232.1h-52.742a9.974 9.974 0 0 0-10.109 11.054l3.984 46.352h74.878l-3.984-46.352A12.274 12.274 0 0 0 337.4 232.1z" class="cls-8" transform="translate(-113.438 -128.189)"/>
                <path id="Path_4536" d="M312.433 309.72h67.638a3.843 3.843 0 0 1 3.843 3.843v7.528a3.843 3.843 0 0 1-3.843 3.843h-67.638a1.173 1.173 0 0 1-1.173-1.173v-12.909a1.174 1.174 0 0 1 1.173-1.132z" class="cls-7" transform="translate(-128.634 -160.268)"/>
                <path id="Path_4537" d="M236.24 274.33q-.54 0-1.074.035a15.355 15.355 0 0 0-13.747 19.3 76.716 76.716 0 0 1 2.406 19.99v19.635a2.576 2.576 0 0 0 2.576 2.576h42.244V274.33z" class="cls-5" transform="translate(-91.288 -145.643)"/>
                <path id="Path_4538" d="M306.817 289.7a15.349 15.349 0 1 0-30.181 4 76.72 76.72 0 0 1 2.406 19.99v19.63a2.576 2.576 0 0 0 2.582 2.576H301.3a2.57 2.57 0 0 0 2.576-2.576v-20.782a70.04 70.04 0 0 1 2.382-18.734 15.476 15.476 0 0 0 .559-4.104z" class="cls-8" transform="translate(-114.112 -145.672)"/>
                <path id="Path_4539" d="M354.164 381.082H247.6a1.872 1.872 0 0 1-1.872-1.872h110.307a1.872 1.872 0 0 1-1.872 1.872z" class="cls-7" transform="translate(-101.553 -188.986)"/>
                <path id="Rectangle_634" d="M0 0H12.861V171.66H0z" class="cls-4" transform="translate(27.054 20.436)"/>
                <path id="Rectangle_635" d="M0 0H112.869V171.66H0z" class="cls-8" transform="rotate(180 76.39 96.047)"/>
                <path id="Rectangle_636" d="M0 0H169.131V108.651H0z" class="cls-4" transform="rotate(90 63.853 86.819)"/>
                <path id="Rectangle_637" d="M0 0H169.131V9.094H0z" class="cls-7" transform="rotate(90 14.075 37.04)"/>
                <path id="Rectangle_638" d="M0 0H2.523V109.795H0z" class="cls-8" transform="rotate(90 -3.802 155.618)"/>
                <path id="Rectangle_639" d="M0 0H2.523V109.795H0z" class="cls-8" transform="rotate(90 13.917 137.899)"/>
                <path id="Rectangle_640" d="M0 0H2.529V109.795H0z" class="cls-8" transform="rotate(90 31.636 120.18)"/>
                <path id="Rectangle_641" d="M0 0H2.523V109.795H0z" class="cls-8" transform="rotate(90 49.355 102.46)"/>
                <path id="Rectangle_642" d="M0 0H16.329V24.074H0z" class="cls-9" transform="rotate(180 34.016 26.556)"/>
                <rect id="Rectangle_643" width="4.917" height="24.074" class="cls-5" rx="1.52" transform="translate(65.743 29.031)"/>
                <path id="Rectangle_644" d="M0 0H16.329V24.074H0z" class="cls-9" transform="rotate(180 31.264 26.556)"/>
                <rect id="Rectangle_645" width="4.917" height="24.074" class="cls-4" rx="1.52" transform="translate(60.251 29.031)"/>
                <path id="Path_4540" d="M71.62 104.48h14.093l-1.121 24.079H71.62z" class="cls-9" transform="translate(-29.598 -75.449)"/>
                <path id="Path_4541" d="M95.085 104.48h-3.291a.951.951 0 0 0-.857.974L89.9 127.585a.862.862 0 0 0 .769.974h3.292a.962.962 0 0 0 .857-.974l1.033-22.131a.857.857 0 0 0-.769-.974z" class="cls-5" transform="translate(-37.152 -75.449)"/>
                <path id="Rectangle_646" d="M0 0H12.38V20.324H0z" class="cls-9" transform="rotate(180 69.797 26.553)"/>
                <rect id="Rectangle_647" width="3.726" height="20.324" class="cls-5" rx="1.21" transform="translate(137.864 32.786)"/>
                <path id="Rectangle_648" d="M0 0H12.38V20.324H0z" class="cls-9" transform="rotate(180 67.712 26.553)"/>
                <rect id="Rectangle_649" width="3.726" height="20.324" class="cls-4" rx="1.21" transform="translate(133.698 32.786)"/>
                <path id="Path_4542" d="M204.31 110.88h10.684l-.851 20.324h-9.833z" class="cls-9" transform="translate(-84.435 -78.094)"/>
                <path id="Path_4543" d="M222.105 110.88h-2.494c-.34 0-.628.37-.651.821l-.78 18.681c0 .452.241.821.587.821h2.5c.34 0 .628-.37.645-.821l.788-18.682c.01-.45-.254-.82-.595-.82z" class="cls-5" transform="translate(-90.167 -78.094)"/>
                <path id="Rectangle_650" d="M0 0H12.38V20.324H0z" class="cls-9" transform="rotate(180 61.815 26.553)"/>
                <rect id="Rectangle_651" width="3.726" height="20.324" class="cls-5" rx="1.21" transform="translate(121.899 32.786)"/>
                <path id="Rectangle_652" d="M0 0H12.38V20.324H0z" class="cls-9" transform="rotate(180 59.732 26.553)"/>
                <rect id="Rectangle_653" width="3.726" height="20.324" class="cls-4" rx="1.21" transform="translate(117.733 32.786)"/>
                <path id="Path_4544" d="M177.11 110.88h10.678l-.845 20.324h-9.833z" class="cls-9" transform="translate(-73.194 -78.094)"/>
                <path id="Path_4545" d="M194.913 110.88h-2.5c-.34 0-.628.37-.645.821L191 130.383c0 .452.246.821.587.821h2.494c.34 0 .628-.37.651-.821l.78-18.681c0-.452-.258-.822-.599-.822z" class="cls-5" transform="translate(-78.935 -78.094)"/>
                <path id="Rectangle_654" d="M0 0H8.631V21.844H0z" class="cls-9" transform="rotate(180 48.279 26.556)"/>
                <rect id="Rectangle_655" width="2.599" height="21.844" class="cls-5" rx="1.05" transform="translate(95.355 31.261)"/>
                <path id="Rectangle_656" d="M0 0H9.511V24.074H0z" class="cls-9" transform="rotate(180 45.126 26.556)"/>
                <rect id="Rectangle_657" width="2.863" height="24.074" class="cls-8" rx="1.16" transform="translate(88.925 29.031)"/>
                <path id="Path_4546" d="M133.46 104.48h8.208l-.651 24.079h-7.557z" class="cls-9" transform="translate(-55.155 -75.449)"/>
                <path id="Path_4547" d="M147.148 104.48h-1.913c-.258 0-.487.434-.5.974l-.587 22.131c0 .534.182.974.446.974h1.919c.258 0 .481-.44.5-.974l.587-22.131c-.018-.54-.194-.974-.452-.974z" class="cls-5" transform="translate(-59.573 -75.449)"/>
                <path id="Rectangle_658" d="M0 0H16.329V24.074H0z" class="cls-9" transform="rotate(180 55.751 44.275)"/>
                <rect id="Rectangle_659" width="4.917" height="24.074" class="cls-5" rx="1.52" transform="translate(109.22 64.47)"/>
                <path id="Rectangle_660" d="M0 0H16.329V24.074H0z" class="cls-9" transform="rotate(180 53.005 44.275)"/>
                <rect id="Rectangle_661" width="4.917" height="24.074" class="cls-4" rx="1.52" transform="translate(103.722 64.47)"/>
                <path id="Path_4548" d="M145.72 164.88h14.087l-1.121 24.079H145.72z" class="cls-9" transform="translate(-60.222 -100.41)"/>
                <path id="Path_4549" d="M169.181 164.88h-3.292a.951.951 0 0 0-.857.974l-1.039 22.131a.857.857 0 0 0 .769.974h3.292a.962.962 0 0 0 .857-.974l1.027-22.131a.851.851 0 0 0-.757-.974z" class="cls-5" transform="translate(-67.77 -100.41)"/>
                <path id="Rectangle_662" d="M0 0H10.004V20.324H0z" class="cls-9" transform="rotate(180 65.103 44.272)"/>
                <rect id="Rectangle_663" width="3.01" height="20.324" class="cls-5" rx="1.09" transform="translate(128.811 68.225)"/>
                <path id="Rectangle_664" d="M0 0H10.004V20.324H0z" class="cls-9" transform="rotate(180 63.42 44.272)"/>
                <rect id="Rectangle_665" width="3.01" height="20.324" class="cls-4" rx="1.09" transform="translate(125.443 68.225)"/>
                <path id="Path_4550" d="M194.76 171.28h8.64l-.69 20.32h-7.95z" class="cls-9" transform="translate(-80.488 -103.055)"/>
                <path id="Path_4551" d="M209.157 171.28h-2.018c-.276 0-.51.37-.522.821L206 190.783c0 .452.194.821.469.821h2.018c.276 0 .51-.37.522-.821l.634-18.682c.001-.451-.211-.821-.486-.821z" class="cls-5" transform="translate(-85.134 -103.055)"/>
                <path id="Rectangle_666" d="M0 0H8.285V16.833H0z" class="cls-9" transform="rotate(180 72.59 44.275)"/>
                <rect id="Rectangle_667" width="2.494" height="16.833" class="cls-5" rx=".9" transform="translate(144.019 71.71)"/>
                <path id="Rectangle_668" d="M0 0H8.285V16.833H0z" class="cls-9" transform="rotate(180 71.194 44.275)"/>
                <rect id="Rectangle_669" width="2.494" height="16.833" class="cls-4" rx=".9" transform="translate(141.232 71.71)"/>
                <path id="Path_4552" d="M224.94 177.22h7.152l-.569 16.839h-6.583z" class="cls-9" transform="translate(-92.961 -105.51)"/>
                <path id="Path_4553" d="M236.859 177.22h-1.672c-.229 0-.422.305-.434.681l-.522 15.478c0 .375.158.681.387.681h1.672c.223 0 .422-.305.434-.681l.522-15.478c.012-.376-.164-.681-.387-.681z" class="cls-5" transform="translate(-96.8 -105.51)"/>
                <path id="Rectangle_670" d="M0 0H12.38V20.324H0z" class="cls-9" transform="rotate(180 40.69 44.272)"/>
                <rect id="Rectangle_671" width="3.726" height="20.324" class="cls-5" rx="1.21" transform="translate(79.654 68.225)"/>
                <path id="Rectangle_672" d="M0 0H12.38V20.324H0z" class="cls-9" transform="rotate(180 38.61 44.272)"/>
                <rect id="Rectangle_673" width="3.726" height="20.324" class="cls-4" rx="1.21" transform="translate(75.483 68.225)"/>
                <path id="Path_4554" d="M105.1 171.28h10.684l-.851 20.324H105.1z" class="cls-9" transform="translate(-43.435 -103.055)"/>
                <path id="Path_4555" d="M122.908 171.28h-2.494a.78.78 0 0 0-.651.821L119 190.783c0 .452.241.821.587.821h2.494a.78.78 0 0 0 .651-.821l.78-18.682c0-.451-.264-.821-.604-.821z" class="cls-5" transform="translate(-49.179 -103.055)"/>
                <path id="Rectangle_674" d="M0 0H8.631V21.844H0z" class="cls-9" transform="rotate(180 30.137 44.275)"/>
                <rect id="Rectangle_675" width="2.599" height="21.844" class="cls-5" rx="1.05" transform="translate(59.066 66.699)"/>
                <path id="Rectangle_676" d="M0 0H9.511V24.074H0z" class="cls-9" transform="rotate(180 26.983 44.275)"/>
                <rect id="Rectangle_677" width="2.863" height="24.074" class="cls-8" rx="1.16" transform="translate(52.636 64.47)"/>
                <path id="Path_4556" d="M71.62 164.88h8.208l-.651 24.079H71.62z" class="cls-9" transform="translate(-29.598 -100.41)"/>
                <path id="Path_4557" d="M85.3 164.88h-1.915c-.264 0-.487.434-.5.974l-.585 22.131c0 .534.188.974.452.974h1.9c.264 0 .487-.44.5-.974l.587-22.131c.023-.54-.177-.974-.439-.974z" class="cls-5" transform="translate(-34.012 -100.41)"/>
                <path id="Rectangle_678" d="M0 0H16.329V24.074H0z" class="cls-9" transform="rotate(180 34.015 61.994)"/>
                <rect id="Rectangle_679" width="4.917" height="24.074" class="cls-5" rx="1.52" transform="translate(65.743 99.908)"/>
                <path id="Rectangle_680" d="M0 0H16.329V24.074H0z" class="cls-9" transform="rotate(180 31.264 61.994)"/>
                <rect id="Rectangle_681" width="4.917" height="24.074" class="cls-4" rx="1.52" transform="translate(60.251 99.908)"/>
                <path id="Path_4558" d="M71.62 225.28h14.093l-1.121 24.079H71.62z" class="cls-9" transform="translate(-29.598 -125.372)"/>
                <path id="Path_4559" d="M95.085 225.28h-3.291a.951.951 0 0 0-.857.974L89.9 248.385a.863.863 0 0 0 .769.974h3.292a.962.962 0 0 0 .857-.974l1.033-22.131a.857.857 0 0 0-.769-.974z" class="cls-5" transform="translate(-37.152 -125.372)"/>
                <path id="Rectangle_682" d="M0 0H12.38V20.324H0z" class="cls-9" transform="rotate(180 69.797 61.991)"/>
                <rect id="Rectangle_683" width="3.726" height="20.324" class="cls-5" rx="1.21" transform="translate(137.864 103.663)"/>
                <path id="Rectangle_684" d="M0 0H12.38V20.324H0z" class="cls-9" transform="rotate(180 67.712 61.991)"/>
                <rect id="Rectangle_685" width="3.726" height="20.324" class="cls-4" rx="1.21" transform="translate(133.698 103.663)"/>
                <path id="Path_4560" d="M204.31 231.68h10.684l-.85 20.32h-9.834z" class="cls-9" transform="translate(-84.435 -128.017)"/>
                <path id="Path_4561" d="M222.105 231.68h-2.494c-.34 0-.628.37-.651.821l-.78 18.681c0 .452.241.821.587.821h2.5c.34 0 .628-.37.645-.821l.788-18.682c.01-.45-.254-.82-.595-.82z" class="cls-5" transform="translate(-90.167 -128.017)"/>
                <path id="Rectangle_686" d="M0 0H12.38V20.324H0z" class="cls-9" transform="rotate(180 61.815 61.991)"/>
                <rect id="Rectangle_687" width="3.726" height="20.324" class="cls-5" rx="1.21" transform="translate(121.899 103.663)"/>
                <path id="Rectangle_688" d="M0 0H12.38V20.324H0z" class="cls-9" transform="rotate(180 59.732 61.991)"/>
                <rect id="Rectangle_689" width="3.726" height="20.324" class="cls-4" rx="1.21" transform="translate(117.733 103.663)"/>
                <path id="Path_4562" d="M177.11 231.68h10.678l-.844 20.32h-9.834z" class="cls-9" transform="translate(-73.194 -128.017)"/>
                <path id="Path_4563" d="M194.913 231.68h-2.5c-.34 0-.628.37-.645.821L191 251.183c0 .452.246.821.587.821h2.494c.34 0 .628-.37.651-.821l.78-18.681c0-.452-.258-.822-.599-.822z" class="cls-5" transform="translate(-78.935 -128.017)"/>
                <path id="Rectangle_690" d="M0 0H8.631V21.844H0z" class="cls-9" transform="rotate(180 48.279 61.994)"/>
                <rect id="Rectangle_691" width="2.599" height="21.844" class="cls-5" rx="1.05" transform="translate(95.355 102.138)"/>
                <path id="Rectangle_692" d="M0 0H9.511V24.074H0z" class="cls-9" transform="rotate(180 45.125 61.994)"/>
                <rect id="Rectangle_693" width="2.863" height="24.074" class="cls-8" rx="1.16" transform="translate(88.925 99.908)"/>
                <path id="Path_4564" d="M133.46 225.28h8.208l-.651 24.079h-7.557z" class="cls-9" transform="translate(-55.155 -125.372)"/>
                <path id="Path_4565" d="M147.148 225.28h-1.913c-.258 0-.487.434-.5.974l-.587 22.131c0 .534.182.974.446.974h1.919c.258 0 .481-.44.5-.974l.587-22.131c-.018-.554-.194-.974-.452-.974z" class="cls-5" transform="translate(-59.573 -125.372)"/>
                <path id="Rectangle_694" d="M0 0H10.461V24.074H0z" class="cls-9" transform="rotate(180 29.34 96.047)"/>
                <rect id="Rectangle_695" width="3.151" height="24.074" class="cls-5" rx="1.21" transform="translate(57.218 168.016)"/>
                <path id="Rectangle_696" d="M0 0H10.461V24.074H0z" class="cls-9" transform="rotate(180 27.582 96.047)"/>
                <rect id="Rectangle_697" width="3.151" height="24.074" class="cls-4" rx="1.21" transform="translate(53.698 168.016)"/>
                <path id="Path_4566" d="M71.62 341.37h9.024l-.716 24.074H71.62z" class="cls-9" transform="translate(-29.598 -173.348)"/>
                <path id="Path_4567" d="M86.661 341.36h-2.112c-.287 0-.534.44-.552.974l-.657 22.131c0 .54.205.974.493.974h2.106c.287 0 .534-.434.552-.974l.657-22.143c.017-.522-.205-.962-.487-.962z" class="cls-5" transform="translate(-34.442 -173.344)"/>
                <path id="Rectangle_698" d="M0 0H10.907V20.324H0z" class="cls-9" transform="rotate(180 73.326 96.047)"/>
                <rect id="Rectangle_699" width="3.286" height="20.324" class="cls-5" rx="1.14" transform="translate(145.128 171.771)"/>
                <path id="Rectangle_700" d="M0 0H10.907V20.324H0z" class="cls-9" transform="rotate(180 71.49 96.047)"/>
                <rect id="Rectangle_701" width="3.286" height="20.324" class="cls-4" rx="1.14" transform="translate(141.455 171.771)"/>
                <path id="Path_4568" d="M220.34 347.76h9.411L229 368.084h-8.66z" class="cls-9" transform="translate(-91.06 -175.989)"/>
                <path id="Path_4569" d="M236.022 347.76h-2.2c-.3 0-.587.37-.587.821l-.675 18.681c0 .452.211.821.51.821h2.2c.3 0 .557-.37.587-.821l.686-18.681c.007-.451-.204-.821-.521-.821z" class="cls-5" transform="translate(-96.11 -175.989)"/>
                <path id="Rectangle_702" d="M0 0H10.907V20.324H0z" class="cls-9" transform="rotate(180 66.291 96.047)"/>
                <rect id="Rectangle_703" width="3.286" height="20.324" class="cls-5" rx="1.14" transform="translate(131.058 171.771)"/>
                <path id="Rectangle_704" d="M0 0H10.907V20.324H0z" class="cls-9" transform="rotate(180 64.455 96.047)"/>
                <rect id="Rectangle_705" width="3.286" height="20.324" class="cls-4" rx="1.14" transform="translate(127.385 171.771)"/>
                <path id="Path_4570" d="M196.36 347.76h9.411l-.745 20.324h-8.666z" class="cls-9" transform="translate(-81.15 -175.989)"/>
                <path id="Path_4571" d="M212.042 347.76h-2.2c-.3 0-.557.37-.587.821l-.675 18.681c0 .452.211.821.51.821h2.2c.3 0 .587-.37.587-.821l.686-18.681c.007-.451-.216-.821-.521-.821z" class="cls-5" transform="translate(-86.2 -175.989)"/>
                <path id="Rectangle_706" d="M0 0H7.604V21.844H0z" class="cls-9" transform="rotate(180 59.04 96.047)"/>
                <path id="Path_4572" d="M200.017 345.17h1.132a.587.587 0 0 1 .587.587v20.688a.587.587 0 0 1-.587.587h-1.132a.587.587 0 0 1-.587-.587v-20.7a.587.587 0 0 1 .587-.575z" class="cls-5" transform="translate(-82.418 -174.919)"/>
                <path id="Rectangle_707" d="M0 0H8.379V24.074H0z" class="cls-9" transform="rotate(180 56.261 96.047)"/>
                <rect id="Rectangle_708" width="2.523" height="24.074" class="cls-8" rx="1.09" transform="translate(111.35 168.016)"/>
                <path id="Path_4573" d="M173.84 341.37h7.234l-.575 24.074h-6.659z" class="cls-9" transform="translate(-71.843 -173.348)"/>
                <path id="Path_4574" d="M185.888 341.36H184.2c-.229 0-.428.44-.44.974l-.528 22.131c0 .54.164.974.393.974h1.69c.229 0 .428-.434.44-.974l.528-22.131c.01-.534-.166-.974-.395-.974z" class="cls-5" transform="translate(-75.723 -173.344)"/>
                <path id="Rectangle_709" d="M0 0H16.329V24.074H0z" class="cls-9" transform="rotate(180 55.751 79.713)"/>
                <rect id="Rectangle_710" width="4.917" height="24.074" class="cls-5" rx="1.52" transform="translate(109.22 135.347)"/>
                <path id="Rectangle_711" d="M0 0H16.329V24.074H0z" class="cls-9" transform="rotate(180 53.005 79.713)"/>
                <rect id="Rectangle_712" width="4.917" height="24.074" class="cls-4" rx="1.52" transform="translate(103.722 135.347)"/>
                <path id="Path_4575" d="M145.72 285.68h14.087l-1.121 24.079H145.72z" class="cls-9" transform="translate(-60.222 -150.333)"/>
                <path id="Path_4576" d="M169.181 285.68h-3.292a.956.956 0 0 0-.857.974l-1.039 22.131a.857.857 0 0 0 .769.974h3.292a.962.962 0 0 0 .857-.974l1.027-22.131a.857.857 0 0 0-.757-.974z" class="cls-5" transform="translate(-67.77 -150.333)"/>
                <path id="Rectangle_713" d="M0 0H10.004V20.324H0z" class="cls-9" transform="rotate(180 65.103 79.71)"/>
                <rect id="Rectangle_714" width="3.01" height="20.324" class="cls-5" rx="1.09" transform="translate(128.811 139.102)"/>
                <path id="Rectangle_715" d="M0 0H10.004V20.324H0z" class="cls-9" transform="rotate(180 63.42 79.71)"/>
                <rect id="Rectangle_716" width="3.01" height="20.324" class="cls-4" rx="1.09" transform="translate(125.443 139.102)"/>
                <path id="Path_4577" d="M194.76 292.08h8.64l-.69 20.32h-7.95z" class="cls-9" transform="translate(-80.488 -152.978)"/>
                <path id="Path_4578" d="M209.157 292.08h-2.018c-.276 0-.51.37-.522.821L206 311.583c0 .452.194.821.469.821h2.018c.276 0 .51-.37.522-.821l.634-18.681c.001-.452-.211-.822-.486-.822z" class="cls-5" transform="translate(-85.134 -152.978)"/>
                <path id="Rectangle_717" d="M0 0H8.285V16.833H0z" class="cls-9" transform="rotate(180 72.59 79.713)"/>
                <rect id="Rectangle_718" width="2.494" height="16.833" class="cls-5" rx=".9" transform="translate(144.019 142.587)"/>
                <path id="Rectangle_719" d="M0 0H8.285V16.833H0z" class="cls-9" transform="rotate(180 71.194 79.713)"/>
                <rect id="Rectangle_720" width="2.494" height="16.833" class="cls-4" rx=".9" transform="translate(141.232 142.587)"/>
                <path id="Path_4579" d="M224.94 298.02h7.152l-.569 16.839h-6.583z" class="cls-9" transform="translate(-92.961 -155.433)"/>
                <path id="Path_4580" d="M236.859 298h-1.672c-.229 0-.422.305-.434.681l-.522 15.478c0 .376.158.681.387.681h1.672c.223 0 .422-.305.434-.681l.522-15.478c.012-.364-.164-.681-.387-.681z" class="cls-5" transform="translate(-96.8 -155.425)"/>
                <path id="Rectangle_721" d="M0 0H12.38V20.324H0z" class="cls-9" transform="rotate(180 40.69 79.71)"/>
                <rect id="Rectangle_722" width="3.726" height="20.324" class="cls-5" rx="1.21" transform="translate(79.654 139.102)"/>
                <path id="Rectangle_723" d="M0 0H12.38V20.324H0z" class="cls-9" transform="rotate(180 38.61 79.71)"/>
                <rect id="Rectangle_724" width="3.726" height="20.324" class="cls-4" rx="1.21" transform="translate(75.483 139.102)"/>
                <path id="Path_4581" d="M105.1 292.08h10.684l-.851 20.324H105.1z" class="cls-9" transform="translate(-43.435 -152.978)"/>
                <path id="Path_4582" d="M122.908 292.08h-2.494a.78.78 0 0 0-.651.821L119 311.583c0 .452.241.821.587.821h2.494a.78.78 0 0 0 .651-.821l.78-18.681c0-.452-.264-.822-.604-.822z" class="cls-5" transform="translate(-49.179 -152.978)"/>
                <path id="Rectangle_725" d="M0 0H8.631V21.844H0z" class="cls-9" transform="rotate(180 30.137 79.713)"/>
                <rect id="Rectangle_726" width="2.599" height="21.844" class="cls-5" rx="1.05" transform="translate(59.066 137.576)"/>
                <path id="Rectangle_727" d="M0 0H9.511V24.074H0z" class="cls-9" transform="rotate(180 26.983 79.713)"/>
                <rect id="Rectangle_728" width="2.863" height="24.074" class="cls-8" rx="1.16" transform="translate(52.636 135.347)"/>
                <path id="Path_4583" d="M71.62 285.68h8.208l-.651 24.079H71.62z" class="cls-9" transform="translate(-29.598 -150.333)"/>
                <path id="Path_4584" d="M85.3 285.68h-1.915c-.264 0-.487.44-.5.974l-.585 22.131c0 .534.188.974.452.974h1.9c.264 0 .487-.44.5-.974l.587-22.131c.023-.534-.177-.974-.439-.974z" class="cls-5" transform="translate(-34.012 -150.333)"/>
                <path id="Rectangle_729" d="M0 0H12.104V26.004H0z" class="cls-9" transform="rotate(180 51.33 96.047)"/>
                <rect id="Rectangle_730" width="3.644" height="26.004" class="cls-5" rx="1.36" transform="translate(100.97 166.091)"/>
                <path id="Rectangle_731" d="M0 0H12.104V26.004H0z" class="cls-9" transform="rotate(180 49.294 96.047)"/>
                <rect id="Rectangle_732" width="3.644" height="26.004" class="cls-4" rx="1.36" transform="translate(96.893 166.091)"/>
                <path id="Path_4585" d="M142.11 338.08h10.444l-.827 26h-9.617z" class="cls-9" transform="translate(-58.73 -171.989)"/>
                <path id="Path_4586" d="M159.513 338.08h-2.441c-.334 0-.622.469-.64 1.05l-.763 23.9c0 .587.235 1.05.587 1.05h2.444c.334 0 .587-.469.634-1.05l.763-23.9c.003-.581-.255-1.05-.584-1.05z" class="cls-5" transform="translate(-64.334 -171.989)"/>
                <path id="Rectangle_733" d="M0 0H10.461V22.636H0z" class="cls-9" transform="rotate(180 41.484 96.047)"/>
                <rect id="Rectangle_734" width="3.151" height="22.636" class="cls-5" rx="1.18" transform="translate(81.509 169.459)"/>
                <path id="Rectangle_735" d="M0 0H10.461V22.636H0z" class="cls-9" transform="rotate(180 39.724 96.047)"/>
                <rect id="Rectangle_736" width="3.151" height="22.636" class="cls-4" rx="1.18" transform="translate(77.988 169.459)"/>
                <path id="Path_4587" d="M113.02 343.82h9.024l-.716 22.636h-8.308z" class="cls-9" transform="translate(-46.708 -174.361)"/>
                <path id="Path_4588" d="M128.055 343.82h-2.106c-.287 0-.534.411-.552.915l-.657 20.805c0 .5.2.915.487.915h2.112c.288 0 .534-.411.546-.915l.663-20.805c.017-.504-.205-.915-.493-.915z" class="cls-5" transform="translate(-51.551 -174.361)"/>
            </g>
            <g id="freepik--Shadow--inject-310" transform="translate(32.921 205.309)">
                <ellipse id="freepik--path--inject-310" cx="113.761" cy="6.642" class="cls-5" rx="113.761" ry="6.642"/>
            </g>
            <g id="freepik--Books--inject-310" transform="translate(47.286 150.279)">
                <path id="Path_4589" d="M170.387 402.994a1.173 1.173 0 0 1-1.173 1.537H87.482c-2.552 0-2.552-16.622 0-16.622h81.755a1.173 1.173 0 0 1 1.173 1.531c-1.021 3.169-1.021 10.391-.023 13.554z" class="cls-10" transform="translate(-82.648 -342.86)"/>
                <path id="Path_4590" d="M193.964 391.22h-49.6c-1.954 0-1.954 12.738 0 12.738h49.6a32.545 32.545 0 0 1 0-12.738z" class="cls-11" transform="translate(-106.343 -344.229)"/>
                <path id="Path_4591" d="M118.2 402.994a1.173 1.173 0 0 1-1.173 1.537H87.482c-2.552 0-2.552-16.622 0-16.622h29.571a1.173 1.173 0 0 1 1.173 1.531c-1.021 3.169-1.021 10.391-.026 13.554z" class="cls-12" transform="translate(-82.648 -342.86)"/>
                <path id="Path_4592" d="M104.2 387.91h-6.748c-2.552 0-2.552 16.622 0 16.622h6.748c-2.524 0-2.524-16.622 0-16.622z" class="cls-10" transform="translate(-86.768 -342.861)"/>
                <path id="Path_4593" d="M116.164 387.91h-2.652c-2.552 0-2.552 16.622 0 16.622h2.652c-2.57 0-2.57-16.622 0-16.622z" class="cls-10" transform="translate(-93.406 -342.861)"/>
                <path id="Path_4594" d="M80.661 376.005c-.282.681.411 1.379 1.349 1.379h73.506c3 0 3-14.944 0-14.944H82c-.939 0-1.631.692-1.349 1.379 1.178 2.845 1.178 9.341.01 12.186z" class="cls-13" transform="translate(-80.592 -332.335)"/>
                <path id="Path_4595" d="M80.661 376.005c-.282.681.411 1.379 1.349 1.379h36.043c3 0 3-14.944 0-14.944H82c-.939 0-1.631.692-1.349 1.379 1.178 2.845 1.178 9.341.01 12.186z" class="cls-12" transform="translate(-80.592 -332.335)"/>
                <path id="Path_4596" d="M80.93 365.41h35.791c2.294 0 2.294 11.453 0 11.453H80.93a22.548 22.548 0 0 0 0-11.453z" class="cls-11" transform="translate(-80.732 -333.562)"/>
                <path id="Path_4597" d="M162.159 367.2c-.223-.663.422-1.308 1.314-1.308h20.577c2.183 0 2.183 10.89 0 10.89h-20.577c-.892 0-1.537-.639-1.314-1.3a16.487 16.487 0 0 0 0-8.282z" class="cls-14" transform="translate(-114.283 -333.761)"/>
                <path id="Path_4598" d="M352.615 361.813a1.367 1.367 0 0 1-1.215 1.79h-86.366c-2.7 0-2.7-19.362 0-19.362H351.4a1.367 1.367 0 0 1 1.214 1.76c-1.049 3.725-1.049 12.133.001 15.812z" class="cls-10" transform="translate(-155.98 -324.813)"/>
                <path id="Path_4599" d="M352.615 361.813a1.367 1.367 0 0 1-1.215 1.79h-86.366c-2.7 0-2.7-19.362 0-19.362H351.4a1.367 1.367 0 0 1 1.214 1.76c-1.049 3.725-1.049 12.133.001 15.812z" class="cls-15" transform="translate(-155.98 -324.813)"/>
                <path id="Path_4600" d="M377.53 348.12h-52.4c-2.065 0-2.065 14.821 0 14.821h52.4a41.119 41.119 0 0 1 0-14.821z" class="cls-11" transform="translate(-181.012 -326.417)"/>
                <path id="Path_4601" d="M297.486 361.813a1.367 1.367 0 0 1-1.215 1.79h-31.237c-2.7 0-2.7-19.362 0-19.362h31.238a1.367 1.367 0 0 1 1.214 1.76c-1.038 3.725-1.038 12.133 0 15.812z" class="cls-16" transform="translate(-155.98 -324.813)"/>
                <path id="Path_4602" d="M289.735 345.7a1.044 1.044 0 0 0-.88-1.432h-11.911c-2.7 0-2.7 19.362 0 19.362h11.911a1.05 1.05 0 0 0 .88-1.437c-1.203-3.593-1.203-12.906 0-16.493z" class="cls-15" transform="translate(-160.902 -324.826)"/>
                <path id="Path_4603" d="M338.724 397.978A1.678 1.678 0 0 1 337 400.09h-89.736c-3.831 0-3.837-22.882 0-22.882h89.77a1.678 1.678 0 0 1 1.725 2.112c-1.531 4.359-1.525 14.304-.035 18.658z" class="cls-10" transform="translate(-148.284 -338.437)"/>
                <path id="Path_4604" d="M338.724 397.978A1.678 1.678 0 0 1 337 400.09h-89.736c-3.831 0-3.837-22.882 0-22.882h89.77a1.678 1.678 0 0 1 1.725 2.112c-1.531 4.359-1.525 14.304-.035 18.658z" class="cls-14" transform="translate(-148.284 -338.437)"/>
                <path id="Path_4605" d="M365.105 381.77H310.85c-2.934 0-2.934 17.532 0 17.532h54.261c-1.256-4.395-1.256-13.132-.006-17.532z" class="cls-11" transform="translate(-174.841 -340.323)"/>
                <path id="Path_4606" d="M280.585 398a1.672 1.672 0 0 1-1.719 2.112h-31.6c-3.831 0-3.837-22.883 0-22.883h31.6a1.678 1.678 0 0 1 1.725 2.112c-1.496 4.359-1.496 14.298-.006 18.659z" class="cls-16" transform="translate(-148.284 -338.445)"/>
                <path id="Path_4607" d="M267.662 378.031a.528.528 0 0 0-.5-.792h-5.369c-3.826 0-3.826 22.882 0 22.882h5.392a.528.528 0 0 0 .5-.792c-2.329-3.538-2.329-17.766-.023-21.298z" class="cls-15" transform="translate(-154.29 -338.45)"/>
                <path id="Path_4608" d="M281.942 378.027a.534.534 0 0 0-.5-.8h-5.369c-3.825 0-3.825 22.882 0 22.882h5.369a.528.528 0 0 0 .5-.792c-2.306-3.53-2.306-17.764 0-21.29z" class="cls-15" transform="translate(-160.191 -338.446)"/>
                <path id="Path_4609" d="M402.872 320.007a14.262 14.262 0 0 0-1.132-4.729l.528-.258a14.844 14.844 0 0 1 1.173 4.929z" class="cls-10" transform="translate(-213.313 -312.738)"/>
                <path id="Rectangle_737" d="M0 0H14.574V0.587H0z" class="cls-10" transform="translate(171.306)"/>
                <path id="Path_4610" d="M235.462 330.419c-.3.8.434 1.6 1.426 1.6h93.56c3.163 0 3.163-17.391 0-17.391h-93.56c-.992 0-1.725.81-1.426 1.608 1.232 3.305 1.232 10.864 0 14.183z" class="cls-10" transform="translate(-144.567 -312.576)"/>
                <path id="Path_4611" d="M235.462 330.419c-.3.8.434 1.6 1.426 1.6h53.979c3.168 0 3.168-17.391 0-17.391h-53.979c-.992 0-1.725.81-1.426 1.608 1.232 3.305 1.232 10.864 0 14.183z" class="cls-12" transform="translate(-144.567 -312.576)"/>
                <path id="Path_4612" d="M235.75 318.1h53.7c2.429 0 2.429 13.325 0 13.325h-53.7a28.883 28.883 0 0 0 0-13.325z" class="cls-11" transform="translate(-144.714 -314.01)"/>
                <path id="Path_4613" d="M348.657 320.174a1.269 1.269 0 0 1 1.385-1.514h21.744c2.306 0 2.306 12.667 0 12.667h-21.744a1.271 1.271 0 0 1-1.385-1.52 20.414 20.414 0 0 0 0-9.633z" class="cls-14" transform="translate(-191.356 -314.242)"/>
            </g>
            <g id="freepik--Character--inject-310" transform="translate(101.624 17.997)">
                <path id="Path_4614" d="M205.551 92.906c-2.646 2.834-9.106 0-10.092 7.8-1.068 8.414 2.981 12.456-2.247 14.668-8.214 3.432-14.081 17.15-2.675 22.3s35.7-.246 32.962-10.731-2.194-16.112 1.033-21.052c4.254-6.53 3.344-14.921-.123-17.96-5.399-4.753-12.856-1.479-18.858 4.975z" class="cls-13" transform="translate(-177.742 -85.673)"/>
                <path id="Path_4615" d="M244.53 128.251a.183.183 0 0 1-.029-.364c2.265-.311 3.614-.868 4.248-1.76.786-1.109.446-2.758 0-4.846-.692-3.4-1.649-8.05 1.4-13.929 3.7-7.129 2.347-14.944-1.121-17.5a.182.182 0 0 1-.041-.252.188.188 0 0 1 .258-.041c3.614 2.646 5.011 10.673 1.226 17.966-2.986 5.762-2.048 10.344-1.367 13.688.446 2.171.8 3.89-.082 5.128-.692.98-2.118 1.584-4.488 1.913z" class="cls-13" transform="translate(-202.605 -87.264)"/>
                <path id="Path_4616" d="M193.346 124.567a9.391 9.391 0 0 1-1.109-.07.183.183 0 1 1 .047-.364 4.542 4.542 0 0 0 3.69-.757c1.526-1.344 1.549-4.154 1.567-7.41 0-3.685.053-7.856 2.441-10.7a.183.183 0 0 1 .282.235c-2.306 2.746-2.347 6.847-2.347 10.473 0 3.338-.041 6.225-1.69 7.68a4.189 4.189 0 0 1-2.881.913z" class="cls-13" transform="translate(-181.004 -93.742)"/>
                <path id="Path_4617" d="M283.624 310.928c-3.914-.047-5.451-.293-7.252-.264s-2.23.346-4.107.264c-1.267-.053-1.273-1.561-.786-2.593.381-.81.851-1.625 1.285-2.634l4.964.364c.669 1.889 3.99 2.7 6.9 3.368 1.156.274.563 1.512-1.004 1.495z" class="cls-10" transform="translate(-213.695 -176.604)"/>
                <path id="Path_4618" d="M236.386 191.128s13.131 11.295 26.4 23.276c5.609 5.075-6.155 43.77-6.155 43.77-.246.827-4.623-.352-5.281-1 0 0-.669-30.035 2.177-36.084C224.1 213.646 219.5 199.2 219.5 199.2l2.112-8.965z" class="cls-13" transform="translate(-192.337 -128.883)"/>
                <path id="Path_4619" d="M222.81 209.588a31.314 31.314 0 0 0 5.8 6.149c2.934-3.432 2.112-8.977 2.112-8.977z" class="cls-12" transform="translate(-193.705 -135.715)"/>
                <path id="Path_4620" d="M279.616 302.315c-.082.587-.223 1.625-.3 2.394a.493.493 0 0 1-.5.446 31.482 31.482 0 0 1-5.816-1.01.44.44 0 0 1-.323-.417l-.041-2.142a.5.5 0 0 1 .546-.5l6.055.733a.428.428 0 0 1 .375.493z" class="cls-13" transform="translate(-214.298 -174.697)"/>
                <path id="Path_4621" d="M279.616 302.315c-.082.587-.223 1.625-.3 2.394a.493.493 0 0 1-.5.446 31.482 31.482 0 0 1-5.816-1.01.44.44 0 0 1-.323-.417l-.041-2.142a.5.5 0 0 1 .546-.5l6.055.733a.428.428 0 0 1 .375.493z" class="cls-17" transform="translate(-214.298 -174.697)"/>
                <path id="Path_4622" d="M185.681 357.146c-3.978 0-5.281-1.5-7.5-1.907-1.878-.352-2.376-.188-3.89-.452-1.267-.223-1.367-1.091-.587-2.376a17.881 17.881 0 0 0 1.291-2.781l6.032.4c.628 1.613 2.077 4.893 4.289 5.281 2.079.403 1.95 1.835.365 1.835z" class="cls-10" transform="translate(-173.204 -194.759)"/>
                <path id="Path_4623" d="M217.528 190.836s-13.876 24.672-19.462 39.933c-5.866 16.031-15.207 42.245-15.882 53.131-1 .475-4.271.293-6.032-.4 0 0-1.631-37.551 9.663-52.594 2.693-32.217 7.164-37.369 11.916-41.294z" class="cls-13" transform="translate(-174.389 -128.627)"/>
                <path id="Path_4624" d="M182.593 345.8a15.9 15.9 0 0 0-.059 2.235.493.493 0 0 1-.458.522 22.633 22.633 0 0 1-6.372-.763.434.434 0 0 1-.329-.411l-.076-2.1a.5.5 0 0 1 .534-.5l6.36.546a.434.434 0 0 1 .4.475z" class="cls-13" transform="translate(-174.07 -192.754)"/>
                <path id="Path_4625" d="M182.593 345.8a15.9 15.9 0 0 0-.059 2.235.493.493 0 0 1-.458.522 22.633 22.633 0 0 1-6.372-.763.434.434 0 0 1-.329-.411l-.076-2.1a.5.5 0 0 1 .534-.5l6.36.546a.434.434 0 0 1 .4.475z" class="cls-17" transform="translate(-174.07 -192.754)"/>
                <path id="Path_4626" d="M248.643 149.283c.587 1.109 1.22 2.347 1.866 3.52s1.3 2.347 1.954 3.491c1.326 2.306 2.711 4.565 4.2 6.695l-.8-.71a7 7 0 0 0 1.924.95 16.486 16.486 0 0 0 2.546.634c.9.164 1.842.276 2.8.364s1.96.141 2.875.2h.123a1.643 1.643 0 0 1 .428 3.2 22.361 22.361 0 0 1-3.209.81 24.4 24.4 0 0 1-3.309.358 17.968 17.968 0 0 1-3.52-.211 11.67 11.67 0 0 1-3.755-1.244 2.248 2.248 0 0 1-.64-.522l-.158-.188c-.933-1.115-1.842-2.253-2.676-3.421s-1.649-2.347-2.406-3.52-1.49-2.423-2.183-3.661-1.349-2.464-1.977-3.82a3.286 3.286 0 0 1 5.867-2.934z" class="cls-18" transform="translate(-201.824 -111.276)"/>
                <path id="Path_4627" d="M245.148 142.38c3.831 1.261 4.453 2.981 6.554 9.329-1.4 3.808-7.041 5.738-7.041 5.738s-6.661-10.854.487-15.067z" class="cls-10" transform="translate(-201.569 -109.109)"/>
                <path id="Path_4628" d="M237.754 148.949a85.549 85.549 0 0 1-1.889 9.528c-.88 4.178-.892 12.321-2.3 12.75-2.7 1.338-9.476.821-21.292-2.828.376-6.1 1.085-10.244-.945-24.244a5.011 5.011 0 0 1 5.1-5.867c.857 0 1.76.07 2.681.153a67.762 67.762 0 0 1 9.669 1.285c1.039.235 2.112.51 3.133.792a8.085 8.085 0 0 1 5.838 8.431z" class="cls-10" transform="translate(-188.929 -107.416)"/>
                <path id="Path_4629" d="M182.671 191.865l1.173-1.074a1.848 1.848 0 0 0 .587-1.6l-.323-2.8a3.485 3.485 0 0 0-1.76-2.652l-.587-.334a11.849 11.849 0 0 0-3.145 4.97l-.4.915a1.549 1.549 0 0 0 .745 2.077l1.8.821a1.79 1.79 0 0 0 1.91-.323z" class="cls-18" transform="translate(-175.211 -126.065)"/>
                <path id="Path_4630" d="M285.906 173.3l-1.5-.587a1.854 1.854 0 0 0-1.7.2l-2.347 1.572a3.468 3.468 0 0 0-1.531 2.8v.7a11.849 11.849 0 0 0 5.867.5l1-.059a1.555 1.555 0 0 0 1.5-1.619l-.094-1.977a1.76 1.76 0 0 0-1.195-1.53z" class="cls-18" transform="translate(-216.856 -121.596)"/>
                <path id="Path_4631" d="M203.015 147.007l-.751.346-.821.376c-.546.264-1.085.54-1.625.821-1.085.587-2.142 1.173-3.18 1.79s-2.042 1.3-3.016 2a34.247 34.247 0 0 0-2.758 2.241l.387-.493a9.33 9.33 0 0 0-.751 1.326c-.258.534-.5 1.115-.733 1.707-.469 1.173-.927 2.429-1.349 3.691s-.851 2.541-1.267 3.82l-1.267 3.855a1.643 1.643 0 0 1-3.2-.587c.065-1.414.194-2.787.352-4.172s.358-2.764.587-4.148a42.437 42.437 0 0 1 .909-4.183c.188-.7.393-1.408.651-2.147a13.494 13.494 0 0 1 1.044-2.347 2.49 2.49 0 0 1 .252-.346l.141-.147a33.138 33.138 0 0 1 3.1-3 37.245 37.245 0 0 1 3.391-2.564 38.943 38.943 0 0 1 3.608-2.171c.622-.329 1.25-.64 1.889-.945.323-.147.64-.3.974-.44s.64-.264 1.056-.422a3.28 3.28 0 1 1 2.535 6.05z" class="cls-18" transform="translate(-177.119 -108.379)"/>
                <path id="Path_4632" d="M218.731 139.8c-2.875-2.059-4.623-2.282-11.582.739-.827 4.377 1.883 10.8 1.883 10.8s9.259-4.816 9.699-11.539z" class="cls-10" transform="translate(-187.168 -107.408)"/>
                <path id="Path_4633" d="M227.156 120.11c.428 3.221.7 9.059-1.6 10.866 0 0 3-.053 8.748 4.647 2.153-2.347.921-3.362.921-3.362-3.421-1.3-3.18-3.884-2.435-6.249z" class="cls-18" transform="translate(-194.841 -99.905)"/>
                <path id="Path_4634" d="M232.147 141.62c-2.095 0-3.157 3.045-3.157 3.045s-5.034-4.013-5.721-6.835a21.121 21.121 0 0 0 1.96-.909s5.871 3.349 6.918 4.699z" class="cls-6" transform="translate(-193.895 -106.852)"/>
                <path id="Path_4635" d="M241.3 142.85a3.9 3.9 0 0 1 2.106 2.934c1.074-4.471-1.021-5.175-1.021-5.175a2.64 2.64 0 0 0-1.831-.516 2.224 2.224 0 0 1 .745 2.758z" class="cls-6" transform="translate(-201.036 -108.158)"/>
                <path id="Path_4636" d="M232.069 124.21l3.333 3.52a9.647 9.647 0 0 0-.393 1.69c-1.314-.37-3.051-2.077-3.11-3.52a4.635 4.635 0 0 1 .17-1.69z" class="cls-12" transform="translate(-197.454 -101.599)"/>
                <path id="Path_4637" d="M221.962 106.265c1.173 5.011 1.6 7.152 4.612 9.44 4.524 3.438 10.4 1.209 10.714-3.978.282-4.694-1.725-12.087-7.041-13.495a6.607 6.607 0 0 0-8.285 8.032z" class="cls-18" transform="translate(-193.262 -90.748)"/>
                <path id="Path_4638" d="M220.875 108.5c1.842-.9 3.8-5.345 1.173-7.446a8.75 8.75 0 0 0 6.942-1.954c2.992-2.347 7.4 3.479 5.949.059-2.089-4.929-8.384-6.161-14.081-2.065s-5.293 9.078.017 11.406z" class="cls-13" transform="translate(-191.195 -89.376)"/>
                <path id="Path_4639" d="M221.07 115.006a.094.094 0 0 1-.035-.176c1.467-.634 7.692-1.96 7.956-2.012a.088.088 0 0 1 .111.07.094.094 0 0 1-.07.106c-.065 0-6.454 1.379-7.927 2.007z" class="cls-6" transform="translate(-192.951 -96.89)"/>
                <path id="Path_4640" d="M232.6 112.845a2.605 2.605 0 0 0-1.983-.047 5.139 5.139 0 0 0 1.983.047z" class="cls-12" transform="translate(-196.932 -96.811)"/>
                <path id="Path_4641" d="M232.67 113.727a2.147 2.147 0 0 0-1.76.4 4.33 4.33 0 0 0 1.76-.4z" class="cls-12" transform="translate(-197.052 -97.248)"/>
                <path id="Path_4642" d="M235.845 112.292c.082.428.37.745.645.71s.428-.4.346-.833-.376-.739-.645-.71-.428.41-.346.833z" class="cls-13" transform="translate(-199.083 -96.329)"/>
                <path id="Path_4643" d="M244.624 111.341c.082.422.376.739.645.71s.428-.411.346-.833-.37-.745-.645-.71-.428.405-.346.833z" class="cls-13" transform="translate(-202.711 -95.936)"/>
                <path id="Path_4644" d="M245 110.282l.951-.422s-.364.863-.951.422z" class="cls-13" transform="translate(-202.875 -95.669)"/>
                <path id="Path_4645" fill="#ed893e" d="M243 113.32a12.85 12.85 0 0 0 1.866 2.646 1.76 1.76 0 0 1-1.461.381z" transform="translate(-202.049 -97.099)"/>
                <path id="Path_4646" d="M238.1 120.816a4.179 4.179 0 0 0 .71 0 .117.117 0 0 0 .1-.141.135.135 0 0 0-.147-.111 3.608 3.608 0 0 1-2.934-.98.123.123 0 0 0-.176 0 .129.129 0 0 0 0 .176 3.773 3.773 0 0 0 2.447 1.056z" class="cls-13" transform="translate(-198.999 -99.672)"/>
                <path id="Path_4647" d="M219.723 117.472a3.555 3.555 0 0 0 2.447 1.484c1.22.1 1.484-1.32.862-2.582-.557-1.132-1.866-2.558-2.934-2.065s-1.167 2.124-.375 3.163z" class="cls-18" transform="translate(-192.214 -97.466)"/>
                <path id="Path_4648" d="M232.859 106.454a.217.217 0 0 0 .17-.082 1.86 1.86 0 0 1 1.608-.71.235.235 0 0 0 .27-.211.282.282 0 0 0-.229-.288 2.347 2.347 0 0 0-2.042.874.264.264 0 0 0 .223.417z" class="cls-13" transform="translate(-197.745 -93.724)"/>
                <path id="Path_4649" d="M244.74 106.012a.235.235 0 0 0 .176-.053.246.246 0 0 0 0-.352 2.646 2.646 0 0 0-2.124-1 .229.229 0 0 0-.205.276.27.27 0 0 0 .282.229 2.106 2.106 0 0 1 1.678.8.252.252 0 0 0 .193.1z" class="cls-13" transform="translate(-201.876 -93.499)"/>
                <path id="Path_4650" d="M236.848 112.956c-1.238 0-2.312-1.314-2.429-3a3.755 3.755 0 0 1 .522-2.271 2.077 2.077 0 0 1 1.59-1.05c1.3-.088 2.435 1.256 2.558 3s-.833 3.227-2.118 3.315zm-.194-6.108h-.106a1.919 1.919 0 0 0-1.455.968 3.562 3.562 0 0 0-.493 2.159c.111 1.637 1.173 2.9 2.347 2.822s2.059-1.484 1.948-3.121-1.095-2.828-2.24-2.828z" class="cls-6" transform="translate(-198.496 -94.335)"/>
                <path id="Path_4651" d="M246.2 112.42c-1.238 0-2.318-1.308-2.435-2.992a3.8 3.8 0 0 1 .522-2.271 2.089 2.089 0 0 1 1.6-1.05c1.285-.088 2.435 1.256 2.552 2.992a3.8 3.8 0 0 1-.522 2.271 2.077 2.077 0 0 1-1.6 1.05zm-.2-6.131h-.111a1.919 1.919 0 0 0-1.455.968 3.643 3.643 0 0 0-.493 2.159c.111 1.584 1.109 2.822 2.253 2.822h.106a1.9 1.9 0 0 0 1.455-.968 3.591 3.591 0 0 0 .493-2.153c-.111-1.59-1.109-2.828-2.247-2.828z" class="cls-6" transform="translate(-202.357 -94.116)"/>
                <path id="Path_4652" d="M243.223 111.91a.094.094 0 0 1-.076-.047c-.223-.352-.874.029-.88.029a.088.088 0 0 1-.123-.029.094.094 0 0 1 0-.123c.035 0 .81-.481 1.127 0a.082.082 0 0 1-.029.123.065.065 0 0 1-.018.047z" class="cls-6" transform="translate(-201.685 -96.357)"/>
                <path id="Path_4653" d="M236.25 111.237l.945-.417s-.358.862-.945.417z" class="cls-13" transform="translate(-199.259 -96.066)"/>
            </g>
        </g>
    </g>
</svg>
