<svg xmlns="http://www.w3.org/2000/svg" width="327" height="378" viewBox="0 0 327 378">
    <defs>
        <clipPath id="clip-path">
            <path id="Rectangle_815" fill="none" d="M0 0H167.108V115.294H0z" transform="rotate(1.91 1.921 115.27)"/>
        </clipPath>
        <style>
            .cls-4{fill:#ebebeb}.cls-5{fill:#e6e6e6}.cls-6{fill:#f0f0f0}.cls-7{fill:#f5f5f5}.cls-18,.cls-19,.cls-8{fill:#fff}.cls-12,.cls-9{fill:#b70e77}.cls-14{opacity:.2}.cls-12,.cls-21{opacity:.3}.cls-18{opacity:.5}.cls-16{fill:#ffc3bd}.cls-17{fill:#263238}.cls-19{opacity:.4}.cls-23{fill:#e3bc9a}
        </style>
    </defs>
    <g id="Group_51" transform="translate(-.381)">
        <ellipse id="Ellipse_9" cx="163.5" cy="164" fill="#faf9f9" rx="163.5" ry="164" transform="translate(.381)"/>
        <text id="ЕКИП" fill="#252525" font-family="SegoeUI, Segoe UI" font-size="23px" transform="translate(195.381 372)">
            <tspan x="-58.601" y="0">ЕКИП</tspan>
        </text>
        <g id="Creation-rafiki" transform="translate(25.14 60.917)">
            <g id="freepik--background-complete--inject-470">
                <path id="Rectangle_772" d="M0 0H277.137V0.139H0z" class="cls-4" transform="translate(0 181.469)"/>
                <path id="Path_4774" d="M148.394 211.749H41.369a3.165 3.165 0 0 1-3.159-3.165V58.137A3.165 3.165 0 0 1 41.369 55h107.025a3.165 3.165 0 0 1 3.165 3.165v150.419a3.165 3.165 0 0 1-3.165 3.165zM41.369 55.111a3.026 3.026 0 0 0-3.021 3.026v150.447a3.026 3.026 0 0 0 3.021 3.026h107.025a3.032 3.032 0 0 0 3.026-3.026V58.137a3.032 3.032 0 0 0-3.026-3.026z" class="cls-4" transform="translate(-17.031 -55)"/>
                <path id="Path_4775" d="M364.7 211.749H257.665a3.17 3.17 0 0 1-3.165-3.165V58.137A3.17 3.17 0 0 1 257.665 55H364.7a3.165 3.165 0 0 1 3.154 3.137v150.447a3.165 3.165 0 0 1-3.154 3.165zM257.665 55.111a3.032 3.032 0 0 0-3.026 3.026v150.447a3.032 3.032 0 0 0 3.026 3.026H364.7a3.032 3.032 0 0 0 3.026-3.026V58.137a3.032 3.032 0 0 0-3.026-3.026z" class="cls-4" transform="translate(-113.437 -55)"/>
                <path id="Rectangle_773" d="M0 0H14.411V0.139H0z" class="cls-4" transform="translate(234.956 190.387)"/>
                <path id="Rectangle_774" d="M0 0H24.959V0.139H0z" class="cls-4" transform="translate(172.379 191.895)"/>
                <path id="Rectangle_775" d="M0 0H33.694V0.139H0z" class="cls-4" transform="translate(200.708 185.244)"/>
                <path id="Rectangle_776" d="M0 0H10.659V0.139H0z" class="cls-4" transform="translate(29.077 186.175)"/>
                <path id="Rectangle_777" d="M0 0H30.646V0.139H0z" class="cls-4" transform="translate(44.674 186.175)"/>
                <path id="Rectangle_778" d="M0 0H41.277V0.139H0z" class="cls-4" transform="translate(94.044 188.514)"/>
                <path id="Rectangle_779" d="M0 0H6.064V23.49H0z" class="cls-5" transform="translate(54.995 119.357)"/>
                <path id="Path_4776" d="M144.994 290.612h-43.927L98.03 263.12h43.926z" class="cls-6" transform="translate(-43.695 -147.765)"/>
                <path id="Path_4777" d="M148.389 290.612H103.8l-3.04-27.492h44.591z" class="cls-7" transform="translate(-44.911 -147.765)"/>
                <path id="Path_4778" d="M106.891 290.183l-2.561-23.163h41.11l2.56 23.163z" class="cls-8" transform="translate(-46.503 -149.503)"/>
                <path id="Path_4779" d="M121.27 289.083l-.1-.942c-.643-5.809 2.982-10.991 7.7-10.991l.1.942c.642 5.815-2.983 10.991-7.7 10.991z" class="cls-7" transform="translate(-53.976 -154.018)"/>
                <path id="Path_4780" d="M137.486 289.083l-.105-.942c-.643-5.809 2.988-10.991 7.7-10.991l.105.942c.642 5.815-2.986 10.991-7.7 10.991z" class="cls-7" transform="translate(-61.201 -154.018)"/>
                <path id="Path_4781" d="M153.706 289.083l-.105-.942c-.643-5.809 2.988-10.991 7.7-10.991l.105.942c.642 5.815-2.989 10.991-7.7 10.991z" class="cls-7" transform="translate(-68.431 -154.018)"/>
                <path id="Rectangle_780" d="M0 0H26.023V38.622H0z" class="cls-5" transform="translate(106.98 142.847)"/>
                <path id="Path_4782" d="M233.029 376.409h2.616v-7.449h-5.365z" class="cls-6" transform="translate(-102.642 -194.94)"/>
                <path id="Rectangle_781" d="M0 0H26.023V38.622H0z" class="cls-5" transform="translate(34.043 142.847)"/>
                <path id="Rectangle_782" d="M0 0H75.22V34.055H0z" class="cls-6" transform="translate(57.783 142.847)"/>
                <path id="Path_4783" d="M106.866 376.409h-2.616v-7.449h5.36z" class="cls-6" transform="translate(-46.467 -194.94)"/>
                <path id="Rectangle_783" d="M0 0H71.158V13.74H0z" class="cls-5" transform="translate(59.812 144.976)"/>
                <path id="Path_4784" d="M164.271 320.5h-9.495a15 15 0 0 1-10.9-4.69h31.289a15.021 15.021 0 0 1-10.894 4.69z" class="cls-6" transform="translate(-64.131 -171.249)"/>
                <path id="Rectangle_784" d="M0 0H71.158V13.74H0z" class="cls-5" transform="translate(59.812 160.939)"/>
                <path id="Path_4785" d="M164.271 349.289h-9.495a15 15 0 0 1-10.9-4.69h31.289a15.021 15.021 0 0 1-10.894 4.69z" class="cls-6" transform="translate(-64.131 -184.082)"/>
                <path id="Path_4786" d="M356.2 285.491h33.19l2.018-23.241h-33.19z" class="cls-5" transform="translate(-158.768 -147.377)"/>
                <path id="Path_4787" d="M353.1 285.491h33.19l2.018-23.241h-33.19z" class="cls-6" transform="translate(-157.386 -147.377)"/>
                <path id="Path_4788" d="M386.137 284.514l1.1-13.264h-23.204l-1.1 13.264z" class="cls-8" transform="translate(-161.768 -151.388)"/>
                <path id="Rectangle_785" d="M0 0H3.897V43.35H0z" class="cls-5" transform="rotate(180 92.084 90.734)"/>
                <path id="Rectangle_786" d="M0 0H2.705V43.35H0z" class="cls-6" transform="rotate(180 90.873 90.734)"/>
                <path id="Rectangle_787" d="M0 0H37.696V4.783H0z" class="cls-6" transform="translate(179.047 138.114)"/>
                <path id="Rectangle_788" d="M0 0H3.897V38.566H0z" class="cls-5" transform="rotate(180 109.649 90.734)"/>
                <path id="Rectangle_789" d="M0 0H2.705V38.566H0z" class="cls-6" transform="rotate(180 108.441 90.734)"/>
                <path id="Rectangle_790" d="M0 0H3.897V38.566H0z" class="cls-5" transform="rotate(180 123.511 90.735)"/>
                <path id="Rectangle_791" d="M0 0H2.705V38.566H0z" class="cls-6" transform="rotate(180 122.303 90.735)"/>
                <path id="Rectangle_792" d="M0 0H3.897V38.566H0z" class="cls-5" transform="rotate(180 104.406 90.734)"/>
                <path id="Rectangle_793" d="M0 0H2.705V38.566H0z" class="cls-6" transform="rotate(180 103.198 90.734)"/>
                <path id="Rectangle_794" d="M0 0H30.28V4.783H0z" class="cls-5" transform="rotate(180 123.511 71.452)"/>
                <path id="Path_4789" d="M265.283 356.13v1.646h-1.053l-.87 12.915h-12.827l-.87-12.915h-1.053v-1.646z" class="cls-5" transform="translate(-110.812 -189.222)"/>
                <path id="Path_4790" d="M237.97 286.337c-1.053-7.693-11.435-9.888-24.61-10.171-12.532-.266-16.551-4.706-16.551-4.706s.039 17.964 18.1 24.466c17.158 6.174 24.131-1.885 23.061-9.589z" class="cls-5" transform="translate(-87.723 -151.482)"/>
                <path id="Path_4791" d="M259.5 322.549c.222-3.165 5.271-8.979 17.421-6.335 8.791 1.907 12.055-2.644 12.055-2.644s-.815 12.854-14.029 16.717c-12.552 3.675-15.839-2.173-15.447-7.738z" class="cls-5" transform="translate(-115.651 -170.252)"/>
                <path id="Path_4792" d="M261.744 333.694a.488.488 0 0 0 .36-.166c.881-1.042.161-3.536-.837-6.989-1.28-4.434-2.877-9.938-1.524-13.94a56.034 56.034 0 0 1 2.611-6.175c1.912-4.035 3.558-7.521 2.184-11.157a.471.471 0 1 0-.876.333c1.23 3.265-.26 6.424-2.151 10.42a56.969 56.969 0 0 0-2.655 6.28c-1.447 4.279.194 9.977 1.508 14.5.776 2.688 1.58 5.465 1.025 6.125a.471.471 0 0 0 .355.77z" class="cls-5" transform="translate(-115.128 -161.936)"/>
                <path id="Rectangle_795" d="M0 0H53.809V96.771H0z" class="cls-5" transform="translate(186.058 3.353)"/>
                <path id="Rectangle_796" d="M0 0H53.809V96.771H0z" class="cls-7" transform="translate(188.359 3.353)"/>
                <path id="Rectangle_797" d="M0 0H89.149V45.561H0z" class="cls-8" transform="rotate(90 115.442 122.603)"/>
                <path id="Rectangle_798" d="M0 0H89.149V1.735H0z" class="cls-5" transform="rotate(90 115.439 122.6)"/>
                <path id="Rectangle_799" d="M0 0H50.395V13.957H0z" class="cls-7" transform="translate(190.06 58.991)"/>
                <path id="Rectangle_800" d="M0 0H53.809V96.771H0z" class="cls-5" transform="translate(108.36 3.353)"/>
                <path id="Rectangle_801" d="M0 0H53.809V96.771H0z" class="cls-7" transform="translate(110.655 3.353)"/>
                <path id="Rectangle_802" d="M0 0H89.149V45.561H0z" class="cls-8" transform="rotate(90 76.59 83.75)"/>
                <path id="Rectangle_803" d="M0 0H89.149V1.735H0z" class="cls-5" transform="rotate(90 76.587 83.748)"/>
                <path id="Rectangle_804" d="M0 0H50.395V13.957H0z" class="cls-7" transform="translate(112.362 58.991)"/>
                <path id="Rectangle_805" d="M0 0H53.809V96.771H0z" class="cls-5" transform="translate(30.662 3.353)"/>
                <path id="Rectangle_806" d="M0 0H53.809V96.771H0z" class="cls-7" transform="translate(32.957 3.353)"/>
                <path id="Rectangle_807" d="M0 0H89.149V45.561H0z" class="cls-8" transform="rotate(90 37.74 44.902)"/>
                <path id="Rectangle_808" d="M0 0H89.149V1.735H0z" class="cls-5" transform="rotate(90 37.738 44.899)"/>
                <path id="Rectangle_809" d="M0 0H50.395V13.957H0z" class="cls-7" transform="translate(34.664 58.991)"/>
            </g>
            <g id="freepik--Shadow--inject-470" transform="translate(31.1 193.951)">
                <ellipse id="freepik--path--inject-470" cx="107.468" cy="6.274" class="cls-6" rx="107.468" ry="6.274"/>
            </g>
            <g id="freepik--Painting--inject-470" transform="translate(47.801 5.297)">
                <path id="Rectangle_810" d="M0 0H174.657V124.651H0z" class="cls-9" transform="rotate(1.77 -178.707 191.154)"/>
                <path id="Rectangle_811" d="M0 0H174.657V124.651H0z" class="cls-9" transform="rotate(1.77 -112.107 126.378)"/>
                <path id="Rectangle_812" fill="#fff" d="M0 0H174.657V124.651H0z" opacity="0.8" transform="rotate(1.77 -112.107 126.378)"/>
                <path id="Rectangle_813" fill="#b70e77" d="M0 0H167.108V115.294H0z" opacity="0.2" transform="rotate(2.56 -180.545 215.293)"/>
                <path id="Path_4793" d="M350.956 89.456a4.839 4.839 0 0 1-3.27-8.4l16.628-15.231a4.835 4.835 0 1 1 6.535 7.128L354.22 88.187a4.817 4.817 0 0 1-3.265 1.269zm16.628-24.338a4.235 4.235 0 0 0-2.882 1.109l-16.629 15.231a4.3 4.3 0 0 0-.266 6.047 4.285 4.285 0 0 0 6.047.261l16.589-15.2a4.273 4.273 0 0 0-2.7-7.427z" class="cls-9" transform="translate(-202.078 -64.557)"/>
                <path id="Rectangle_814" d="M0 0H167.108V115.294H0z" class="cls-8" transform="rotate(1.91 -246.631 215.755)"/>
                <path id="Path_4794" d="M366.534 134.174h-.067a6.13 6.13 0 0 0-11.2-2.638 4.611 4.611 0 0 0-1.391-.249 4.772 4.772 0 0 0-4.6 6.485l20.6.632a3.052 3.052 0 0 0 .072-.6 3.525 3.525 0 0 0-3.414-3.63z" class="cls-12" transform="translate(-203.339 -93.184)"/>
                <path id="Path_4795" d="M303.012 109.839a8.076 8.076 0 0 0-8.447-5.958 9.373 9.373 0 0 0-14.583 1.352 7.3 7.3 0 0 0-9.655 6.69 7.092 7.092 0 0 0 .2 1.918l35.706 1.109a5.376 5.376 0 0 0-3.22-5.11z" class="cls-12" transform="translate(-168.291 -80.805)"/>
                <g id="Group_31" clip-path="url(#clip-path)" transform="translate(3.211 8.34)">
                    <path id="Path_4796" d="M244.787 168.581c-25.086-.588-6.186-22.919-31.982-35.74-14.356-7.133-3.231-27.664-15.786-39.425s-52.54-14.5-47.263-43.671c5.1-28.29-93-18.585-106.509 19.073-13.857 38.749 24 73.907 49.275 72.383 47.03-2.827 28.528 27.919 62.96 27.215 61.07-1.253 49.674 26.489 69.24 25.43 11.767 7.943 14.411 2.311 21.362-7.455s-1.297-17.81-1.297-17.81z" class="cls-9" transform="translate(-68.968 -59.003)"/>
                    <path id="Path_4797" d="M120.628 231.5c-14.245-.443-26.727-15.243-26.239-31.078 3.326-8.314 15.8-6.873 36.061-13 13.574-4.107 29.238-6.779 36.493-6.89h.388c4.573.144 8.658 3.686 11.507 9.977 1.3 2.882 3.963 10.038.482 14.25-3.653 4.434-17.182 16.966-37.375 28.883-4.75 2.8-17.182-2.023-21.323-2.151z" class="cls-8" transform="translate(-93.078 -124.589)"/>
                    <path id="Path_4798" d="M200.343 187.179c-11.817-.355-41.892 5.936-40.567 18.291.793 7.444 6.319 21.007 17.266 15.4 19.4-9.944 26.916-14.638 30.152-18.557 2.018-2.413-2.882-15.018-6.851-15.134z" class="cls-9" transform="translate(-122.21 -127.546)"/>
                    <path id="Path_4799" d="M233.554 227.621c4.545-2.295 6.2-5.476 5.072-5.837-1.392-.443-7.472 7.046-5.072 5.837z" class="cls-9" transform="translate(-154.866 -142.969)"/>
                    <path id="Path_4800" d="M224.31 233c-10.531 9.123-24.333 14.067-26.871 18.1s4.163 4.373 11.252-.554c4.739-3.287 14.1-11.939 17.083-16.074.781-1.072-.743-2.114-1.464-1.472z" class="cls-8" transform="translate(-138.771 -147.888)"/>
                </g>
                <path id="Path_4801" d="M352.736 89.024a2.616 2.616 0 0 1-1.768-4.545L367.6 69.248a2.627 2.627 0 0 1 3.542 3.88l-16.633 15.226a2.616 2.616 0 0 1-1.774.671zm16.628-19.91a2.056 2.056 0 0 0-1.391.554l-16.634 15.21a2.062 2.062 0 1 0 2.771 3.043l16.628-15.231a2.062 2.062 0 0 0-1.4-3.586z" class="cls-9" transform="translate(-203.858 -66.341)"/>
                <path id="Path_4802" d="M261.238 128.294c-3.326.438-3.8.859-4.434 4.174-.438-3.326-.859-3.8-4.174-4.434 3.326-.438 3.8-.865 4.434-4.174.436 3.34.865 3.791 4.174 4.434z" class="cls-8" transform="translate(-160.405 -90.99)"/>
                <path id="Path_4803" d="M142.745 97.643c-2.139.283-2.428.554-2.843 2.672-.277-2.139-.554-2.428-2.672-2.843 2.145-.277 2.433-.554 2.843-2.672.283 2.145.555 2.433 2.672 2.843z" class="cls-8" transform="translate(-108.968 -78.037)"/>
                <path id="Path_4804" d="M274.889 200.458c-2.139.283-2.428.554-2.838 2.672-.283-2.139-.554-2.428-2.672-2.838 2.139-.283 2.428-.554 2.838-2.672.278 2.139.555 2.428 2.672 2.838z" class="cls-8" transform="translate(-167.871 -123.867)"/>
                <path id="Path_4805" d="M317.934 203.386c-1.042.139-1.186.272-1.386 1.308-.139-1.048-.272-1.186-1.308-1.391 1.048-.133 1.192-.266 1.391-1.3.139 1.045.269 1.183 1.303 1.383z" class="cls-8" transform="translate(-188.312 -125.819)"/>
                <path id="Path_4806" d="M259.354 251.5c-1.048.133-1.186.266-1.391 1.3-.133-1.048-.266-1.186-1.3-1.386 1.048-.139 1.186-.272 1.386-1.308.135 1.052.268 1.194 1.305 1.394z" class="cls-8" transform="translate(-162.201 -147.263)"/>
                <path id="Path_4807" d="M128.524 148.991c-1.042.139-1.186.272-1.386 1.308-.139-1.048-.272-1.192-1.308-1.391 1.048-.139 1.192-.272 1.391-1.308.139 1.048.266 1.192 1.303 1.391z" class="cls-8" transform="translate(-103.887 -101.571)"/>
                <path id="Path_4808" d="M257.089 167.251c-1.048.133-1.192.266-1.391 1.3-.139-1.042-.272-1.186-1.308-1.386 1.048-.139 1.192-.272 1.391-1.308.139 1.051.272 1.189 1.308 1.394z" class="cls-8" transform="translate(-161.189 -109.71)"/>
                <path id="Path_4809" d="M162.607 129.061c-1.812.233-2.056.466-2.406 2.261-.238-1.812-.466-2.062-2.261-2.406 1.812-.238 2.056-.471 2.406-2.267.238 1.802.465 2.051 2.261 2.412z" class="cls-8" transform="translate(-118.199 -92.233)"/>
                <path id="Path_4810" d="M296.333 166.716c-1.812.238-2.056.466-2.406 2.261-.238-1.812-.471-2.056-2.267-2.406 1.818-.238 2.062-.466 2.411-2.261.229 1.812.466 2.045 2.262 2.406z" class="cls-8" transform="translate(-177.802 -109.019)"/>
                <path id="Path_4811" d="M211.463 104.9s.615 10.891-1.691 29.7c-9.467-1.2-28.822-2.627-28.822-2.627l1.58-7.533z" class="cls-14" transform="translate(-128.455 -82.539)"/>
                <path id="Path_4812" d="M208.2 130.335l-28.2-2.954c1.7-11.085 2.954-21.467 3.137-29.931l28.207 2.954a175.211 175.211 0 0 1-3.148 29.931z" class="cls-8" transform="translate(-128.032 -79.218)"/>
                <g id="Group_32" opacity="0.5" transform="translate(58.94 26.392)">
                    <path id="Path_4813" d="M200.877 129.974a12.628 12.628 0 0 1-2.1-.177 7.5 7.5 0 0 1-5.177-3.254c-1.413-2.273-1.164-5.354-.46-7.488a9.073 9.073 0 0 1 4.345-5.26 11.313 11.313 0 0 1 7.86-1.441.46.46 0 0 1 .355.554.455.455 0 0 1-.554.349 10.42 10.42 0 0 0-7.206 1.341 8.225 8.225 0 0 0-3.93 4.75c-.637 1.94-.876 4.722.366 6.723a6.69 6.69 0 0 0 4.562 2.838 10.986 10.986 0 0 0 7.5-1.33 8.126 8.126 0 0 0 3.536-6.042 6.84 6.84 0 0 0-1.9-5.72 5.67 5.67 0 0 0-6.5-.92.454.454 0 0 1-.621-.166.46.46 0 0 1 .166-.626 6.607 6.607 0 0 1 7.577 1.053 7.727 7.727 0 0 1 2.184 6.468 9.051 9.051 0 0 1-3.963 6.723 11.518 11.518 0 0 1-6.047 1.624z" class="cls-9" transform="translate(-192.579 -112.172)"/>
                    <path id="Path_4814" d="M204.349 140.1a.455.455 0 0 1-.205-.865l.449-.222c-1.109.31-2.273.588-3.42.815a.457.457 0 0 1-.172-.9 72.372 72.372 0 0 0 8.569-2.411.455.455 0 0 1 .554.261.449.449 0 0 1-.044.427l.926-.349a.454.454 0 1 1 .327.848c-2.25.865-4.562 1.663-6.856 2.372a.427.427 0 0 1-.128.022z" class="cls-9" transform="translate(-196.168 -123.017)"/>
                    <path id="Path_4815" d="M198.312 135.961a.455.455 0 0 1-.155-.887l13.075-4.639a.466.466 0 0 1 .554.255.46.46 0 0 1-.222.588c-1.314.632-2.66 1.28-4.052 1.8-.488.183-.976.344-1.469.51a37.286 37.286 0 0 0 5.227-1.74.454.454 0 1 1 .349.837 37.49 37.49 0 0 1-9.539 2.594.438.438 0 0 1-.488-.294.372.372 0 0 1-.033-.155l-3.132 1.109a.36.36 0 0 1-.115.022z" class="cls-9" transform="translate(-194.925 -120.304)"/>
                    <path id="Path_4816" d="M194.967 132.976a.454.454 0 0 1-.455-.41.46.46 0 0 1 .41-.5 17.566 17.566 0 0 0 4.224-1.109c1.452-.527 2.921-1.053 4.4-1.6l-9.345 2.367a.455.455 0 1 1-.222-.881l16.157-4.1a.455.455 0 0 1 .294.859c-3.6 1.552-7.35 2.9-10.975 4.207a17.853 17.853 0 0 1-4.438 1.191z" class="cls-9" transform="translate(-193.043 -118.66)"/>
                    <path id="Path_4817" d="M193.779 128.688a.456.456 0 0 1-.061-.909 15.708 15.708 0 0 0 4.113-1.408l.515-.233a61.524 61.524 0 0 1 10.642-3.6.449.449 0 0 1 .554.3.455.455 0 0 1-.266.554l-2.771 1.109q1.663-.554 3.326-1.147a.455.455 0 0 1 .588.266.46.46 0 0 1-.266.588 62.146 62.146 0 0 1-9.19 2.694.46.46 0 0 1-.554-.3.443.443 0 0 1 .05-.382c-.593.238-1.181.488-1.757.748l-.51.227a16.346 16.346 0 0 1-4.362 1.48z" class="cls-9" transform="translate(-192.897 -116.783)"/>
                    <path id="Path_4818" d="M193.911 125.171a.454.454 0 0 1-.443-.355.449.449 0 0 1 .327-.554 13.856 13.856 0 0 0 2.444-.987l.272-.127a64.976 64.976 0 0 1 10.93-4.041.449.449 0 0 1 .554.321.454.454 0 0 1-.316.554 63.4 63.4 0 0 0-6.906 2.295l1.352-.443c2.217-.721 4.467-1.463 6.757-2.045a.455.455 0 1 1 .222.881c-2.256.554-4.512 1.319-6.7 2.034a87.27 87.27 0 0 1-8.4 2.439z" class="cls-9" transform="translate(-192.968 -115.256)"/>
                    <path id="Path_4819" d="M197.625 120.682a.46.46 0 0 1-.438-.321.455.455 0 0 1 .238-.554q2.372-1.142 4.8-2.217l-.205.044a40.407 40.407 0 0 1-4.634 1.519.46.46 0 0 1-.554-.283.466.466 0 0 1 .233-.554 21.483 21.483 0 0 1 4.379-1.474.455.455 0 0 1 .277-.765l2.333-.288a.46.46 0 0 1 .493.327.465.465 0 0 1 0 .194l.942-.1a.466.466 0 0 1 .488.344.46.46 0 0 1-.266.554c-1.219.51-2.439 1.042-3.653 1.585l1.253-.4a38.245 38.245 0 0 1 5.543-1.5.46.46 0 0 1 .15.9 37.026 37.026 0 0 0-5.388 1.463 36.027 36.027 0 0 1-5.931 1.563z" class="cls-9" transform="translate(-194.465 -113.782)"/>
                </g>
                <path id="Path_4820" d="M191.417 129.938a1.607 1.607 0 0 1-1.242-.432 1.674 1.674 0 0 1 .188-2.145.41.41 0 0 1 .554-.066.4.4 0 0 1 .061.554c-.272.344-.432.881-.227 1.109.089.094.4.294 1.447.089a22.26 22.26 0 0 0 5.088-1.74c5.044-2.356 9.517-6.014 11.684-9.55a4.517 4.517 0 0 0 .82-2.339.383.383 0 0 0-.028-.144.382.382 0 0 1-.3-.46.4.4 0 0 1 .482-.31.848.848 0 0 1 .654.9 5.238 5.238 0 0 1-.937 2.771c-2.217 3.664-6.856 7.438-12.033 9.855a23.131 23.131 0 0 1-5.271 1.8 4.8 4.8 0 0 1-.94.108z" class="cls-9" transform="translate(-132.426 -86.814)"/>
            </g>
            <g id="freepik--character-2--inject-470" transform="translate(162.209 53.544)">
                <path id="Path_4821" d="M326.717 393.29l7.6 1.691-2.9 8.214-6.358-1.408z" class="cls-16" transform="translate(-307.096 -259.329)"/>
                <path id="Path_4822" d="M327.311 393.29l7.6 1.7-1.63 4.595-6.906-1.53z" class="cls-14" transform="translate(-307.685 -259.329)"/>
                <path id="Path_4823" d="M344.96 309.346c3.2-10.975 11.169-22.426 6.768-32.879l-21.977-.067s-1.774 23.884-2.317 34.032c-.554 10.531-1.724 33.9-1.724 33.9l8.674 1.879s8.398-17.449 10.576-36.865z" class="cls-9" transform="translate(-307.386 -207.228)"/>
                <path id="Path_4824" d="M344.96 309.346c3.2-10.975 11.169-22.426 6.768-32.879l-21.977-.067s-1.774 23.884-2.317 34.032c-.554 10.531-1.724 33.9-1.724 33.9l8.674 1.879s8.398-17.449 10.576-36.865z" class="cls-14" transform="translate(-307.386 -207.228)"/>
                <path id="Path_4825" d="M368.062 294.778c-1.075 5.836-4.013 11.812-6.23 17.709-2.632-11.163-2.306-24.26 6.23-17.709z" class="cls-14" transform="translate(-322.839 -214.638)"/>
                <path id="Path_4826" d="M314.661 406.79a5.182 5.182 0 0 0 4.5-.527 1.109 1.109 0 0 1 .953 0c1.269.554 4.673 1.824 6.879 1.552a.294.294 0 0 1 .333.36 21.175 21.175 0 0 0-.637 3.547l-2.012-.427-.26-.715-1.064.438a48.778 48.778 0 0 1-9.755-2.55 1.471 1.471 0 0 1 1.063-1.678z" class="cls-17" transform="translate(-301.968 -265.064)"/>
                <path id="Path_4827" d="M386.15 395.9l7.25.072.321 8.547-6.058-.044z" class="cls-16" transform="translate(-334.326 -260.492)"/>
                <path id="Path_4828" d="M386.16 395.91l7.25.066.177 4.789-6.587-.055z" class="cls-14" transform="translate(-334.33 -260.497)"/>
                <path id="Path_4829" d="M379.467 309.706c.582-10.975 2.289-27.753-1.386-32.8L355.5 276.4s5.365 24.388 7.71 34.515c2.439 10.531 9.323 35.052 9.323 35.052h7.837s2.04-23.74-.903-36.261z" class="cls-9" transform="translate(-320.664 -207.228)"/>
                <path id="Path_4830" d="M379.467 309.706c.582-10.975 2.289-27.753-1.386-32.8L355.5 276.4s5.365 24.388 7.71 34.515c2.439 10.531 9.323 35.052 9.323 35.052h7.837s2.04-23.74-.903-36.261z" class="cls-14" transform="translate(-320.664 -207.228)"/>
                <path id="Path_4831" d="M331.82 212.164l-.255.748-.238.654c-.161.427-.333.843-.51 1.253-.344.831-.743 1.663-1.153 2.433a33.574 33.574 0 0 1-2.9 4.656c-.554.748-1.153 1.491-1.807 2.217a26.2 26.2 0 0 1-2.139 2.073 19.781 19.781 0 0 1-2.527 1.851 17.963 17.963 0 0 1-2.991 1.451l-.432.161a3.2 3.2 0 0 1-1.214.205 19.259 19.259 0 0 1-4.118-.554 21.15 21.15 0 0 1-3.741-1.3 22.24 22.24 0 0 1-3.326-1.9c-.521-.355-1.02-.743-1.508-1.142-.244-.205-.482-.416-.721-.632l-.737-.726a2.572 2.572 0 0 1 2.018-4.434l.948.089a4.807 4.807 0 0 1 .66.15l.721.177c.477.122.964.222 1.441.321.964.194 1.907.355 2.832.455a22.6 22.6 0 0 0 2.688.15 17.411 17.411 0 0 0 2.467-.205l-1.663.36a10.422 10.422 0 0 0 2.35-1.907 21.363 21.363 0 0 0 2.217-2.893 38.57 38.57 0 0 0 1.968-3.475c.3-.61.588-1.236.876-1.851l.4-.931.344-.82.15-.377a5.282 5.282 0 0 1 9.872 3.736z" class="cls-16" transform="translate(-296.236 -175.5)"/>
                <path id="Path_4832" d="M301.458 234.76l1.053-2.871c-.033-3.2-4.124-2.45-4.124-2.45l-3.071-.682a1.618 1.618 0 0 0-1.768 1.109l-.748 2a1.691 1.691 0 0 0 .809 2.217l2.71.926a3.42 3.42 0 0 0 1.618.194z" class="cls-16" transform="translate(-292.651 -185.985)"/>
                <path id="Path_4833" d="M343.324 196.381c-4.528 1.89-8.514 10.1-8.514 10.1.211 1.984 4.767 7.516 8.8 8.94a11.075 11.075 0 0 0 5.1-5.587c2.545-5.534-.586-15.443-5.386-13.453z" class="cls-17" transform="translate(-311.442 -171.446)"/>
                <path id="Path_4834" d="M344.02 195.219a91.215 91.215 0 0 1 20.142.316 6.8 6.8 0 0 1 5.659 8.1c-3.132 15.775.155 33.467-1.873 36.992 0 0-23.279.3-36.31-.593-3.57-17.121 3.448-27.6 6.973-40.972.604-2.285 3.059-3.593 5.409-3.843z" class="cls-17" transform="translate(-309.589 -170.861)"/>
                <path id="Path_4835" d="M401.49 272.408l-4.889 8.253-4.351.521 7.594-12.843z" class="cls-9" transform="translate(-337.045 -203.636)"/>
                <path id="Path_4836" d="M401.49 272.408l-4.889 8.253-4.351.521 7.594-12.843z" class="cls-18" transform="translate(-337.045 -203.636)"/>
                <path id="Path_4837" d="M328.995 207.276a20.963 20.963 0 0 1 9.855 14.007 13.763 13.763 0 0 0 6.4 9.34l1.375.809-9.325 15.752-1.375-.809a13.763 13.763 0 0 0-11.252-1.109 20.974 20.974 0 1 1 4.318-37.984z" class="cls-9" transform="translate(-294.713 -175.102)"/>
                <path id="Path_4838" d="M328.995 207.276a20.963 20.963 0 0 1 9.855 14.007 13.763 13.763 0 0 0 6.4 9.34l1.375.809-9.325 15.752-1.375-.809a13.763 13.763 0 0 0-11.252-1.109 20.974 20.974 0 1 1 4.318-37.984z" class="cls-18" transform="translate(-294.713 -175.102)"/>
                <circle id="Ellipse_30" cx="13.319" cy="13.319" r="13.319" class="cls-19" transform="rotate(-49.51 66.862 14.9)"/>
                <path id="Path_4839" d="M361.777 266.61l-16.484-5.7a.515.515 0 0 1-.316-.654.51.51 0 0 1 .654-.321l16.484 5.7z" class="cls-9" transform="translate(-315.962 -199.877)"/>
                <path id="Path_4840" d="M369.7 253.3l-.693.765-12.926-11.7a.516.516 0 0 1-.039-.732.51.51 0 0 1 .726-.033z" class="cls-9" transform="translate(-320.846 -191.657)"/>
                <path id="Path_4841" d="M357.821 250.446l-4.279-.127 2.167 3.7-5.831 1.07-.188-1.02 4.384-.8-2.367-4.03 4.667.133-1.4-4.224.975-.327z" class="cls-9" transform="translate(-318.075 -193.152)"/>
                <path id="Path_4842" d="M382.258 253.033a2.322 2.322 0 0 1 .82 3.182l-1.2 2.04a1.968 1.968 0 0 1-.211.488l-6.934 11.767a2.324 2.324 0 1 1-4.03-2.317v-.044l1.2-2.034a1.94 1.94 0 0 1 .188-.443v-.05l6.94-11.767a2.317 2.317 0 0 1 3.226-.82z" class="cls-9" transform="translate(-327.302 -196.659)"/>
                <path id="Path_4843" d="M389.066 258.379a2.217 2.217 0 0 1 .9 3.037l-1.109 1.89a1.631 1.631 0 0 1-.194.455l-6.47 10.939a2.333 2.333 0 0 1-4.03-2.311v-.044l1.109-1.89a2.267 2.267 0 0 1 .172-.416v-.044l6.468-10.93a2.256 2.256 0 0 1 3.154-.682z" class="cls-9" transform="translate(-330.673 -199.029)"/>
                <path id="Path_4844" d="M395.8 263.743a2.162 2.162 0 0 1 .981 2.888l-1.042 1.752a1.536 1.536 0 0 1-.172.421L389.6 278.9a2.217 2.217 0 0 1-3.032.554 2.178 2.178 0 0 1-1-2.855v-.039l1.042-1.746a1.426 1.426 0 0 1 .155-.382v-.032l6.014-10.127a2.217 2.217 0 0 1 3.021-.53z" class="cls-9" transform="translate(-333.975 -201.417)"/>
                <path id="Path_4845" d="M393.4 282.2l-1.092-.637 7.965-13.519 1.086.637z" class="cls-9" transform="translate(-337.072 -203.502)"/>
                <path id="Rectangle_816" d="M0 0H18.313V1.264H0z" class="cls-9" transform="rotate(-59.73 83.523 -.726)"/>
                <g id="Group_33" opacity="0.4" transform="translate(5.165 41.351)">
                    <path id="Path_4846" d="M307.756 249.178a7.471 7.471 0 0 0 2.672 1.846h.033a1.369 1.369 0 0 0 1.419-2.217 14.45 14.45 0 0 1-2.932-12.183c.754-3.237 2.633-6.707-.283-9.534a3.658 3.658 0 0 0-1.946-.87h-.044c-6.036-.527-6.875 15.392 1.081 22.958z" class="cls-8" transform="translate(-301.969 -226.207)"/>
                </g>
                <path id="Path_4847" d="M313.451 219.264a3.182 3.182 0 0 0 3.148.842 4.1 4.1 0 0 0 1.979-1.8 3.291 3.291 0 0 0 .621-2.666 2.925 2.925 0 0 0-2.727-1.713c-3.52-.261-5.972 2.482-3.021 5.337z" class="cls-19" transform="translate(-301.335 -179.374)"/>
                <path id="Path_4848" d="M395.887 206.985c.9 1.364 1.663 2.683 2.455 4.063s1.513 2.771 2.217 4.212 1.364 2.915 1.973 4.517c.3.809.61 1.63.865 2.572.128.477.255.97.366 1.557l.078.443c.028.155.05.349.067.521a9.312 9.312 0 0 1 .061 1.253v.188a2.735 2.735 0 0 1 0 .3 15.688 15.688 0 0 1-1.918 5.255 28.131 28.131 0 0 1-2.66 3.88 38.242 38.242 0 0 1-3 3.254 33.641 33.641 0 0 1-3.326 2.86 2.672 2.672 0 0 1-3.952-3.392l.066-.122 1.835-3.459c.6-1.153 1.181-2.295 1.7-3.431.255-.554.51-1.109.732-1.663s.4-1.109.554-1.607a7.621 7.621 0 0 0 .466-2.528v.488c-.033.061 0 .183-.039.122a.212.212 0 0 1-.028-.044l-.044-.111c-.055-.15-.155-.382-.261-.626-.227-.5-.488-1.109-.782-1.663s-.626-1.2-.964-1.812-.676-1.236-1.031-1.862l-2.178-3.769c-.732-1.253-1.5-2.555-2.184-3.775l-.033-.061a5.293 5.293 0 1 1 9.015-5.545z" class="cls-16" transform="translate(-334.319 -175.171)"/>
                <path id="Path_4849" d="M390.5 197.76c4.473 2.012 8.214 10.149 8.214 10.149-.438 2.827-6.779 8.9-10.093 10.032 0 0-2.771-2.428-4.057-8.1-1.474-6.527 3.509-11.554 5.936-12.081z" class="cls-17" transform="translate(-333.5 -172.176)"/>
                <path id="Path_4850" d="M360.048 191.422a4.307 4.307 0 0 1 2.034-1.923 3.935 3.935 0 0 0 .067-2.649l9.927-3.159c-.8 3.281-1.43 5.875-.211 7.466-1.951 1.192-5.543 3.326-9.423 3.22s-3.032-1.577-2.394-2.955z" class="cls-16" transform="translate(-322.446 -165.905)"/>
                <path id="Path_4851" d="M364.407 189.648l7.449-.438c-2.328 2.489-5.859 3.425-7.466 2.411a3.946 3.946 0 0 0 .017-1.973z" class="cls-14" transform="translate(-324.627 -168.365)"/>
                <path id="Path_4852" d="M364.39 201.921l1.61-1.341 2.167 1.109a3.561 3.561 0 0 1-3.777.232z" class="cls-17" transform="translate(-324.627 -173.433)"/>
                <path id="Path_4853" d="M364.39 201.921l1.61-1.341 2.167 1.109a3.561 3.561 0 0 1-3.777.232z" class="cls-21" transform="translate(-324.627 -173.433)"/>
                <path id="Path_4854" d="M362.711 161.645c-2.716 1.469-1.8 6.058 1.375 5.543s1.336-7.017-1.375-5.543z" class="cls-17" transform="translate(-323.164 -155.982)"/>
                <path id="Path_4855" d="M373.888 168.312c-.842 4.351-1.513 7.294-4.484 8.907-5.892 3.2-8.868.554-9.423-3.946-.516-4.03.953-10.47 5.787-11.773s8.963 2.472 8.12 6.812z" class="cls-16" transform="translate(-322.618 -155.898)"/>
                <path id="Path_4856" d="M374.019 167.653a3.657 3.657 0 0 1-.471.061 1.724 1.724 0 0 1-1.43-2.827c.515-.61.92-1.33.671-1.945-1.341-.266-2.494-1.519-1.846-3.974-2.988.216-8.2-.067-8.907-3.68-.61-3.126 3.985-4.617 7.267-3.065 2.217 1.064 3.813 2.588 3.88 3.448 1.485-.366 4.013 1.38 3.209 4.279 2.782 1.329 2.034 6.284-2.373 7.703z" class="cls-17" transform="translate(-323.553 -151.603)"/>
                <path id="Path_4857" d="M372.57 173.985a2.217 2.217 0 0 1 1.663.094 4.3 4.3 0 0 1-1.663-.094z" class="cls-14" transform="translate(-328.273 -161.526)"/>
                <path id="Path_4858" d="M372.58 174.789a1.813 1.813 0 0 1 1.447.466 3.575 3.575 0 0 1-1.447-.466z" class="cls-14" transform="translate(-328.277 -161.932)"/>
                <path id="Path_4859" d="M365.21 166.434a20.121 20.121 0 0 1 4.2.089c-2.343.033-4.2-.089-4.2-.089z" class="cls-14" transform="translate(-324.992 -158.182)"/>
                <path id="Path_4860" d="M364.11 167.27a20.3 20.3 0 0 1 4.733.665 38.668 38.668 0 0 1-4.733-.665z" class="cls-14" transform="translate(-324.502 -158.586)"/>
                <path id="Path_4861" d="M383.712 180.176a4.506 4.506 0 0 1-3.015 1.663c-1.58.166-1.929-1.109-1.408-2.522.471-1.264 2.051-2.91 3.531-2.45a2.047 2.047 0 0 1 .892 3.309z" class="cls-16" transform="translate(-331.167 -162.828)"/>
                <path id="Path_4862" d="M369.342 173.587c-.044.388-.283.676-.554.643s-.421-.36-.382-.748.277-.671.554-.643.421.361.382.748z" class="cls-17" transform="translate(-326.414 -161.067)"/>
                <path id="Path_4863" d="M362.145 173.007c-.039.388-.277.676-.554.643s-.421-.36-.377-.748.277-.671.527-.643.459.365.404.748z" class="cls-17" transform="translate(-323.208 -160.809)"/>
                <path id="Path_4864" fill="#ed847e" d="M363.694 174.33l-.454 3.22a3.58 3.58 0 0 1-1.136-.122.421.421 0 0 1-.128-.737 7.5 7.5 0 0 0 1.718-2.361z" transform="translate(-323.477 -161.733)"/>
                <path id="Path_4865" d="M372.326 171.229a.2.2 0 0 0 .111-.033.227.227 0 0 0 .061-.316 2.289 2.289 0 0 0-1.79-1.07.227.227 0 0 0-.227.227.244.244 0 0 0 .233.233 1.812 1.812 0 0 1 1.408.859.222.222 0 0 0 .205.1z" class="cls-17" transform="translate(-327.341 -159.718)"/>
                <path id="Path_4866" d="M360.093 170.566a.211.211 0 0 0 .2-.083 1.785 1.785 0 0 1 1.474-.709.222.222 0 0 0 .244-.205.233.233 0 0 0-.205-.249 2.256 2.256 0 0 0-1.873.881.233.233 0 0 0 .039.321.205.205 0 0 0 .122.044z" class="cls-17" transform="translate(-322.619 -159.498)"/>
                <path id="Path_4867" d="M374.856 193.33s-3.4 3.791-7.566 3.991a12.616 12.616 0 0 1 4.179 3.619 7.993 7.993 0 0 0 5.4-6.618 3.764 3.764 0 0 0-2.013-.992z" class="cls-8" transform="translate(-325.919 -170.202)"/>
                <path id="Path_4868" d="M361.052 201.685l-1.829-1.635-2.322.693a3.8 3.8 0 0 0 4.151.942z" class="cls-17" transform="translate(-321.288 -173.197)"/>
                <path id="Path_4869" d="M361.052 201.685l-1.829-1.635-2.322.693a3.8 3.8 0 0 0 4.151.942z" class="cls-21" transform="translate(-321.288 -173.197)"/>
                <path id="Path_4870" d="M359.81 194.154s-1.624 1.879-1.7 3.231a10.724 10.724 0 0 0-3.708 3.193 9.571 9.571 0 0 1 3.525-6.069 3.293 3.293 0 0 1 1.885-.355z" class="cls-8" transform="translate(-320.174 -170.56)"/>
                <path id="Path_4871" d="M391.724 413.025h-1.574l-.427-.637-.831.643h-9.512a4.285 4.285 0 0 1 .41-2.178s2.843-.255 3.935-1.663a.349.349 0 0 1 .349-.144c.948.2 4.711.909 6.784.166a.344.344 0 0 1 .466.31 22.642 22.642 0 0 0 .4 3.503z" class="cls-17" transform="translate(-331.303 -266.349)"/>
                <path id="Path_4872" d="M363 182.475a28.436 28.436 0 0 1 5.027-.349c-.366.787-1.319 1.38-3.22 1.436a1.657 1.657 0 0 1-1.807-1.087z" class="cls-8" transform="translate(-324.007 -165.205)"/>
                <path id="Path_4873" d="M389 264.48l2.771 1.319c2.217 2.322-1.269 4.65-1.269 4.65l-1.219 1.8a1.618 1.618 0 0 1-2.051.427l-1.929-.909a1.663 1.663 0 0 1-.959-2.145l.793-1.724a3.326 3.326 0 0 1 1.025-1.264z" class="cls-16" transform="translate(-333.471 -201.915)"/>
            </g>
            <g id="freepik--character-1--inject-470" transform="translate(50.644 63.049)">
                <path id="Path_4874" d="M149 193c.5 2.588 1.014 7.327-.8 9.057a19.194 19.194 0 0 1 8.868 4.905c1.818-3.376-.837-4.905-.837-4.905-2.888-.687-2.81-2.832-2.306-4.839z" class="cls-23" transform="translate(-116.701 -179.559)"/>
                <path id="Path_4875" d="M155.417 209.889c-.61-2.622 1.253-3.032-1.824-4.273-2.411-.975-7-1.009-8.1-.15-.61.477.188 2.084.188 2.084z" class="cls-9" transform="translate(-115.393 -184.842)"/>
                <path id="Path_4876" d="M134.742 215.28c-.344.266-.77.632-1.158.953s-.793.687-1.175 1.036c-.765.715-1.519 1.436-2.217 2.217a21.655 21.655 0 0 0-3.536 4.739 9.245 9.245 0 0 0-.554 1.23l-.055.15v.078c.028-.078 0-.05 0-.078v-.033a4.435 4.435 0 0 0 0 .527 29.935 29.935 0 0 0 .31 3.065c.3 2.145.66 4.357.948 6.563a1.341 1.341 0 0 1-2.544.748 51.477 51.477 0 0 1-2.544-6.357 25.67 25.67 0 0 1-.881-3.531 8.19 8.19 0 0 1-.094-1.147 4.228 4.228 0 0 1 .094-.92.393.393 0 0 1 .044-.177l.033-.122.067-.249a14.641 14.641 0 0 1 .671-1.89 24.044 24.044 0 0 1 4.107-6.225c.809-.9 1.663-1.757 2.522-2.561.438-.4.887-.8 1.341-1.181s.9-.737 1.458-1.142a2.677 2.677 0 0 1 3.243 4.257z" class="cls-23" transform="translate(-104.684 -187.351)"/>
                <path id="Path_4877" d="M127.18 254.327l1.07 3.93 3.281-2.006a23.9 23.9 0 0 0-2.444-3.121z" class="cls-23" transform="translate(-107.331 -206.361)"/>
                <path id="Path_4878" d="M131.233 261.988l1.308-1.109a.876.876 0 0 0 .266-.953l-.416-1.186-3.281 2.006.881 1.109a.87.87 0 0 0 1.242.133z" class="cls-23" transform="translate(-108.192 -208.861)"/>
                <path id="Path_4879" d="M110.3 236.63a.366.366 0 0 1-.183-.682l63.974-35.784a.36.36 0 0 1 .4 0l6.136 4.667 1.358-.765-6.934-12.394a.366.366 0 0 1 .139-.5.371.371 0 0 1 .5.144l7.111 12.715a.388.388 0 0 1 .033.272.371.371 0 0 1-.177.222l-1.885 1.053a.36.36 0 0 1-.4-.028l-6.1-4.634-63.741 35.667a.438.438 0 0 1-.227.044z" class="cls-17" transform="translate(-99.644 -178.726)"/>
                <rect id="Rectangle_817" width="12.992" height="3.015" class="cls-8" rx="1.508" transform="rotate(60.78 27.837 72.377)"/>
                <path id="Path_4880" d="M138.156 208.73c-3.6.554-5.077 2.5-7.5 5.415-.155 1.99 3.73 7.666 3.73 7.666s11.714-12.748 3.77-13.081z" class="cls-17" transform="translate(-108.879 -186.571)"/>
                <path id="Path_4881" d="M159.04 214.9c-.072 1.74 2.677 5.764-.715 8.1-.4 3.52-.9 6.984-1.84 12.748h-17.737c1.89-6.374.554-10.675-1.774-21.9a4.479 4.479 0 0 1 3.935-5.371c.709-.067 1.458-.127 2.217-.166a56.385 56.385 0 0 1 8.043 0c.87.083 1.768.188 2.622.31a6.1 6.1 0 0 1 5.249 6.285z" class="cls-17" transform="translate(-111.655 -186.317)"/>
                <path id="Path_4882" d="M196.46 226.328l.155-3.758 3.453 1.7a23.609 23.609 0 0 1-2.151 3.326z" class="cls-23" transform="translate(-138.211 -192.74)"/>
                <path id="Path_4883" d="M198.741 219.873l1.408.97a.887.887 0 0 1 .349.926l-.3 1.219-3.453-1.7.776-1.186a.87.87 0 0 1 1.225-.233z" class="cls-23" transform="translate(-138.336 -191.467)"/>
                <path id="Path_4884" d="M169.987 214.54c.388 1.2.815 2.511 1.28 3.752s.937 2.505 1.441 3.736 1.059 2.422 1.63 3.6a37.145 37.145 0 0 0 1.9 3.326l-1.8-.992a.942.942 0 0 0 .554-.055 3.979 3.979 0 0 0 .987-.493 13.756 13.756 0 0 0 2.184-1.846c.715-.721 1.413-1.519 2.09-2.339s1.347-1.7 1.973-2.533l.033-.044a1.336 1.336 0 0 1 2.317 1.275 30.845 30.845 0 0 1-1.452 3.193 26.734 26.734 0 0 1-1.868 3.032 15.753 15.753 0 0 1-2.561 2.838 9.1 9.1 0 0 1-1.862 1.219 5.848 5.848 0 0 1-2.7.582 2.278 2.278 0 0 1-1.724-.892l-.078-.105a34.782 34.782 0 0 1-2.483-3.747c-.726-1.275-1.391-2.577-2-3.88s-1.147-2.649-1.663-4a43.223 43.223 0 0 1-1.358-4.146 2.677 2.677 0 0 1 5.127-1.535z" class="cls-23" transform="translate(-124.071 -188.318)"/>
                <path id="Path_4885" d="M167.155 209.5c2.217 1.025 4.373 3.049 5.26 7.837-.554 1.907-6.552 5.088-6.552 5.088s-6.224-15.518 1.292-12.925z" class="cls-17" transform="translate(-123.495 -186.782)"/>
                <path id="Path_4886" d="M166.938 185.645c0 .349.227.621.46.61s.394-.316.371-.665-.227-.621-.454-.61-.399.31-.377.665z" class="cls-17" transform="translate(-125.052 -175.984)"/>
                <path id="Path_4887" d="M167.44 184.759l.826-.3s-.388.705-.826.3z" class="cls-17" transform="translate(-125.276 -175.753)"/>
                <path id="Path_4888" fill="#95631f" d="M167.25 186.81a9.484 9.484 0 0 0 1.391 2.162 1.5 1.5 0 0 1-1.236.316z" transform="translate(-125.192 -176.8)"/>
                <path id="Path_4889" d="M166.62 182.055a.211.211 0 0 0 .061-.377 2.067 2.067 0 0 0-1.879-.2.207.207 0 1 0 .172.377 1.663 1.663 0 0 1 1.485.172.205.205 0 0 0 .161.028z" class="cls-17" transform="translate(-124.047 -174.362)"/>
                <path id="Path_4890" d="M145.84 180.051c.554 4.29.676 6.1 2.954 8.2 3.425 3.121 8.48 1.519 9.212-2.849.66-3.93-.333-10.293-4.584-11.745a5.787 5.787 0 0 0-7.582 6.394z" class="cls-23" transform="translate(-115.626 -170.789)"/>
                <path id="Path_4891" d="M137.571 173.018c-.97.881-.976 2.71-.837 3.514.172 1-1.158 1.059-1.508 2.733-.31 1.48 1 2.6-.105 3.165a2.09 2.09 0 0 0-.671 2.949c.682.959.349 2.422 1.569 3.143 1.918 1.109 5.033-.6 7.527-.948s6.2 2.378 8.27-1.2c1.713-2.954-2.422-6.1-1.663-7.826s.743-3.453.277-4.2c1.2.161 1.751-.244 2.023-1.7.244-1.352-2.112-4.711-6.363-3.714-2.034.477-2.816 1.181-4.434.959s-4.573.725-4.085 3.125z" class="cls-17" transform="translate(-110.417 -168.751)"/>
                <path id="Path_4892" d="M160.407 257.94s.033 23.2-1.729 37.94c-.277 13.857-1.851 46.138-1.851 46.138h-3.492s-5.421-27.531-3.714-43.915c-7.106-23.4-2.433-40.163-2.433-40.163z" class="cls-23" transform="translate(-115.577 -208.505)"/>
                <path id="Path_4893" d="M162.532 404.48c1.014 1.036 2.045 4.14 5.443 5.166 2.217.665 1.325 1.352-2.006 1.352-3.841 0-4.905-.82-6.2-.82s-2.051-1.7-1.158-4.434c2.918-.355 3.921-1.264 3.921-1.264z" class="cls-17" transform="translate(-121.166 -273.822)"/>
                <path id="Path_4894" d="M158.371 409a17.94 17.94 0 0 0 .061 4.035h1.668l1.219-2.672z" class="cls-17" transform="translate(-121.196 -275.836)"/>
                <path id="Path_4895" d="M133.238 257.936s-7.244 27.064-11.351 39.658c-4.318 13.23-23.59 37.4-23.967 38.328l-2.81-1.109s11.268-26.411 17.737-37.236c1.474-32.375 7.3-39.647 7.3-39.647z" class="cls-23" transform="translate(-93.037 -208.5)"/>
                <path id="Path_4896" d="M98.591 394.8c.127 1.5.233 4.251 1.663 5.87s.321 1.807-2.317.133c-1.779-1.136-2.81-2.339-3.88-2.871s-1.275-2.516.7-4.623a9.36 9.36 0 0 0 3.834 1.491z" class="cls-17" transform="translate(-92.211 -268.843)"/>
                <path id="Path_4897" d="M93.033 395.28a22.832 22.832 0 0 0-1.663 3.536l1.535.743 2.139-1.907z" class="cls-17" transform="translate(-91.37 -269.721)"/>
                <g id="Group_34" opacity="0.2" transform="translate(19.865 83.795)">
                    <path id="Path_4898" d="M161.464 333.932c-.044 1.563-.094 3.226-.161 4.961a54.132 54.132 0 0 1-9.073-2.666c.028-1.491.105-2.938.227-4.307a46.351 46.351 0 0 0 9.007 2.012z" transform="translate(-138.362 -325.274)"/>
                    <path id="Path_4899" d="M127.454 319.93q-.133 2.04-.244 4.235c1.8 1.109 4.5 2.622 7.76 4.207.477-1.109.887-2.151 1.208-3.143.105-.321.211-.649.316-.987a87.8 87.8 0 0 1-9.04-4.312z" transform="translate(-127.21 -319.93)"/>
                </g>
                <path id="Path_4900" d="M151.14 257.416s.4 18.2-.964 45.589c-12.826-.976-25.286-9.1-25.286-9.1s.371-28.9 8.536-36.493c4.617-1.226 17.626-.412 17.714.004z" class="cls-9" transform="translate(-106.311 -207.981)"/>
                <path id="Path_4901" fill="#fff" d="M151.14 257.416s.4 18.2-.964 45.589c-12.826-.976-25.286-9.1-25.286-9.1s.371-28.9 8.536-36.493c4.617-1.226 17.626-.412 17.714.004z" opacity="0.2" transform="translate(-106.311 -207.981)"/>
                <path id="Path_4902" fill="#b70e77" d="M141.78 275c5.11 4.434 9.018 5.055 9.018 5.055A9.2 9.2 0 0 1 141.78 275z" opacity="0.9" transform="translate(-113.839 -216.109)"/>
            </g>
        </g>
    </g>
</svg>
