<svg xmlns="http://www.w3.org/2000/svg" width="105.084" height="68.427" viewBox="0 0 105.084 68.427">
    <path id="prefix__Icon_-_Mail" fill="#2fac66" d="M14.446 22A7.423 7.423 0 0 0 7 29.331V83.1a7.423 7.423 0 0 0 7.446 7.331h90.192a7.423 7.423 0 0 0 7.446-7.331V29.331A7.423 7.423 0 0 0 104.638 22zm1.26 4.888h87.672l-41.7 37.268a3.624 3.624 0 0 1-4.277 0zm-3.818 3.131L42.4 57.282 11.888 82.561zm95.309 0v52.542l-30.51-25.279zM46.1 60.6l8.057 7.179a8.1 8.1 0 0 0 10.768 0l8.059-7.179 30.127 24.934H15.974z" data-name="Icon - Mail" transform="translate(-7 -22)"/>
</svg>
