<svg xmlns="http://www.w3.org/2000/svg" width="82.881" height="99.683" viewBox="0 0 82.881 99.683">
    <path id="prefix__Icon_-_Bills" fill="#2fac66" d="M23.4 82.417a2.072 2.072 0 0 0 1.218.366H35.7a2.194 2.194 0 1 0 0-4.388h-3.653a8.487 8.487 0 0 0 1.342-4.506V40.626a4.264 4.264 0 1 1 8.528 0v62.739c0 .124 0 .124.124.243v.124a.412.412 0 0 0 .124.243v.124c.124.124.124.243.243.366l3.778 3.778a2.285 2.285 0 0 0 3.169 0l5.967-5.967 5.967 5.967a2.316 2.316 0 0 0 1.585.609 2.569 2.569 0 0 0 1.585-.609l5.967-5.967 5.967 5.967a2.316 2.316 0 0 0 1.585.609 2.569 2.569 0 0 0 1.585-.609l5.967-5.967 5.967 5.967a2.023 2.023 0 0 0 1.585.609 2.569 2.569 0 0 0 1.585-.609l3.778-3.778a2.316 2.316 0 0 0 .609-1.585V40.626a8.733 8.733 0 0 0-8.77-8.77H76.76l-.01-20.463A2.185 2.185 0 0 0 74.556 9.2H18.393a2.185 2.185 0 0 0-2.193 2.193v62.254a8.318 8.318 0 0 0 7.2 8.77zm71.015-42.029v61.4l-1.461 1.461-5.967-5.967a2.285 2.285 0 0 0-3.169 0l-5.967 5.967-5.967-5.967a2.285 2.285 0 0 0-3.169 0l-5.967 5.967-5.967-5.967a2.285 2.285 0 0 0-3.169 0l-5.967 5.967-1.461-1.461v-61.4a8.254 8.254 0 0 0-1.095-4.264h44.829a4.22 4.22 0 0 1 4.5 4.264zM20.35 13.706h51.775v17.907H37.648a8.733 8.733 0 0 0-8.77 8.77v33.264a4.264 4.264 0 0 1-8.528 0zM89.18 47.7a2.185 2.185 0 0 1-2.194 2.194H53.609a2.194 2.194 0 0 1 0-4.388h33.377A2.111 2.111 0 0 1 89.18 47.7zm-37.765 9.377a2.185 2.185 0 0 1 2.194-2.194H78.1a2.194 2.194 0 0 1 0 4.388H53.609a2.111 2.111 0 0 1-2.194-2.194zm37.765 9.5a2.185 2.185 0 0 1-2.194 2.194H53.609a2.194 2.194 0 1 1 0-4.388h33.377a2.185 2.185 0 0 1 2.194 2.197zm-30.58 9.5a2.185 2.185 0 0 1-2.194 2.194H53.6a2.194 2.194 0 1 1 0-4.388h2.8a2.111 2.111 0 0 1 2.2 2.2zm0 9.379a2.185 2.185 0 0 1-2.194 2.194H53.6a2.194 2.194 0 1 1 0-4.388h2.8a2.185 2.185 0 0 1 2.2 2.201zm30.58-9.379a2.185 2.185 0 0 1-2.194 2.194H64.207a2.194 2.194 0 0 1 0-4.388h22.78a2.111 2.111 0 0 1 2.193 2.2zm-8.894 9.379a2.185 2.185 0 0 1-2.194 2.194H64.207a2.194 2.194 0 1 1 0-4.388h13.885a2.185 2.185 0 0 1 2.194 2.201z" data-name="Icon - Bills" transform="translate(-16.173 -9.199)"/>
</svg>
