<svg xmlns="http://www.w3.org/2000/svg" width="31.805" height="18.708" viewBox="0 0 31.805 18.708">
    <path id="prefix__Icon_-_Arrow_-_long" fill="#3c3c3b" d="M16 39.351a1.575 1.575 0 0 1 .38-.965l7.483-7.951a1.609 1.609 0 0 1 2.046-.117 1.462 1.462 0 0 1-.015 2.046l-5.262 5.584H46.4a1.4 1.4 0 0 1 0 2.806H20.633l5.262 5.584a1.545 1.545 0 0 1 .015 2.046 1.588 1.588 0 0 1-2.046-.117l-7.484-7.951a1.356 1.356 0 0 1-.38-.965z" data-name="Icon - Arrow - long" transform="translate(-16 -29.999)"/>
</svg>
