<svg xmlns="http://www.w3.org/2000/svg" width="58.779" height="99.704" viewBox="0 0 58.779 99.704">
    <path id="prefix__Icon_-_Energy" fill="#2fac66" d="M38.746 105.136a2.1 2.1 0 0 0 2.513-.671L82.188 49.9a2.106 2.106 0 0 0-1.688-3.37H62.519l6.417-38.473a2.107 2.107 0 0 0-3.764-1.61L24.248 61.014a2.1 2.1 0 0 0 1.68 3.369H43.9l-6.409 38.477a2.11 2.11 0 0 0 1.255 2.276zm9.724-42.512a2.106 2.106 0 0 0-2.07-2.452H30.144l33.222-44.288-5.4 32.41a2.106 2.106 0 0 0 2.075 2.452h16.248L43.071 95.031z" data-name="Icon - Energy" transform="translate(-23.828 -5.603)"/>
</svg>
