<svg xmlns="http://www.w3.org/2000/svg" width="31.806" height="18.708" viewBox="0 0 31.806 18.708">
    <path id="prefix__Icon_-_Arrow_-_long" fill="#3c3c3b" d="M47.805 39.35a1.575 1.575 0 0 0-.38-.965l-7.484-7.951a1.609 1.609 0 0 0-2.046-.117 1.461 1.461 0 0 0 .015 2.046l5.262 5.584H17.4a1.4 1.4 0 0 0 0 2.806h25.772l-5.262 5.585a1.545 1.545 0 0 0-.015 2.046 1.588 1.588 0 0 0 2.046-.117l7.484-7.951a1.355 1.355 0 0 0 .38-.965z" data-name="Icon - Arrow - long" transform="translate(-16 -29.999)"/>
</svg>
