<svg xmlns="http://www.w3.org/2000/svg" width="103" height="96.621" viewBox="0 0 103 96.621">
    <path id="prefix__noun_Present_1681553" fill="#2fac66" d="M104.425 24.848H74.349a13.158 13.158 0 0 0 3.888-3.94 9.837 9.837 0 0 0 .155-10.094c-2.807-5.639-6.9-5.613-9.064-5.15C64 6.952 58.59 14.007 55.5 19.981 52.41 14.007 47 6.952 41.672 5.716c-2.163-.515-6.257-.541-9.064 5.15a9.837 9.837 0 0 0 .155 10.094 13.158 13.158 0 0 0 3.888 3.888H6.575A2.575 2.575 0 0 0 4 27.423v15.45a2.575 2.575 0 0 0 2.575 2.575H14.3v54.075a2.575 2.575 0 0 0 2.575 2.575h77.25a2.575 2.575 0 0 0 2.575-2.575V45.448h7.725A2.575 2.575 0 0 0 107 42.873v-15.45a2.575 2.575 0 0 0-2.575-2.575zM60.65 30v10.3h-10.3V30zm9.837-19.287a3.656 3.656 0 0 1 .618 0c.669 0 1.648.386 2.7 2.575a4.712 4.712 0 0 1 0 5.15c-2.137 3.45-8.832 5.794-14.987 6.463 2.064-4.971 7.446-13.185 11.669-14.19zm-33.295 2.42c1.056-2.112 2.034-2.575 2.7-2.575a3.657 3.657 0 0 1 .618 0c4.223 1 9.6 9.218 11.613 13.956-6.154-.67-12.875-3.013-14.986-6.463a4.712 4.712 0 0 1 .051-4.918zM9.15 30H45.2v10.3H9.15zm10.3 15.45H45.2v51.5H19.45zm30.9 51.5v-51.5h10.3v51.5zm41.2 0H65.8v-51.5h25.75zm10.3-56.65H65.8V30h36.05z" transform="translate(-4 -5.477)"/>
</svg>
