<svg xmlns="http://www.w3.org/2000/svg" width="19.705" height="19.704" viewBox="0 0 19.705 19.704">
    <defs>
        <style>
            .prefix__cls-1{fill:#3c3c3b}
        </style>
    </defs>
    <g id="prefix__np_calendar_935779_000000" transform="translate(-13.715 -13.714)">
        <path id="prefix__Path_495" d="M31.66 15.474h-3.518v-1.407a.352.352 0 1 0-.7 0v3.167a.352.352 0 0 0 .7 0v-1.056h3.518a1.057 1.057 0 0 1 1.055 1.055V20.4h-18.3v-3.166a1.057 1.057 0 0 1 1.055-1.055h2.815v-.7h-2.811a1.763 1.763 0 0 0-1.76 1.76v14.42a1.763 1.763 0 0 0 1.76 1.76h16.187a1.763 1.763 0 0 0 1.76-1.76V17.234a1.763 1.763 0 0 0-1.761-1.76zm1.055 16.185a1.057 1.057 0 0 1-1.055 1.055H15.475a1.057 1.057 0 0 1-1.055-1.055V21.1h18.3v10.559z" class="prefix__cls-1" data-name="Path 495"/>
        <path id="prefix__Path_496" d="M33.5 17.586a.352.352 0 0 0 .352-.352v-1.055h7.037v-.7h-7.033v-1.412a.352.352 0 0 0-.7 0v3.167a.353.353 0 0 0 .352.352z" class="prefix__cls-1" data-name="Path 496" transform="translate(-14.16)"/>
    </g>
</svg>
