<svg xmlns="http://www.w3.org/2000/svg" width="26.547" height="26.547" viewBox="0 0 26.547 26.547">
    <defs>
        <style>
            .prefix__cls-1{fill:#2fac66;fill-rule:evenodd}
        </style>
    </defs>
    <g id="prefix__np_close_997408_000000" transform="translate(-6 -6)">
        <path id="prefix__Path_483" d="M19.273 6a13.273 13.273 0 1 0 13.274 13.273A13.283 13.283 0 0 0 19.273 6zm0 1.207A12.067 12.067 0 1 1 7.207 19.273 12.055 12.055 0 0 1 19.273 7.207z" class="prefix__cls-1" data-name="Path 483"/>
        <path id="prefix__Path_484" d="M33.5 32.986a.6.6 0 0 0-.358 1.037l4.091 4.1-4.091 4.091a.607.607 0 0 0 .858.858l4.1-4.1 4.091 4.1a.607.607 0 0 0 .858-.858l-4.1-4.091 4.1-4.1a.607.607 0 1 0-.858-.858L38.1 37.256 34 33.165a.6.6 0 0 0-.434-.179.614.614 0 0 0-.066 0z" class="prefix__cls-1" data-name="Path 484" transform="translate(-18.826 -18.845)"/>
    </g>
</svg>
