<svg xmlns="http://www.w3.org/2000/svg" id="prefix__np_info_2394143_000000" width="8.994" height="8.994" viewBox="0 0 8.994 8.994">
    <defs>
        <style>
            .prefix__cls-1{fill:#3c3c3b}
        </style>
    </defs>
    <path id="prefix__Path_491" d="M44.3 23.347a.625.625 0 1 1-.625-.625.624.624 0 0 1 .625.625" class="prefix__cls-1" data-name="Path 491" transform="translate(-39.182 -20.679)"/>
    <path id="prefix__Path_492" d="M45.262 43.433v2.059a.52.52 0 0 1-1.039 0v-2.059a.52.52 0 0 1 1.039 0z" class="prefix__cls-1" data-name="Path 492" transform="translate(-40.245 -39.054)"/>
    <path id="prefix__Path_493" d="M4.5 0A4.5 4.5 0 1 0 9 4.5 4.5 4.5 0 0 0 4.5 0zm2.612 7.112a3.7 3.7 0 1 1-5.23-5.23 3.7 3.7 0 1 1 5.23 5.23z" class="prefix__cls-1" data-name="Path 493"/>
    <path id="prefix__Path_494" d="M4.5 0A4.5 4.5 0 1 0 9 4.5 4.5 4.5 0 0 0 4.5 0zm2.612 7.112a3.7 3.7 0 1 1-5.23-5.23 3.7 3.7 0 1 1 5.23 5.23z" class="prefix__cls-1" data-name="Path 494"/>
</svg>
