<svg xmlns="http://www.w3.org/2000/svg" width="22.13" height="16.187" viewBox="0 0 22.13 16.187">
    <defs>
        <linearGradient id="f85rksuuua" x2="2.075" y2="1.496" gradientUnits="objectBoundingBox">
            <stop offset="0" stop-color="#008dc9"/>
            <stop offset="1" stop-color="#01285c"/>
        </linearGradient>
    </defs>
    <g>
        <path fill="url(#f85rksuuua)" d="M768.231-1143.207c.166-.16.331-.321.5-.482h.005c.08-.078.16-.157.244-.235l.256-.248 1.619-1.565 2.267-2.189q.983-.952 1.967-1.9l.438-.418a6.388 6.388 0 0 0 1.136.95 3.427 3.427 0 0 0 2.6.4 4.121 4.121 0 0 0 1.85-1.094l.231-.237c.07.07.141.144.212.214l1.8 1.816 2.164 2.189q.907.914 1.811 1.829c.024.027.051.051.076.078l.4.409c.158.163.319.327.485.487zm20.611-1.526c-.076-.076-.151-.15-.227-.229l-.261-.264c-.511-.517-1.023-1.036-1.535-1.552q-1.083-1.094-2.164-2.189l-1.887-1.906-.4-.4c.071-.071.139-.141.21-.215l2.6-2.647 2.61-2.659.561-.571h.005l.482-.491.446-.453.037-.037v14.117c-.153-.171-.313-.341-.477-.504zm-21.642-13.632l.068.071.012.012.03.03.029.029.03.03c.049.049.1.1.151.144s.107.1.158.153l.029.03.373.365.081.08.04.039.022.023 1.231 1.2.388.378.843.822 2.784 2.705c.337.319.668.643 1 .966l-.051.049-.007.007-.029.03c-.049.049-.1.094-.149.144q-.94.91-1.882 1.818l-2.267 2.189c-.119.117-.241.232-.36.349l-1.083 1.048-.482.465h-.007a.023.023 0 0 1-.01.007c-.083.08-.166.16-.251.239l-.086.083-.053.051a.207.207 0 0 0-.024.024l-.027.029-.148.141c-.086.081-.168.161-.247.242l-.007.007c-.029.031-.058.06-.085.093zm11.019 8.1a2.865 2.865 0 0 1-.507-.141c-.03-.013-.058-.027-.086-.041l-.085-.044c-.056-.029-.112-.061-.166-.1s-.107-.068-.158-.1c-.02-.012-.037-.027-.056-.039a3.09 3.09 0 0 1-.254-.232c-.086-.085-.173-.167-.261-.253l-.475-.461a.12.12 0 0 1-.014-.024l-.015-.02a.094.094 0 0 1-.012-.017c-.005-.007-.013-.014-.017-.022a.062.062 0 0 0-.017-.017l-.014-.015-.015-.014a1.021 1.021 0 0 0-.119-.093l-1.153-1.121-2.735-2.66q-1.273-1.239-2.548-2.477c-.068-.066-.137-.131-.2-.194l-.034-.034a.363.363 0 0 0-.034-.031l-.01-.005c-.049-.051-.1-.1-.151-.154a.037.037 0 0 0 0-.007l-.161-.158-.014-.014-.022-.022-.04-.04-.039-.039-.041-.039v-.005c-.022-.019-.041-.041-.064-.061a.03.03 0 0 0-.01-.009l-.007-.008-.044-.043-.15-.147c-.068-.066-.137-.131-.205-.194l-.02-.02h20.024l-.467.477-.005.005c-.126.129-.253.256-.377.385l-.1.1v.005l-2.016 2.052-2.492 2.538-1.865 1.9a.6.6 0 0 0-.153.122.642.642 0 0 0-.1.141c-.171.176-.344.348-.515.524-.049.05-.095.1-.143.147a.256.256 0 0 1-.027.027l-.073.066-.149.124c-.031.022-.06.046-.093.068a3.535 3.535 0 0 1-.527.3 2.779 2.779 0 0 1-.5.139q-.117.011-.234.011t-.236-.018zm-3.74-1.012zm13.811-8.11l.005-.005v.005z" transform="translate(-58.2 -180) translate(-709 1339.393)"/>
    </g>
</svg>
