<svg xmlns="http://www.w3.org/2000/svg" width="20.04" height="20.052" viewBox="0 0 20.04 20.052">
    <defs>
        <linearGradient id="fc0u78zbpa" x2="2.075" y2="1.496" gradientUnits="objectBoundingBox">
            <stop offset="0" stop-color="#008dc9"/>
            <stop offset="1" stop-color="#01285c"/>
        </linearGradient>
    </defs>
    <g>
        <path fill="url(#fc0u78zbpa)" d="M16.2 22.449c-3.165.211-7.195-2.743-9.051-4.6S2.32 11.964 2.552 8.8c.19-2.975.844-4.009 1.941-4.958l1.245-1.056a1.583 1.583 0 0 1 2.362.358l1.71 2.764a2.128 2.128 0 0 1-.485 2.785L8 9.727a1.448 1.448 0 0 0-.316 1.941 10.757 10.757 0 0 0 2.258 3.4 11.493 11.493 0 0 0 3.4 2.258 1.448 1.448 0 0 0 1.941-.316l1.034-1.329a2.128 2.128 0 0 1 2.785-.485l2.743 1.73a1.568 1.568 0 0 1 .359 2.363l-1.064 1.24c-.929 1.098-1.962 1.731-4.94 1.92z" transform="translate(-2.539 -2.408)"/>
    </g>
</svg>
