<svg xmlns="http://www.w3.org/2000/svg" width="20" height="20" viewBox="0 0 20 20"><g><g><path fill="#69666c" d="M20 1.176c0-.324-.118-.603-.353-.838A1.12 1.12 0 0 0 18.824 0a1.17 1.17 0 0 0-.839.338l-7.985 8-8-8A1.12 1.12 0 0 0 1.176 0a1.17 1.17 0 0 0-.838.338A1.17 1.17 0 0 0 0 1.176c0 .325.113.6.338.824l8 8-8 7.985a1.17 1.17 0 0 0-.338.839c0 .324.113.599.338.823.235.235.514.353.838.353.325 0 .6-.118.824-.353l8-7.985 7.985 7.985c.235.235.514.353.839.353.324 0 .599-.118.823-.353.235-.224.353-.499.353-.823 0-.325-.118-.604-.353-.839L11.662 10l7.985-8c.235-.225.353-.499.353-.824z"/></g></g></svg>