<svg xmlns="http://www.w3.org/2000/svg" id="noun_coin_2047214" width="39.088" height="30.975" viewBox="0 0 39.088 30.975">
    <defs>
        <style>
            .cls-1{fill:#fff}
        </style>
    </defs>
    <g id="Group_53">
        <path id="Path_88" d="M52.652 71.566c-4.665 3.046-15.295 9.044-15.295 9.044h-.032a6.81 6.81 0 0 1-4.95.73c-.159-.032-10.789-1.333-12.344-1.523L20 78.833V67.155c.825-.063 2.412-.127 2.6-.159 4.506-.286 8.885.762 13.3 1.618a1.972 1.972 0 0 1 1.587 1.936v.222a2.055 2.055 0 0 1-.571 1.174 1.993 1.993 0 0 1-1.4.571h-7.932a.631.631 0 0 0-.635.6.6.6 0 0 0 .286.508.536.536 0 0 0 .317.1H34.5c.222 0 1.46-.032 2.285-.1a7.153 7.153 0 0 0 1.142-.19l1.047-.317 11.836-4.982a1.959 1.959 0 0 1 1.84 3.427z" class="cls-1" transform="translate(-14.415 -50.528)"/>
        <g id="Group_51" transform="translate(17.453)">
            <g id="Group_50">
                <path id="Path_89" d="M64.889 15.2a7.489 7.489 0 1 0 7.489 7.489 7.5 7.5 0 0 0-7.489-7.489zm0 13.137a5.648 5.648 0 1 1 5.648-5.648 5.661 5.661 0 0 1-5.648 5.648z" class="cls-1" transform="translate(-57.4 -15.2)"/>
            </g>
        </g>
        <path id="Rectangle_114" d="M0 0H4.284V14.057H0z" class="cls-1" transform="translate(0 15.263)"/>
    </g>
</svg>
