<svg xmlns="http://www.w3.org/2000/svg" width="25.083" height="25.083" viewBox="0 0 25.083 25.083">
  <path id="Union_40" data-name="Union 40" d="M-1720,40.391A12.391,12.391,0,0,1-1707.609,28a12.391,12.391,0,0,1,12.391,12.391,12.391,12.391,0,0,1-12.391,12.391A12.391,12.391,0,0,1-1720,40.391Zm.762,0a11.642,11.642,0,0,0,11.629,11.629,11.642,11.642,0,0,0,11.629-11.629,11.642,11.642,0,0,0-11.629-11.629A11.642,11.642,0,0,0-1719.238,40.391Zm11.191,3.263-3.282-2.491a.479.479,0,0,1-.093-.672.48.48,0,0,1,.673-.093l2.876,2.182,4.243-6.366a.48.48,0,0,1,.667-.133.479.479,0,0,1,.133.666l-4.527,6.791a.482.482,0,0,1-.4.213A.48.48,0,0,1-1708.047,43.655Z" transform="translate(1720.15 -27.85)" fill="#65d076" stroke="#65d076" stroke-width="0.3"/>
</svg>
