<svg xmlns="http://www.w3.org/2000/svg" width="35.574" height="36.28" viewBox="0 0 35.574 36.28">
    <defs>
        <style>
            .cls-2{fill:#fff}
        </style>
    </defs>
    <g id="euro" opacity="0.952" transform="translate(-4.985)">
        <g id="Group_56" transform="translate(4.985)">
            <g id="Group_55">
                <path id="Path_91" d="M15.706 0a10.723 10.723 0 0 0-9.371 15.931l.21.377-1 3.747 3.485-.934.41.3a10.642 10.642 0 0 0 6.269 2.024 10.809 10.809 0 0 0 2.026-.192 12.909 12.909 0 0 1 8.391-7.992A10.724 10.724 0 0 0 15.706 0zm-.042 14.419a4.176 4.176 0 0 1-3.815-2.843h-1.255l.431-1.058h.542a4.749 4.749 0 0 1-.037-.591h-.85l.431-1.058h.542a4.144 4.144 0 0 1 4.086-3.31 3.558 3.558 0 0 1 3.31 1.908L17.5 8.549a1.852 1.852 0 0 0-1.809-1.194 2.022 2.022 0 0 0-1.932 1.514h2.791l-.431 1.058h-2.535a4.084 4.084 0 0 0 .037.591h2.56l-.431 1.058H14a1.962 1.962 0 0 0 1.711 1.046 1.851 1.851 0 0 0 1.789-1.205l1.661.972a3.8 3.8 0 0 1-3.497 2.03z" class="cls-2" transform="translate(-4.985)"/>
            </g>
        </g>
        <g id="Group_58" transform="translate(19.117 14.839)">
            <g id="Group_57">
                <path id="Path_92" d="M224.516 225.342a10.726 10.726 0 1 0-3.1 3.486l.41-.3 3.485.934-1-3.747zm-8.306-.819v1.456h-2.13v-1.52a6.925 6.925 0 0 1-2.442-.956l.886-1.76a5.328 5.328 0 0 0 2.88 1.021c.726 0 1.071-.234 1.071-.652 0-.652-.9-.812-2.1-1.182-1.612-.492-2.363-1.1-2.363-2.412a2.69 2.69 0 0 1 2.073-2.685v-1.551h2.13v1.493a6.989 6.989 0 0 1 2.172.86l-.874 1.674a4.491 4.491 0 0 0-2.338-.837c-.689 0-1.071.246-1.071.726 0 .591.652.751 1.821 1.071 1.674.455 2.732 1.021 2.732 2.646a2.538 2.538 0 0 1-2.446 2.609z" class="cls-2" transform="translate(-204.425 -209.411)"/>
            </g>
        </g>
    </g>
</svg>
