<svg data-name="Layer 1" xmlns="http://www.w3.org/2000/svg" viewBox="0 0 281 106">
  <defs>
    <clipPath id="a">
      <path d="M43.61 20.34l3.4 3.4a5.88 5.88 0 010 8.31l-8.35 8.35-5.1 5.1-5.28 5.28-5.1-5.1 3.49-3.49 7.39-7.4 6.94-6.9-7.41-7.4-7.4 7.4 5.29 5.29-5.1 5.1-6.23-6.23a5.88 5.88 0 010-8.31l3.4-3.4H5.43A4.43 4.43 0 001 24.77v18.08l3.4-3.4a5.88 5.88 0 018.31 0l8.35 8.35 5.1 5.09 5.31 5.3-5.1 5.1L21.06 58 16 52.9l-7.4-7.4-7.45 7.4 7.41 7.4 5.28-5.3 5.1 5.1-6.23 6.23a5.89 5.89 0 01-8.31 0L1 62.94V81a4.43 4.43 0 004.43 4.43h18.09l-3.4-3.4a5.88 5.88 0 010-8.31l6.59-6.6 7.4-7.39L38.85 55l5.1 5.1-5.29 5.3-5.1 5.1-7.4 7.4 7.4 7.41L41 77.9l-5.26-5.25 5.1-5.1 6.2 6.2a5.88 5.88 0 010 8.31l-3.4 3.4h18.05A4.43 4.43 0 0066.13 81V62.94l-3.41 3.41a5.9 5.9 0 01-8.31 0L46.07 58 41 52.9l-5.28-5.28 5.1-5.1 5.28 5.28 5.1 5.1 7.4 7.4 7.4-7.4-7.4-7.4-5.28 5.27-5.1-5.1 6.22-6.22a5.88 5.88 0 018.31 0l3.41 3.4V24.77a4.43 4.43 0 00-4.44-4.43z" fill="#fff"/>
    </clipPath>
  </defs>
  <path d="M43.61 20.34l3.4 3.4a5.88 5.88 0 010 8.31l-8.35 8.35-5.1 5.1-5.28 5.28-5.1-5.1 3.49-3.49 7.39-7.4 6.94-6.9-7.41-7.4-7.4 7.4 5.29 5.29-5.1 5.1-6.23-6.23a5.88 5.88 0 010-8.31l3.4-3.4H5.43A4.43 4.43 0 001 24.77v18.08l3.4-3.4a5.88 5.88 0 018.31 0l8.35 8.35 5.1 5.09 5.31 5.3-5.1 5.1L21.06 58 16 52.9l-7.4-7.4-7.45 7.4 7.41 7.4 5.28-5.3 5.1 5.1-6.23 6.23a5.89 5.89 0 01-8.31 0L1 62.94V81a4.43 4.43 0 004.43 4.43h18.09l-3.4-3.4a5.88 5.88 0 010-8.31l6.59-6.6 7.4-7.39L38.85 55l5.1 5.1-5.29 5.3-5.1 5.1-7.4 7.4 7.4 7.41L41 77.9l-5.26-5.25 5.1-5.1 6.2 6.2a5.88 5.88 0 010 8.31l-3.4 3.4h18.05A4.43 4.43 0 0066.13 81V62.94l-3.41 3.41a5.9 5.9 0 01-8.31 0L46.07 58 41 52.9l-5.28-5.28 5.1-5.1 5.28 5.28 5.1 5.1 7.4 7.4 7.4-7.4-7.4-7.4-5.28 5.27-5.1-5.1 6.22-6.22a5.88 5.88 0 018.31 0l3.41 3.4V24.77a4.43 4.43 0 00-4.44-4.43z" fill="#fff"/>
  <g clip-path="url(#a)">
    <path fill="#fff" d="M-31.558 52.905l65.124-65.124 65.125 65.124-65.125 65.125z"/>
  </g>
  <path d="M94.36 43.71v-.4a4.79 4.79 0 00-1.71-4A7.75 7.75 0 0087.79 38H86v-3h6.8a.58.58 0 00.65-.61v-1.78a.63.63 0 00-.18-.45.66.66 0 00-.47-.16h-9.61a.63.63 0 00-.46.19.62.62 0 00-.19.46v15.21a.81.81 0 00.33.7 4.76 4.76 0 001.87.33c1 .09 2 .13 3.05.13a9.61 9.61 0 003.56-.59 4.64 4.64 0 002.26-1.79 5.41 5.41 0 00.75-2.93m-6.57 2.35c-.62 0-1.21 0-1.76-.07V41c.54-.05 1.14-.07 1.76-.07a4.05 4.05 0 012.38.56 2 2 0 01.72 1.79v.4a2.13 2.13 0 01-.7 1.78 4 4 0 01-2.4.57M106.6 39.32a7.75 7.75 0 00-4.86-1.32h-1.76v-5.37a.65.65 0 00-.18-.46.57.57 0 00-.45-.19h-4.2a.63.63 0 00-.46.18.61.61 0 00-.2.45v1.75a.59.59 0 00.66.61h1.34v12.89a.81.81 0 00.33.7 4.76 4.76 0 001.87.33c1 .09 2 .13 3 .13a9.61 9.61 0 003.56-.59 4.64 4.64 0 002.26-1.79 5.41 5.41 0 00.75-2.93v-.4a4.79 4.79 0 00-1.71-4m-4.86 6.74c-.62 0-1.21 0-1.76-.07V41c.54-.05 1.14-.07 1.76-.07a4.05 4.05 0 012.38.56 2 2 0 01.72 1.79v.4a2.13 2.13 0 01-.7 1.78 4 4 0 01-2.4.57M115.69 34.84s.09 0 .14.18L119 48.31a.62.62 0 00.62.54H122a.55.55 0 00.61-.59l-3.66-14a3.43 3.43 0 00-6.55 0l-3.62 13.84a.64.64 0 000 .16.55.55 0 00.61.59h2.34a.62.62 0 00.63-.54L115.54 35c0-.18.11-.18.15-.18M124.71 48.85h2.16a.65.65 0 00.65-.66V36.57a2.1 2.1 0 01.32-1.34 1.64 1.64 0 011.22-.35h4.51a.6.6 0 00.46-.19.61.61 0 00.2-.46v-1.42a.68.68 0 00-.18-.5c-.07-.08-.16-.17-1.67-.33a28.88 28.88 0 00-3-.15c-1.92 0-3.3.39-4.1 1.17a4.78 4.78 0 00-1.22 3.57v11.62a.65.65 0 00.2.47.64.64 0 00.46.19M145.61 48.32a.62.62 0 00.63.53h2.34a.55.55 0 00.61-.59l-3.65-14a3.44 3.44 0 00-6.56 0l-3.62 13.84a.44.44 0 000 .16.55.55 0 00.61.59h2.34a.62.62 0 00.38-.14.62.62 0 00.21-.27s0-.09.4-1.63l.61-2.54h4.75zm-3.45-13.45h.17c0 .11.16.53.54 2.08l1.07 4.41h-3.36zM153.94 48.65a.65.65 0 00.18-.46v-5.53c.81.05 1.39.07 1.76.07a9.36 9.36 0 003.54-.6 4.77 4.77 0 002.26-1.83 5.43 5.43 0 00.77-3v-.2a4.81 4.81 0 00-1.71-4 7.71 7.71 0 00-4.86-1.33c-1 0-2 0-3 .13-1.4.11-1.73.23-1.87.33a.78.78 0 00-.35.7v15.2a.65.65 0 00.65.66h2.2a.6.6 0 00.46-.2m1.94-8.87c-.44 0-1 0-1.76-.06v-4.8c.55 0 1.14-.07 1.76-.07a3.92 3.92 0 012.39.57 2.09 2.09 0 01.71 1.78v.2a2.21 2.21 0 01-.72 1.85 3.89 3.89 0 01-2.38.59M172.47 48.89a8.36 8.36 0 001.49-.26.68.68 0 00.5-.67v-1.49a.62.62 0 00-.66-.68l-1.78.12c-.63 0-1.2.06-1.72.06-2 0-3-1.28-3-3.92V38.8c0-2.63 1-3.92 3-3.92.93 0 2.08.06 3.44.18h.06a.62.62 0 00.66-.68V32.9a.67.67 0 00-.49-.67 7.28 7.28 0 00-1.51-.27 18.52 18.52 0 00-2.2-.13 8 8 0 00-3 .59 5.45 5.45 0 00-2.45 2.17 7.93 7.93 0 00-1 4.21v3.25a7.05 7.05 0 001.78 5.19 6.35 6.35 0 004.67 1.76 18.32 18.32 0 002.21-.13M177.12 48.85h2.18a.64.64 0 00.46-.19.65.65 0 00.2-.47v-6.64l4.67 7a.77.77 0 00.68.34h3c.51 0 .55-.31.55-.41a.77.77 0 00-.16-.39l-5.61-7.87 5.53-7.22a.82.82 0 00.21-.49c0-.14-.06-.48-.64-.48h-2.52a.78.78 0 00-.68.27l-5 6.76v-6.4a.62.62 0 00-.2-.45.63.63 0 00-.46-.18h-2.18a.63.63 0 00-.47.19.6.6 0 00-.18.44v15.53a.65.65 0 00.65.66M199.5 48.32a.62.62 0 00.63.53h2.34a.55.55 0 00.61-.59l-3.65-14a3.44 3.44 0 00-6.56 0l-3.62 13.84a.44.44 0 000 .16.55.55 0 00.61.59h2.34a.62.62 0 00.38-.14.62.62 0 00.21-.27s0-.09.4-1.63l.61-2.54h4.75zM196 34.87h.18c0 .11.16.53.54 2.08l1.07 4.41h-3.36zM219.93 39.32a7.75 7.75 0 00-4.86-1.32h-1.76v-3h6.77a.59.59 0 00.66-.61v-1.78a.63.63 0 00-.66-.63h-9.6a.64.64 0 00-.47.19.66.66 0 00-.19.46v15.23a.79.79 0 00.34.7 4.61 4.61 0 001.86.33c1 .09 2 .13 3 .13a9.61 9.61 0 003.56-.59 4.6 4.6 0 002.26-1.79 5.41 5.41 0 00.75-2.93v-.4a4.79 4.79 0 00-1.71-4m-4.86 6.74c-.62 0-1.21 0-1.76-.07V41c.55-.05 1.14-.07 1.76-.07a4.05 4.05 0 012.38.56 2 2 0 01.72 1.79v.4a2.13 2.13 0 01-.7 1.78 4 4 0 01-2.4.57M229.14 31.83a3 3 0 00-3.28 2.41l-3.63 13.86a.64.64 0 000 .16.55.55 0 00.61.59h2.34a.62.62 0 00.38-.14.71.71 0 00.21-.27s0-.09.39-1.63l.62-2.54h4.75l1 4a.61.61 0 00.62.53h2.35a.55.55 0 00.61-.59l-3.66-14a3 3 0 00-3.27-2.41m-.11 3H229.24c0 .11.17.53.55 2.08l1.07 4.41h-3.36zM249.7 32h-2.19a.63.63 0 00-.46.18.61.61 0 00-.2.45v5.89H241v-5.89a.61.61 0 00-.2-.45.65.65 0 00-.46-.18h-2.18a.66.66 0 00-.47.18.64.64 0 00-.18.45v15.56a.65.65 0 00.65.66h2.18a.64.64 0 00.46-.19.65.65 0 00.2-.47v-6.55h5.85v6.55a.65.65 0 00.66.66h2.19a.61.61 0 00.45-.19.63.63 0 00.2-.47V32.63a.6.6 0 00-.19-.45.67.67 0 00-.46-.18M265.38 32.5c0-.14-.06-.48-.63-.48h-2.53a.76.76 0 00-.67.27l-5 6.76v-6.4a.64.64 0 00-.19-.45.67.67 0 00-.46-.18h-2.18a.65.65 0 00-.66.63v15.54a.65.65 0 00.66.66h2.18a.65.65 0 00.65-.66v-6.64l4.67 7a.79.79 0 00.69.35h3c.5 0 .54-.31.54-.41a.69.69 0 00-.16-.39l-5.6-7.87 5.49-7.23a.87.87 0 00.2-.49M276 34.24a3.43 3.43 0 00-6.55 0L265.8 48.1a.94.94 0 000 .16.55.55 0 00.61.59h2.35a.59.59 0 00.37-.14.62.62 0 00.21-.27s0-.09.4-1.63l.62-2.54h4.75l1 4a.62.62 0 00.63.53H279a.55.55 0 00.61-.59zm-3.38.63H272.79c0 .11.16.53.54 2.08l1.07 4.41H271zM87.08 56.48a16.78 16.78 0 00-2.89.26 5.74 5.74 0 00-1.72.42.63.63 0 00-.27.5V59a.57.57 0 00.62.62l2.38-.22c.74-.06 1.37-.1 1.88-.1 1.54 0 2.26.61 2.26 1.92v.35a2.11 2.11 0 01-.44 1.51 1.9 1.9 0 01-1.38.44H83.6a.58.58 0 00-.62.63v1.39a.58.58 0 00.62.64h3.92c1.24 0 1.82.64 1.82 2v.46a2.14 2.14 0 01-.53 1.63 2.43 2.43 0 01-1.73.5c-.76 0-2.18-.1-4.2-.31h-.06a.57.57 0 00-.62.61v1.37a.59.59 0 00.31.52 6.74 6.74 0 001.65.4 15.55 15.55 0 002.92.27 6.35 6.35 0 004.2-1.3 4.59 4.59 0 001.56-3.69v-.46a4.3 4.3 0 00-.52-2.07 3.84 3.84 0 00-1.18-1.29 3.65 3.65 0 001.7-3.27v-.35a4.31 4.31 0 00-1.5-3.57 6.61 6.61 0 00-4.26-1.2M100.36 56.48a3 3 0 00-3.28 2.41l-3.63 13.86a1.16 1.16 0 000 .16.56.56 0 00.62.59h2.34a.54.54 0 00.37-.14.53.53 0 00.21-.27s0-.09.4-1.63l.61-2.53h4.75l1 4a.62.62 0 00.63.53h2.34a.56.56 0 00.62-.59l-3.66-14a3 3 0 00-3.27-2.41m-.11 3.05H100.47c0 .11.16.54.54 2.09L102 66h-3.32zM125.85 62v-.2a4.79 4.79 0 00-1.71-4 7.75 7.75 0 00-4.86-1.33c-1 0-2 0-3 .13a4.87 4.87 0 00-1.87.33.79.79 0 00-.35.7v15.22a.6.6 0 00.19.46.63.63 0 00.46.19h2.21a.62.62 0 00.45-.19.65.65 0 00.18-.46v-5.54c.81 0 1.39.07 1.76.07a9.32 9.32 0 003.54-.6 4.71 4.71 0 002.23-1.78 5.41 5.41 0 00.77-3m-6.57 2.44c-.44 0-1 0-1.76-.05v-4.87c.55-.05 1.14-.08 1.76-.08a4 4 0 012.4.57 2.13 2.13 0 01.7 1.79v.2a2.19 2.19 0 01-.72 1.86 3.89 3.89 0 01-2.38.58M132 56.48a3 3 0 00-3.28 2.41l-3.63 13.86a1.16 1.16 0 000 .16.55.55 0 00.61.59h2.3a.54.54 0 00.37-.14.53.53 0 00.21-.27s0-.09.4-1.63l.62-2.53h4.75l1 4a.61.61 0 00.63.53h2.34a.55.55 0 00.61-.59l-3.65-14a3 3 0 00-3.28-2.39m-.11 3.05h.11c0 .11.16.54.54 2.09l1.11 4.38h-3.35zM144.88 56.48a16.78 16.78 0 00-2.89.26 5.47 5.47 0 00-1.71.42.6.6 0 00-.27.5V59a.57.57 0 00.61.62l2.38-.22c.74-.06 1.37-.1 1.88-.1 1.54 0 2.26.61 2.26 1.92v.35a2.11 2.11 0 01-.44 1.51 1.88 1.88 0 01-1.37.44h-3.92a.58.58 0 00-.63.63v1.39a.59.59 0 00.63.64h3.92c1.23 0 1.81.64 1.81 2v.46a2.14 2.14 0 01-.53 1.63 2.43 2.43 0 01-1.73.5c-.76 0-2.17-.1-4.2-.31h-.06a.56.56 0 00-.61.61v1.37a.58.58 0 00.3.52 7 7 0 001.66.4 15.36 15.36 0 002.91.27 6.34 6.34 0 004.2-1.3 4.56 4.56 0 001.56-3.69v-.46a4.19 4.19 0 00-.52-2.07 3.84 3.84 0 00-1.18-1.29 3.65 3.65 0 001.7-3.27v-.35a4.31 4.31 0 00-1.5-3.57 6.61 6.61 0 00-4.26-1.2M163.24 65a3.39 3.39 0 001.21-1.2 4.17 4.17 0 00.56-2.14v-.44c0-3.12-2.36-4.7-7-4.7-.76 0-1.64 0-2.61.1-1.39.09-1.75.29-1.91.43a1.44 1.44 0 00-.38 1.1V72a1.26 1.26 0 00.52 1.17 4.78 4.78 0 001.81.37c.87.07 1.8.11 2.76.11a8.92 8.92 0 005.2-1.23 4.31 4.31 0 001.74-3.76v-.37a3.54 3.54 0 00-1.9-3.29m-6.66 1.27h2.6a2.81 2.81 0 011.89.56 2 2 0 01.61 1.57v.29a1.68 1.68 0 01-.76 1.59 5.76 5.76 0 01-2.73.48h-1.61zm5-4.56c0 1.26-.79 1.88-2.42 1.88h-2.6v-4.11h1.41a6.36 6.36 0 012.86.45 1.53 1.53 0 01.75 1.46zM179 56.65h-2.4a1.07 1.07 0 00-.74.23 1.67 1.67 0 00-.42.61l-5 11.09V57.29a.58.58 0 00-.63-.64h-1.9a.58.58 0 00-.63.64v15.12a1.06 1.06 0 00.32.77 1 1 0 00.78.32h2.22a2.27 2.27 0 00.9-.14 1.41 1.41 0 00.64-.78L176.92 62v10.85a.69.69 0 00.17.46.6.6 0 00.46.19h1.88a.64.64 0 00.45-.18.62.62 0 00.21-.47v-15.1a1.13 1.13 0 00-1.1-1.1M193.11 56.65H182.3a.65.65 0 00-.66.64V59a.59.59 0 00.66.62h3.7v13.2a.6.6 0 00.19.46.63.63 0 00.46.19h2.18a.65.65 0 00.66-.65V59.65h3.66a.59.59 0 00.66-.62v-1.74a.63.63 0 00-.2-.46.65.65 0 00-.46-.18M207.08 56.65h-2.39a1.1 1.1 0 00-.75.23 1.8 1.8 0 00-.42.61l-5 11.09V57.29a.59.59 0 00-.63-.64H196a.59.59 0 00-.64.64v15.12a1.09 1.09 0 001.1 1.09h2.22a2.23 2.23 0 00.9-.14 1.42 1.42 0 00.65-.78L205 62v10.85a.65.65 0 00.18.46.6.6 0 00.46.19h1.88a.64.64 0 00.45-.18.65.65 0 00.2-.47v-15.1a1.06 1.06 0 00-.33-.77 1 1 0 00-.77-.33M219.17 56.63a28.88 28.88 0 00-3-.15 5.82 5.82 0 00-4.1 1.18 4.79 4.79 0 00-1.21 3.56v7.72a4.79 4.79 0 001.21 3.56 5.82 5.82 0 004.1 1.18 27.25 27.25 0 003.15-.16c1.3-.16 1.41-.24 1.48-.29a.6.6 0 00.23-.53v-1.42a.66.66 0 00-.19-.46.64.64 0 00-.47-.19h-4.51a1.64 1.64 0 01-1.22-.35 2.1 2.1 0 01-.31-1.34v-2.65h5.77a.65.65 0 00.66-.65v-1.59a.66.66 0 00-.19-.46.64.64 0 00-.47-.19h-5.77v-2.18a2.09 2.09 0 01.31-1.33 1.64 1.64 0 011.22-.35h4.51a.65.65 0 00.66-.66v-1.41a.69.69 0 00-.17-.5c-.08-.08-.17-.18-1.68-.34" fill="#fff"/>
</svg>
