<svg xmlns="http://www.w3.org/2000/svg" width="21.728" height="21.712" viewBox="0 0 21.728 21.712">
    <g>
        <path fill="#028793" d="M20.652 16.872a1.369 1.369 0 0 0-2.084 0c-.481.481-.982.962-1.443 1.463a.291.291 0 0 1-.4.08c-.321-.18-.641-.3-.942-.5a14.994 14.994 0 0 1-3.627-3.307 8.661 8.661 0 0 1-1.3-2.084.285.285 0 0 1 .08-.381c.481-.461.962-.962 1.443-1.423a1.385 1.385 0 0 0 0-2.124l-1.146-1.143-1.183-1.182a1.406 1.406 0 0 0-2.1-.02c-.481.481-.962.982-1.463 1.443a2.358 2.358 0 0 0-.742 1.6 6.807 6.807 0 0 0 .518 2.906 17.845 17.845 0 0 0 3.146 5.231 18.959 18.959 0 0 0 6.433 5.03 9.646 9.646 0 0 0 3.567 1.042 2.634 2.634 0 0 0 2.245-.862c.421-.461.882-.882 1.323-1.343a1.385 1.385 0 0 0 0-2.124c-.762-.739-1.544-1.52-2.325-2.302z" transform="translate(-12 7.213) rotate(14.98 60.475 40.528)"/>
    </g>
</svg>
