<svg xmlns="http://www.w3.org/2000/svg" width="54" height="54" viewBox="0 0 54 54">
    <defs>
        <linearGradient id="linear-gradient" x1="2.57" x2=".196" y1="3.192" y2=".21" gradientUnits="objectBoundingBox">
            <stop offset="0" stop-color="#01285c"/>
            <stop offset="1" stop-color="#008dc9"/>
        </linearGradient>
        <style>
            .cls-1{fill:url(#linear-gradient)}
        </style>
    </defs>
    <g id="graph" transform="translate(0 -1)">
        <path id="Path_63" d="M4.348 23a2.348 2.348 0 0 1-1.66-4L18.9 2.782a2.347 2.347 0 1 1 3.32 3.32L6.008 22.316a2.341 2.341 0 0 1-1.66.684z" class="cls-1" transform="translate(2.695 1.474)"/>
        <path id="Path_64" d="M16.978 12.739a1.752 1.752 0 0 1-1.244-.517L7.517 4.005A1.76 1.76 0 0 1 8.761 1h8.217a1.762 1.762 0 0 1 1.761 1.761v8.217a1.76 1.76 0 0 1-1.761 1.761z" class="cls-1" transform="translate(8.57)"/>
        <path id="Path_65" d="M15.087 16.935v13.5H1v-13.5A2.936 2.936 0 0 1 3.935 14h8.217a2.936 2.936 0 0 1 2.935 2.935z" class="cls-1" transform="translate(1.348 17.522)"/>
        <path id="Path_66" d="M23.087 12.935v22.891H9V12.935A2.936 2.936 0 0 1 11.935 10h8.217a2.936 2.936 0 0 1 2.935 2.935z" class="cls-1" transform="translate(10.957 12.13)"/>
        <path id="Path_67" d="M31.087 8.935v32.282H17V8.935A2.936 2.936 0 0 1 19.935 6h8.217a2.936 2.936 0 0 1 2.935 2.935z" class="cls-1" transform="translate(20.565 6.739)"/>
        <path id="Path_68" d="M52.313 26.022H1.688a1.762 1.762 0 0 1 0-3.522h50.625a1.762 1.762 0 0 1 0 3.522z" class="cls-1" transform="translate(0 28.978)"/>
    </g>
</svg>
