<svg xmlns="http://www.w3.org/2000/svg" width="25.084" height="25.082" viewBox="0 0 25.084 25.082">
  <path id="Union_22" data-name="Union 22" d="M15065,12.391a12.392,12.392,0,1,1,12.392,12.391A12.392,12.392,0,0,1,15065,12.391Zm.762,0a11.628,11.628,0,1,0,11.63-11.63A11.642,11.642,0,0,0,15065.763,12.391Zm11.743,5.283a.688.688,0,0,1-.265-.178.781.781,0,0,1-.178-.265.851.851,0,0,1-.064-.333.874.874,0,0,1,.064-.329.82.82,0,0,1,.772-.515.809.809,0,0,1,.329.064.837.837,0,0,1,.447.451.893.893,0,0,1,.064.329.825.825,0,0,1-.243.6.75.75,0,0,1-.269.178.877.877,0,0,1-.329.064A.867.867,0,0,1,15077.506,17.674Zm-.057-3.4c-.026-.235-.049-.454-.068-.655s-.037-.405-.053-.6-.022-.39-.026-.583-.012-.39-.012-.591V8h1.137V11.85q0,.3-.012.591c-.008.193-.015.386-.03.583s-.03.394-.049.6-.046.42-.072.655Z" transform="translate(-15064.851 0.15)" fill="#ed6464" stroke="#ed6464" stroke-width="0.3"/>
</svg>
