<svg xmlns="http://www.w3.org/2000/svg" id="linkedin" width="20" height="20" viewBox="0 0 20 20">
    <defs>
        <style>
            .cls-1{fill:#006daa}
        </style>
    </defs>
    <path id="Path_85" d="M21.41 21.262h.005v-7.336c0-3.588-.773-6.352-4.968-6.352a4.355 4.355 0 0 0-3.922 2.156h-.058V7.909H8.489v13.352h4.142V14.65c0-1.741.33-3.424 2.486-3.424 2.124 0 2.156 1.987 2.156 3.536v6.5z" class="cls-1" transform="translate(-1.415 -1.262)"/>
    <path id="Path_86" d="M.4 7.977h4.143v13.352H.4z" class="cls-1" transform="translate(-.066 -1.33)"/>
    <path id="Path_87" d="M2.4 0a2.413 2.413 0 1 0 2.4 2.4A2.4 2.4 0 0 0 2.4 0z" class="cls-1"/>
</svg>
