<svg xmlns="http://www.w3.org/2000/svg" width="23.672" height="17.314" viewBox="0 0 23.672 17.314">
    <defs>
        <style>
            .cls-1{fill:#006daa}
        </style>
    </defs>
    <g id="noun_Email_1898140" transform="translate(-58.2 -180)">
        <path id="Path_11" d="M65.986 229.78c-.018.018-.036.036-.055.052l-.008.008-.031.031c-.052.052-.107.1-.159.154q-1.005.974-2.013 1.945l-2.42 2.342-.386.373-1.158 1.121-.516.5h-.015v.005a1.262 1.262 0 0 0-.005.005.036.036 0 0 1-.01.008h-.005c-.089.086-.177.172-.269.256-.031.029-.063.06-.091.089l-.057.055a.247.247 0 0 0-.026.026l-.029.031-.159.151c-.091.086-.18.172-.263.258l-.008.008c-.031.034-.063.065-.091.1V222.2c.023.026.047.05.073.076l.013.013.031.031.031.031.031.031c.052.052.107.1.162.154s.115.11.169.164l.031.031.4.391.086.086.042.042.023.023 1.317 1.283.415.4.9.879 2.978 2.894c.36.36.715.707 1.072 1.051z" class="cls-1" transform="translate(0 -41.1)"/>
        <path id="Path_12" d="M122.547 180c-.169.172-.339.344-.506.516l-.005.005c-.136.138-.271.274-.4.412l-.1.1-.005.005-2.156 2.2q-1.334 1.357-2.665 2.715l-1.995 2.034a.658.658 0 0 0-.164.13.676.676 0 0 0-.109.151c-.183.188-.368.373-.55.561l-.154.156a.3.3 0 0 1-.029.029l-.078.07c-.052.044-.1.089-.159.133-.034.023-.065.05-.1.073a3.753 3.753 0 0 1-.563.323 2.9 2.9 0 0 1-.535.149 2.677 2.677 0 0 1-.5 0 3.045 3.045 0 0 1-.542-.151.983.983 0 0 1-.091-.044l-.091-.047c-.06-.031-.12-.065-.177-.1s-.115-.073-.169-.112c-.021-.013-.039-.029-.06-.042a3.477 3.477 0 0 1-.271-.248c-.091-.091-.185-.18-.279-.271l-.508-.493a.229.229 0 0 1-.016-.026l-.016-.021a.11.11 0 0 1-.013-.018l-.018-.023a.061.061 0 0 0-.018-.018l-.016-.016-.016-.016a1.121 1.121 0 0 0-.128-.1l-1.233-1.2-2.926-2.845q-1.361-1.326-2.725-2.649c-.073-.07-.146-.141-.219-.209l-.037-.037a.431.431 0 0 0-.036-.034l-.01-.005c-.052-.055-.107-.109-.162-.164v-.005s0-.005-.005-.008l-.172-.169-.016-.016-.023-.023-.042-.042-.042-.042c-.016-.013-.029-.029-.044-.042l-.005-.005c-.023-.021-.044-.044-.068-.065 0-.005-.008-.008-.01-.01l-.008-.008-.047-.047-.162-.156c-.073-.07-.146-.141-.219-.209L101.1 180h21.448z" class="cls-1" transform="translate(-41.781)"/>
        <path id="Path_13" d="M688.042 222.5v15.1c-.175-.175-.347-.352-.521-.527l-.243-.245-.279-.282-1.643-1.661q-1.158-1.169-2.316-2.342l-2.018-2.039-.423-.43c.076-.076.149-.151.224-.229q1.388-1.416 2.782-2.832t2.793-2.845c.2-.2.4-.407.6-.61l.005-.005.516-.524s.005 0 .005-.005l.477-.485z" class="cls-1" transform="translate(-606.17 -41.392)"/>
        <path id="Path_14" d="M121.963 562.439H100.5c.177-.172.355-.344.535-.516 0 0 .005 0 .005-.005.086-.083.172-.167.261-.25l.274-.266.005-.005 1.731-1.674 2.425-2.342 2.1-2.031c.156-.151.313-.3.469-.448a6.773 6.773 0 0 0 1.215 1.017 3.662 3.662 0 0 0 2.78.433 4.4 4.4 0 0 0 1.979-1.171c.083-.083.164-.167.248-.253l.227.229q.962.97 1.922 1.943 1.158 1.169 2.316 2.342l1.937 1.956c.026.029.055.055.081.083l.43.438c.174.173.346.347.523.52z" class="cls-1" transform="translate(-41.197 -365.124)"/>
    </g>
</svg>
