<svg xmlns="http://www.w3.org/2000/svg" id="noun_Goal_Achieve_1846419" width="54" height="54" viewBox="0 0 54 54">
    <defs>
        <linearGradient id="linear-gradient" x1="2.57" x2=".196" y1="3.192" y2=".21" gradientUnits="objectBoundingBox">
            <stop offset="0" stop-color="#01285c"/>
            <stop offset="1" stop-color="#008dc9"/>
        </linearGradient>
        <style>
            .cls-1{fill:url(#linear-gradient)}
        </style>
    </defs>
    <g id="Group_22">
        <g id="Group_18" transform="translate(0 29.187)">
            <path id="Path_54" d="M8.758 49.808a2.9 2.9 0 0 0-.109 2.514H3.074a2.116 2.116 0 0 1-1.858-1.093 2.228 2.228 0 0 1 .219-2.186l12.024-15.3a4.591 4.591 0 0 1 3.389-1.64 3.026 3.026 0 0 1 .984.109z" class="cls-1" transform="translate(-1.026 -27.618)"/>
            <path id="Path_55" d="M52.485 51.392a2.074 2.074 0 0 1-1.858 1.421h-9.073a4.4 4.4 0 0 0 .109-4.044L32.7 31.279l.874-1.312A3.893 3.893 0 0 1 36.963 28a4.138 4.138 0 0 1 3.389 1.968l12.023 19.019a3.071 3.071 0 0 1 .11 2.405z" class="cls-1" transform="translate(1.317 -28)"/>
        </g>
        <g id="Group_19" transform="translate(9.278 25.471)">
            <path id="Path_56" d="M41.722 52.036a1.854 1.854 0 0 1-1.749.984H10.9a1.3 1.3 0 0 1-.984-.547.993.993 0 0 1 0-1.093L22.484 26.9a4.245 4.245 0 0 1 7.542 0l11.806 23.059a2.03 2.03 0 0 1-.11 2.077z" class="cls-1" transform="translate(-9.75 -24.6)"/>
        </g>
        <g id="Group_20" transform="translate(28.491 1.421)">
            <path id="Path_57" d="M42.8 11.226a1.293 1.293 0 0 1 .109 1.093 1.148 1.148 0 0 1-.984.547H27.5V2.7h14.319a1.148 1.148 0 0 1 .984.547.841.841 0 0 1-.109 1.093l-2.3 3.5z" class="cls-1" transform="translate(-27.5 -2.7)"/>
        </g>
        <g id="Group_21" transform="translate(24.283)">
            <path id="Path_58" d="M25.686 2.493v22.189h-.765a6.233 6.233 0 0 0-1.421.109V2.493A1.1 1.1 0 0 1 24.593 1.4a1.033 1.033 0 0 1 1.093 1.093z" class="cls-1" transform="translate(-23.5 -1.4)"/>
        </g>
    </g>
</svg>
