<svg xmlns="http://www.w3.org/2000/svg" width="33.257" height="37.019" viewBox="0 0 33.257 37.019">
    <defs>
        <style>
            .cls-2{fill:#fff}
        </style>
    </defs>
    <g id="noun_Online_Banking_2018788" opacity="0.952" transform="translate(-5.164 -2)">
        <g id="Group_44" transform="translate(5.164 2)">
            <g id="Group_32" transform="translate(.022 33.496)">
                <path id="Path_72" d="M31.651 58.1H5.8a.564.564 0 0 0-.6.6v2.329a.564.564 0 0 0 .6.6h25.851a.564.564 0 0 0 .6-.6V58.7a.6.6 0 0 0-.6-.6z" class="cls-2" transform="translate(-5.2 -58.1)"/>
            </g>
            <g id="Group_33" transform="translate(0 9.643)">
                <path id="Path_73" d="M5.783 27.793h25.853a.719.719 0 0 0 .6-.418.567.567 0 0 0-.239-.657L19.038 18.24a.647.647 0 0 0-.657 0L5.424 26.718a.567.567 0 0 0-.239.657.593.593 0 0 0 .598.418z" class="cls-2" transform="translate(-5.164 -18.15)"/>
            </g>
            <g id="Group_34" transform="translate(18.531 20.48)">
                <path id="Path_74" d="M41.753 37.375a.6.6 0 0 0 .6-.6V36.3H36.2v.478a.6.6 0 0 0 .6.6h.358v9.613H36.8a.6.6 0 0 0-.6.6v.478h6.15v-.478a.6.6 0 0 0-.6-.6h-.358v-9.616z" class="cls-2" transform="translate(-36.2 -36.3)"/>
            </g>
            <g id="Group_35" transform="translate(10.47 20.48)">
                <path id="Path_75" d="M28.253 37.375a.6.6 0 0 0 .6-.6V36.3H22.7v.478a.642.642 0 0 0 .6.6h.358v9.613H23.3a.642.642 0 0 0-.6.6v.478h6.15v-.478a.642.642 0 0 0-.6-.6h-.358v-9.616z" class="cls-2" transform="translate(-22.7 -36.3)"/>
            </g>
            <g id="Group_36" transform="translate(2.41 20.48)">
                <path id="Path_76" d="M14.753 37.375a.6.6 0 0 0 .6-.6V36.3H9.2v.478a.6.6 0 0 0 .6.6h.358v9.613H9.8a.6.6 0 0 0-.6.6v.478h6.15v-.478a.6.6 0 0 0-.6-.6h-.358v-9.616z" class="cls-2" transform="translate(-9.2 -36.3)"/>
            </g>
            <g id="Group_37" transform="translate(8.202 8.777)">
                <path id="Path_77" d="M19.437 16.7a12.116 12.116 0 0 0-.537 2.866l4.359-2.866z" class="cls-2" transform="translate(-18.9 -16.7)"/>
            </g>
            <g id="Group_38" transform="translate(9.157 .299)">
                <path id="Path_78" d="M29.217 2.5a12.6 12.6 0 0 0-6.568 3.881A13.3 13.3 0 0 0 20.5 9.725h5.911A15.725 15.725 0 0 1 29.217 2.5z" class="cls-2" transform="translate(-20.5 -2.5)"/>
            </g>
            <g id="Group_39" transform="translate(16.262)">
                <path id="Path_79" d="M41.237 9.583C40.461 5.1 38.669 2 36.818 2S33.176 5.1 32.4 9.583z" class="cls-2" transform="translate(-32.4 -2)"/>
            </g>
            <g id="Group_40" transform="translate(16.023 8.777)">
                <path id="Path_80" d="M32 17.655l9.314 6.09a30.991 30.991 0 0 0-.06-7.046h-9.2c.006.301-.054.601-.054.956z" class="cls-2" transform="translate(-32 -16.7)"/>
            </g>
            <g id="Group_41" transform="translate(24.92 17.554)">
                <path id="Path_81" d="M50.184 33.072a1.74 1.74 0 0 1-1.732 1.254h-.6v.474a1.885 1.885 0 0 1-.418 1.134c-.179.6-.358 1.194-.537 1.672v.6a12.429 12.429 0 0 0 7.287-6.806h-4.358a1.684 1.684 0 0 1 .358 1.672z" class="cls-2" transform="translate(-46.9 -31.4)"/>
            </g>
            <g id="Group_42" transform="translate(23.487 .358)">
                <path id="Path_82" d="M53.217 9.825A12.425 12.425 0 0 0 44.5 2.6a15.45 15.45 0 0 1 2.806 7.225z" class="cls-2" transform="translate(-44.5 -2.6)"/>
            </g>
            <g id="Group_43" transform="translate(26.472 8.777)">
                <path id="Path_83" d="M55.71 16.7H49.5a32.213 32.213 0 0 1 0 7.583h6.15a12.2 12.2 0 0 0 .06-7.583z" class="cls-2" transform="translate(-49.5 -16.7)"/>
            </g>
        </g>
    </g>
</svg>
