<svg xmlns="http://www.w3.org/2000/svg" width="26.639" height="26.639" viewBox="0 0 26.639 26.639">
    <g opacity="0.952">
        <g>
            <g>
                <path fill="#fff" stroke="#fff" d="M15.44 7.617A5.317 5.317 0 0 0 11.536 6 5.521 5.521 0 0 0 6 11.536a5.317 5.317 0 0 0 1.617 3.9 5.341 5.341 0 0 0 3.919 1.632 5.294 5.294 0 0 0 3.9-1.632 5.294 5.294 0 0 0 1.632-3.9 5.341 5.341 0 0 0-1.628-3.919m-3.9.714a3.208 3.208 0 0 1 3.2 3.2 3.233 3.233 0 0 1-3.2 3.2 3.208 3.208 0 0 1-3.2-3.2 3.183 3.183 0 0 1 3.2-3.2M31.639 26.1a5.546 5.546 0 0 0-5.539-5.532 5.532 5.532 0 0 0-3.919 9.44 5.5 5.5 0 0 0 7.823 0 5.294 5.294 0 0 0 1.632-3.9m-3.278-2.273a3.1 3.1 0 0 1 .947 2.273 3.233 3.233 0 0 1-3.2 3.2 3.2 3.2 0 1 1 2.258-5.478M30.474 6a1.159 1.159 0 0 0-.83.335L6.335 29.644a1.159 1.159 0 0 0-.335.83 1.11 1.11 0 0 0 .335.816 1.134 1.134 0 0 0 .83.35 1.087 1.087 0 0 0 .816-.35L31.29 7.981a1.087 1.087 0 0 0 .35-.816 1.134 1.134 0 0 0-.35-.83A1.11 1.11 0 0 0 30.474 6z" transform="translate(152.5 49.5) translate(-152 -49) translate(-6 -6)"/>
            </g>
        </g>
    </g>
</svg>
