<svg id="Component_2_1" data-name="Component 2 – 1" xmlns="http://www.w3.org/2000/svg" width="478.574" height="236.874" viewBox="0 0 478.574 236.874">
  <path id="Path_4" data-name="Path 4" d="M421.172,136.644,342.3,255.081l78.876,118.437,78.876-118.437Z" transform="translate(-303.773 -136.644)" fill="#fff" opacity="0.6"/>
  <path id="Path_5" data-name="Path 5" d="M508.855,153.578,391.641,234.26,420.9,373.517l117.214-80.683Z" transform="translate(-303.773 -136.644)" fill="#fff" opacity="0.6"/>
  <path id="Path_6" data-name="Path 6" d="M333.034,153.578,303.773,292.835l117.214,80.683L450.248,234.26Z" transform="translate(-303.773 -136.644)" fill="#fff" opacity="0.6"/>
  <path id="Union_1" data-name="Union 1" d="M-539.814-150.878a3.913,3.913,0,0,1-.771-.077v-3.465q.693,0,2.041-.077a4.88,4.88,0,0,0,2.039-.463,2.437,2.437,0,0,0,.733-.732,15.162,15.162,0,0,0,1.116-1.963q.693-1.386,1.771-3.888t2.7-6.507l-17.865-40.04h4.082l15.862,36.267,14.861-36.267h3.775l-21.947,52.668a6.547,6.547,0,0,1-3.042,3.657,10.724,10.724,0,0,1-4.581.886Zm71.915-18.058a19.383,19.383,0,0,1-6.276-4.542,21.447,21.447,0,0,1-4.158-6.66,21.667,21.667,0,0,1-1.5-8.086,21.174,21.174,0,0,1,1.5-7.97,20.97,20.97,0,0,1,4.12-6.544,18.985,18.985,0,0,1,6.237-4.428,18.836,18.836,0,0,1,7.777-1.617,18.384,18.384,0,0,1,7.815,1.656,19.679,19.679,0,0,1,6.2,4.466,20.99,20.99,0,0,1,4.12,6.545,20.962,20.962,0,0,1,1.5,7.892c0,.257-.013.577-.039.962s-.039.63-.039.732h-35.189a17.793,17.793,0,0,0,1.617,6.43,18.243,18.243,0,0,0,3.5,5.121,15.727,15.727,0,0,0,4.89,3.388,14.437,14.437,0,0,0,5.929,1.232,15.065,15.065,0,0,0,4.12-.578A16.431,16.431,0,0,0-452-172.515a13.506,13.506,0,0,0,3.08-2.426,11.339,11.339,0,0,0,2.117-3.118l3.389.923a14.035,14.035,0,0,1-2.58,3.966,16.956,16.956,0,0,1-3.849,3.118,19.664,19.664,0,0,1-4.812,2.04,19.971,19.971,0,0,1-5.39.732A18.64,18.64,0,0,1-467.9-168.935Zm1.771-35.5a15.577,15.577,0,0,0-4.889,3.312,16.021,16.021,0,0,0-3.389,5.082,19.483,19.483,0,0,0-1.5,6.429h31.569a18.155,18.155,0,0,0-1.579-6.467,17.273,17.273,0,0,0-3.465-5.044,15.588,15.588,0,0,0-4.889-3.312,14.852,14.852,0,0,0-5.929-1.192A14.843,14.843,0,0,0-466.127-204.432Zm-28.913,36.383a7.23,7.23,0,0,1-2.5-1.386,7.043,7.043,0,0,1-1.732-2.233,6.794,6.794,0,0,1-.655-3.081v-30.183h-5.621v-3.157h5.621V-221.8h3.85v13.706h9.4v3.157h-9.4v29.26a3.868,3.868,0,0,0,1.54,3.35A5.87,5.87,0,0,0-491-171.206a9.668,9.668,0,0,0,4.119-.809q1.732-.809,2.118-1.039l1.156,3.08q-.309.155-1.04.577a10.611,10.611,0,0,1-1.849.809,22.632,22.632,0,0,1-2.5.693,13.9,13.9,0,0,1-3,.308A9.8,9.8,0,0,1-495.04-168.049Zm91.822,0-15.631-21.406-9.47,8.7v12.705h-3.851v-56.21h3.851v39.271l24.332-23.024h4.466l-16.786,16.248,17.325,23.716Zm-186.954,0v-54.671h22.486a14.1,14.1,0,0,1,6.39,1.463,16.321,16.321,0,0,1,5.044,3.889,18.6,18.6,0,0,1,3.311,5.466,16.681,16.681,0,0,1,1.193,6.123,18.65,18.65,0,0,1-1.116,6.391,17.554,17.554,0,0,1-3.157,5.467,15.6,15.6,0,0,1-4.851,3.811,13.679,13.679,0,0,1-6.275,1.425h-19.1v20.636Zm3.928-24.255h18.865a10.409,10.409,0,0,0,4.851-1.116,11.219,11.219,0,0,0,3.658-3,13.935,13.935,0,0,0,2.31-4.313,15.833,15.833,0,0,0,.808-5.043,13.76,13.76,0,0,0-.963-5.121,14.2,14.2,0,0,0-2.617-4.273,12.6,12.6,0,0,0-3.85-2.926,10.423,10.423,0,0,0-4.659-1.078h-18.4Z" transform="translate(876.571 311.874)" fill="#fff" stroke="rgba(0,0,0,0)" stroke-miterlimit="10" stroke-width="1"/>
</svg>
