<svg xmlns="http://www.w3.org/2000/svg" width="173" height="111" viewBox="0 0 173 111"><defs><mask id="r2c0b" width="2" height="2" x="-1" y="-1"><path fill="#fff" d="M5 1h163v102H5z"/><path d="M12.004 103.002A7.003 7.003 0 0 1 5.002 96V13A7 7 0 0 1 12.004 6h72.142L87.001 1l2.856 4.999h71.144A7 7 0 0 1 168.003 13v83a7.003 7.003 0 0 1-7.002 7.002z"/></mask><filter id="r2c0a" width="195" height="137" x="-11" y="-15" filterUnits="userSpaceOnUse"><feOffset dy="3" in="SourceGraphic" result="FeOffset1043Out"/><feGaussianBlur in="FeOffset1043Out" result="FeGaussianBlur1044Out" stdDeviation="2.4 2.4"/></filter></defs><g><g><g filter="url(#r2c0a)"><path fill="none" d="M12.004 103.002A7.003 7.003 0 0 1 5.002 96V13A7 7 0 0 1 12.004 6h72.142L87.001 1l2.856 4.999h71.144A7 7 0 0 1 168.003 13v83a7.003 7.003 0 0 1-7.002 7.002z" mask="url(&quot;#r2c0b&quot;)"/><path fill-opacity=".16" d="M12.004 103.002A7.003 7.003 0 0 1 5.002 96V13A7 7 0 0 1 12.004 6h72.142L87.001 1l2.856 4.999h71.144A7 7 0 0 1 168.003 13v83a7.003 7.003 0 0 1-7.002 7.002z"/></g><path fill="#fff" d="M12.004 103.002A7.003 7.003 0 0 1 5.002 96V13A7 7 0 0 1 12.004 6h72.142L87.001 1l2.856 4.999h71.144A7 7 0 0 1 168.003 13v83a7.003 7.003 0 0 1-7.002 7.002z"/></g></g></svg>