<svg xmlns="http://www.w3.org/2000/svg" width="25.055" height="25.4" viewBox="0 0 25.055 25.4">
    <g>
        <g>
            <path fill="#69666c" d="M12.278 29.921a11.289 11.289 0 0 0 15.06.94l4.262 4.321a1.389 1.389 0 0 0 1.986 0 1.435 1.435 0 0 0 0-2.013l-4.256-4.318a11.683 11.683 0 0 0-.93-15.267 11.289 11.289 0 0 0-16.118 0 11.664 11.664 0 0 0 0 16.337zM14.267 15.6a8.511 8.511 0 0 1 12.147 0 8.8 8.8 0 0 1 0 12.311 8.515 8.515 0 0 1-12.143 0 8.8 8.8 0 0 1 0-12.311z" transform="translate(-8.94 -10.2) translate(8.94 10.2) translate(-8.94 -10.2)"/>
        </g>
    </g>
</svg>
