<svg xmlns="http://www.w3.org/2000/svg" width="25" height="26" viewBox="0 0 25 26"><g><g><path fill="#006daa" d="M5.327 5.397A8.475 8.475 0 0 1 11.4 2.85a8.48 8.48 0 0 1 6.074 2.548c3.347 3.394 3.347 8.917 0 12.31a8.515 8.515 0 0 1-12.144 0 8.712 8.712 0 0 1-2.513-6.156c0-2.327.886-4.51 2.51-6.154zM3.338 19.721a11.277 11.277 0 0 0 8.06 3.378c2.475 0 4.952-.814 7-2.438l4.259 4.321a1.39 1.39 0 0 0 1.986 0c.55-.557.55-1.46 0-2.013l-4.256-4.318c3.485-4.53 3.179-11.104-.93-15.267A11.248 11.248 0 0 0 11.396 0a11.248 11.248 0 0 0-8.059 3.384A11.555 11.555 0 0 0 0 11.55c0 3.086 1.187 5.99 3.338 8.17z"/></g></g></svg>