<svg xmlns="http://www.w3.org/2000/svg" width="19.244" height="18.71" viewBox="0 0 19.244 18.71">
    <defs>
        <style>
            .cls-1{fill:#69666c;stroke:#69666c;stroke-width:.3px}
        </style>
    </defs>
    <g id="noun_Search_1932513" transform="translate(-18.608 -178.167)">
        <path id="Path_148" d="M251.6 194.176a7.929 7.929 0 1 1 7.954-7.9 7.942 7.942 0 0 1-7.954 7.9zm0-14.858a6.954 6.954 0 1 0 6.954 6.954 6.939 6.939 0 0 0-6.954-6.954z" class="cls-1" transform="translate(-224.883)"/>
        <path id="Path_149" d="M706.363 623.884a.454.454 0 0 1-.35-.15l-4.953-4.953a.5.5 0 0 1 .7-.7l4.953 4.953a.484.484 0 0 1 0 .7.454.454 0 0 1-.35.15z" class="cls-1" transform="translate(-669.195 -427.157)"/>
    </g>
</svg>
