<svg xmlns="http://www.w3.org/2000/svg" width="24.385" height="19.813" viewBox="0 0 24.385 19.813">
    <g>
        <g>
            <path fill="#006daa" d="M24.385 50.346a10.423 10.423 0 0 1-2.881.789 4.971 4.971 0 0 0 2.2-2.763 9.991 9.991 0 0 1-3.17 1.21A5 5 0 0 0 11.886 53 5.148 5.148 0 0 0 12 54.141a14.15 14.15 0 0 1-10.3-5.23 5 5 0 0 0 1.536 6.682 4.937 4.937 0 0 1-2.259-.616v.055a5.022 5.022 0 0 0 4.005 4.912 4.99 4.99 0 0 1-1.311.165 4.42 4.42 0 0 1-.946-.085 5.047 5.047 0 0 0 4.671 3.483 10.045 10.045 0 0 1-6.2 2.132A9.364 9.364 0 0 1 0 65.57a14.074 14.074 0 0 0 7.669 2.243A14.131 14.131 0 0 0 21.9 53.587c0-.221-.008-.434-.018-.646a9.973 9.973 0 0 0 2.503-2.595z" transform="translate(0 -48) translate(0 48) translate(0 -48)"/>
        </g>
    </g>
</svg>
