<svg xmlns="http://www.w3.org/2000/svg" width="32" height="29.657" viewBox="0 0 32 29.657">
    <defs>
        <style>
            .cls-1{fill:#b1afb2}
        </style>
    </defs>
    <g id="upload" transform="translate(0 -17.25)">
        <g id="Group_217" transform="translate(0 17.25)">
            <path id="Path_146" d="M31.083 228.286a.913.913 0 0 0-.917.917v8.34a4.114 4.114 0 0 1-4.109 4.109H5.942a4.114 4.114 0 0 1-4.109-4.109v-8.475a.917.917 0 1 0-1.834 0v8.475a5.949 5.949 0 0 0 5.942 5.942h20.117A5.949 5.949 0 0 0 32 237.542V229.2a.917.917 0 0 0-.917-.914z" class="cls-1" transform="translate(0 -213.827)"/>
            <path id="Path_147" d="M137.885 24.646l4.265-4.265v18.6a.917.917 0 0 0 1.834 0v-18.6l4.265 4.265a.923.923 0 0 0 .645.272.884.884 0 0 0 .645-.272.914.914 0 0 0 0-1.3l-5.827-5.827a.928.928 0 0 0-.645-.272.888.888 0 0 0-.645.272l-5.827 5.827a.915.915 0 1 0 1.29 1.3z" class="cls-1" transform="translate(-127.067 -17.25)"/>
        </g>
    </g>
</svg>
